<?xml version="1.0" encoding="utf-8" standalone="no"?>
<!DOCTYPE svg PUBLIC "-//W3C//DTD SVG 1.1//EN"
  "http://www.w3.org/Graphics/SVG/1.1/DTD/svg11.dtd">
<svg xmlns:xlink="http://www.w3.org/1999/xlink" width="1440pt" height="720pt" viewBox="0 0 1440 720" xmlns="http://www.w3.org/2000/svg" version="1.1">
 <metadata>
  <rdf:RDF xmlns:dc="http://purl.org/dc/elements/1.1/" xmlns:cc="http://creativecommons.org/ns#" xmlns:rdf="http://www.w3.org/1999/02/22-rdf-syntax-ns#">
   <cc:Work>
    <dc:type rdf:resource="http://purl.org/dc/dcmitype/StillImage"/>
    <dc:date>2023-11-03T23:06:26.532446</dc:date>
    <dc:format>image/svg+xml</dc:format>
    <dc:creator>
     <cc:Agent>
      <dc:title>Matplotlib v3.8.1, https://matplotlib.org/</dc:title>
     </cc:Agent>
    </dc:creator>
   </cc:Work>
  </rdf:RDF>
 </metadata>
 <defs>
  <style type="text/css">*{stroke-linejoin: round; stroke-linecap: butt}</style>
 </defs>
 <g id="figure_1">
  <g id="patch_1">
   <path d="M 0 720 
L 1440 720 
L 1440 0 
L 0 0 
z
" style="fill: #ffffff"/>
  </g>
  <g id="axes_1">
   <g id="patch_2">
    <path d="M 180 640.8 
L 1296 640.8 
L 1296 86.4 
L 180 86.4 
z
" style="fill: #eaeaf2"/>
   </g>
   <g id="matplotlib.axis_1">
    <g id="xtick_1">
     <g id="text_1">
      <!-- Aug 2022 -->
      <g style="fill: #262626" transform="translate(184.514922 658.658281) scale(0.11 -0.11)">
       <defs>
        <path id="DejaVuSans-41" d="M 2188 4044 
L 1331 1722 
L 3047 1722 
L 2188 4044 
z
M 1831 4666 
L 2547 4666 
L 4325 0 
L 3669 0 
L 3244 1197 
L 1141 1197 
L 716 0 
L 50 0 
L 1831 4666 
z
" transform="scale(0.015625)"/>
        <path id="DejaVuSans-75" d="M 544 1381 
L 544 3500 
L 1119 3500 
L 1119 1403 
Q 1119 906 1312 657 
Q 1506 409 1894 409 
Q 2359 409 2629 706 
Q 2900 1003 2900 1516 
L 2900 3500 
L 3475 3500 
L 3475 0 
L 2900 0 
L 2900 538 
Q 2691 219 2414 64 
Q 2138 -91 1772 -91 
Q 1169 -91 856 284 
Q 544 659 544 1381 
z
M 1991 3584 
L 1991 3584 
z
" transform="scale(0.015625)"/>
        <path id="DejaVuSans-67" d="M 2906 1791 
Q 2906 2416 2648 2759 
Q 2391 3103 1925 3103 
Q 1463 3103 1205 2759 
Q 947 2416 947 1791 
Q 947 1169 1205 825 
Q 1463 481 1925 481 
Q 2391 481 2648 825 
Q 2906 1169 2906 1791 
z
M 3481 434 
Q 3481 -459 3084 -895 
Q 2688 -1331 1869 -1331 
Q 1566 -1331 1297 -1286 
Q 1028 -1241 775 -1147 
L 775 -588 
Q 1028 -725 1275 -790 
Q 1522 -856 1778 -856 
Q 2344 -856 2625 -561 
Q 2906 -266 2906 331 
L 2906 616 
Q 2728 306 2450 153 
Q 2172 0 1784 0 
Q 1141 0 747 490 
Q 353 981 353 1791 
Q 353 2603 747 3093 
Q 1141 3584 1784 3584 
Q 2172 3584 2450 3431 
Q 2728 3278 2906 2969 
L 2906 3500 
L 3481 3500 
L 3481 434 
z
" transform="scale(0.015625)"/>
        <path id="DejaVuSans-20" transform="scale(0.015625)"/>
        <path id="DejaVuSans-32" d="M 1228 531 
L 3431 531 
L 3431 0 
L 469 0 
L 469 531 
Q 828 903 1448 1529 
Q 2069 2156 2228 2338 
Q 2531 2678 2651 2914 
Q 2772 3150 2772 3378 
Q 2772 3750 2511 3984 
Q 2250 4219 1831 4219 
Q 1534 4219 1204 4116 
Q 875 4013 500 3803 
L 500 4441 
Q 881 4594 1212 4672 
Q 1544 4750 1819 4750 
Q 2544 4750 2975 4387 
Q 3406 4025 3406 3419 
Q 3406 3131 3298 2873 
Q 3191 2616 2906 2266 
Q 2828 2175 2409 1742 
Q 1991 1309 1228 531 
z
" transform="scale(0.015625)"/>
        <path id="DejaVuSans-30" d="M 2034 4250 
Q 1547 4250 1301 3770 
Q 1056 3291 1056 2328 
Q 1056 1369 1301 889 
Q 1547 409 2034 409 
Q 2525 409 2770 889 
Q 3016 1369 3016 2328 
Q 3016 3291 2770 3770 
Q 2525 4250 2034 4250 
z
M 2034 4750 
Q 2819 4750 3233 4129 
Q 3647 3509 3647 2328 
Q 3647 1150 3233 529 
Q 2819 -91 2034 -91 
Q 1250 -91 836 529 
Q 422 1150 422 2328 
Q 422 3509 836 4129 
Q 1250 4750 2034 4750 
z
" transform="scale(0.015625)"/>
       </defs>
       <use xlink:href="#DejaVuSans-41"/>
       <use xlink:href="#DejaVuSans-75" x="68.408203"/>
       <use xlink:href="#DejaVuSans-67" x="131.787109"/>
       <use xlink:href="#DejaVuSans-20" x="195.263672"/>
       <use xlink:href="#DejaVuSans-32" x="227.050781"/>
       <use xlink:href="#DejaVuSans-30" x="290.673828"/>
       <use xlink:href="#DejaVuSans-32" x="354.296875"/>
       <use xlink:href="#DejaVuSans-32" x="417.919922"/>
      </g>
     </g>
    </g>
    <g id="xtick_2">
     <g id="text_2">
      <!-- Jun 2022 -->
      <g style="fill: #262626" transform="translate(248.660781 658.658281) scale(0.11 -0.11)">
       <defs>
        <path id="DejaVuSans-4a" d="M 628 4666 
L 1259 4666 
L 1259 325 
Q 1259 -519 939 -900 
Q 619 -1281 -91 -1281 
L -331 -1281 
L -331 -750 
L -134 -750 
Q 284 -750 456 -515 
Q 628 -281 628 325 
L 628 4666 
z
" transform="scale(0.015625)"/>
        <path id="DejaVuSans-6e" d="M 3513 2113 
L 3513 0 
L 2938 0 
L 2938 2094 
Q 2938 2591 2744 2837 
Q 2550 3084 2163 3084 
Q 1697 3084 1428 2787 
Q 1159 2491 1159 1978 
L 1159 0 
L 581 0 
L 581 3500 
L 1159 3500 
L 1159 2956 
Q 1366 3272 1645 3428 
Q 1925 3584 2291 3584 
Q 2894 3584 3203 3211 
Q 3513 2838 3513 2113 
z
" transform="scale(0.015625)"/>
       </defs>
       <use xlink:href="#DejaVuSans-4a"/>
       <use xlink:href="#DejaVuSans-75" x="29.492188"/>
       <use xlink:href="#DejaVuSans-6e" x="92.871094"/>
       <use xlink:href="#DejaVuSans-20" x="156.25"/>
       <use xlink:href="#DejaVuSans-32" x="188.037109"/>
       <use xlink:href="#DejaVuSans-30" x="251.660156"/>
       <use xlink:href="#DejaVuSans-32" x="315.283203"/>
       <use xlink:href="#DejaVuSans-32" x="378.90625"/>
      </g>
     </g>
    </g>
    <g id="xtick_3">
     <g id="text_3">
      <!-- Sep 2022 -->
      <g style="fill: #262626" transform="translate(308.887031 658.658281) scale(0.11 -0.11)">
       <defs>
        <path id="DejaVuSans-53" d="M 3425 4513 
L 3425 3897 
Q 3066 4069 2747 4153 
Q 2428 4238 2131 4238 
Q 1616 4238 1336 4038 
Q 1056 3838 1056 3469 
Q 1056 3159 1242 3001 
Q 1428 2844 1947 2747 
L 2328 2669 
Q 3034 2534 3370 2195 
Q 3706 1856 3706 1288 
Q 3706 609 3251 259 
Q 2797 -91 1919 -91 
Q 1588 -91 1214 -16 
Q 841 59 441 206 
L 441 856 
Q 825 641 1194 531 
Q 1563 422 1919 422 
Q 2459 422 2753 634 
Q 3047 847 3047 1241 
Q 3047 1584 2836 1778 
Q 2625 1972 2144 2069 
L 1759 2144 
Q 1053 2284 737 2584 
Q 422 2884 422 3419 
Q 422 4038 858 4394 
Q 1294 4750 2059 4750 
Q 2388 4750 2728 4690 
Q 3069 4631 3425 4513 
z
" transform="scale(0.015625)"/>
        <path id="DejaVuSans-65" d="M 3597 1894 
L 3597 1613 
L 953 1613 
Q 991 1019 1311 708 
Q 1631 397 2203 397 
Q 2534 397 2845 478 
Q 3156 559 3463 722 
L 3463 178 
Q 3153 47 2828 -22 
Q 2503 -91 2169 -91 
Q 1331 -91 842 396 
Q 353 884 353 1716 
Q 353 2575 817 3079 
Q 1281 3584 2069 3584 
Q 2775 3584 3186 3129 
Q 3597 2675 3597 1894 
z
M 3022 2063 
Q 3016 2534 2758 2815 
Q 2500 3097 2075 3097 
Q 1594 3097 1305 2825 
Q 1016 2553 972 2059 
L 3022 2063 
z
" transform="scale(0.015625)"/>
        <path id="DejaVuSans-70" d="M 1159 525 
L 1159 -1331 
L 581 -1331 
L 581 3500 
L 1159 3500 
L 1159 2969 
Q 1341 3281 1617 3432 
Q 1894 3584 2278 3584 
Q 2916 3584 3314 3078 
Q 3713 2572 3713 1747 
Q 3713 922 3314 415 
Q 2916 -91 2278 -91 
Q 1894 -91 1617 61 
Q 1341 213 1159 525 
z
M 3116 1747 
Q 3116 2381 2855 2742 
Q 2594 3103 2138 3103 
Q 1681 3103 1420 2742 
Q 1159 2381 1159 1747 
Q 1159 1113 1420 752 
Q 1681 391 2138 391 
Q 2594 391 2855 752 
Q 3116 1113 3116 1747 
z
" transform="scale(0.015625)"/>
       </defs>
       <use xlink:href="#DejaVuSans-53"/>
       <use xlink:href="#DejaVuSans-65" x="63.476562"/>
       <use xlink:href="#DejaVuSans-70" x="125"/>
       <use xlink:href="#DejaVuSans-20" x="188.476562"/>
       <use xlink:href="#DejaVuSans-32" x="220.263672"/>
       <use xlink:href="#DejaVuSans-30" x="283.886719"/>
       <use xlink:href="#DejaVuSans-32" x="347.509766"/>
       <use xlink:href="#DejaVuSans-32" x="411.132812"/>
      </g>
     </g>
    </g>
    <g id="xtick_4">
     <g id="text_4">
      <!-- Jul 2022 -->
      <g style="fill: #262626" transform="translate(374.618438 658.658281) scale(0.11 -0.11)">
       <defs>
        <path id="DejaVuSans-6c" d="M 603 4863 
L 1178 4863 
L 1178 0 
L 603 0 
L 603 4863 
z
" transform="scale(0.015625)"/>
       </defs>
       <use xlink:href="#DejaVuSans-4a"/>
       <use xlink:href="#DejaVuSans-75" x="29.492188"/>
       <use xlink:href="#DejaVuSans-6c" x="92.871094"/>
       <use xlink:href="#DejaVuSans-20" x="120.654297"/>
       <use xlink:href="#DejaVuSans-32" x="152.441406"/>
       <use xlink:href="#DejaVuSans-30" x="216.064453"/>
       <use xlink:href="#DejaVuSans-32" x="279.6875"/>
       <use xlink:href="#DejaVuSans-32" x="343.310547"/>
      </g>
     </g>
    </g>
    <g id="xtick_5">
     <g id="text_5">
      <!-- Oct 2022 -->
      <g style="fill: #262626" transform="translate(433.744687 658.658281) scale(0.11 -0.11)">
       <defs>
        <path id="DejaVuSans-4f" d="M 2522 4238 
Q 1834 4238 1429 3725 
Q 1025 3213 1025 2328 
Q 1025 1447 1429 934 
Q 1834 422 2522 422 
Q 3209 422 3611 934 
Q 4013 1447 4013 2328 
Q 4013 3213 3611 3725 
Q 3209 4238 2522 4238 
z
M 2522 4750 
Q 3503 4750 4090 4092 
Q 4678 3434 4678 2328 
Q 4678 1225 4090 567 
Q 3503 -91 2522 -91 
Q 1538 -91 948 565 
Q 359 1222 359 2328 
Q 359 3434 948 4092 
Q 1538 4750 2522 4750 
z
" transform="scale(0.015625)"/>
        <path id="DejaVuSans-63" d="M 3122 3366 
L 3122 2828 
Q 2878 2963 2633 3030 
Q 2388 3097 2138 3097 
Q 1578 3097 1268 2742 
Q 959 2388 959 1747 
Q 959 1106 1268 751 
Q 1578 397 2138 397 
Q 2388 397 2633 464 
Q 2878 531 3122 666 
L 3122 134 
Q 2881 22 2623 -34 
Q 2366 -91 2075 -91 
Q 1284 -91 818 406 
Q 353 903 353 1747 
Q 353 2603 823 3093 
Q 1294 3584 2113 3584 
Q 2378 3584 2631 3529 
Q 2884 3475 3122 3366 
z
" transform="scale(0.015625)"/>
        <path id="DejaVuSans-74" d="M 1172 4494 
L 1172 3500 
L 2356 3500 
L 2356 3053 
L 1172 3053 
L 1172 1153 
Q 1172 725 1289 603 
Q 1406 481 1766 481 
L 2356 481 
L 2356 0 
L 1766 0 
Q 1100 0 847 248 
Q 594 497 594 1153 
L 594 3053 
L 172 3053 
L 172 3500 
L 594 3500 
L 594 4494 
L 1172 4494 
z
" transform="scale(0.015625)"/>
       </defs>
       <use xlink:href="#DejaVuSans-4f"/>
       <use xlink:href="#DejaVuSans-63" x="78.710938"/>
       <use xlink:href="#DejaVuSans-74" x="133.691406"/>
       <use xlink:href="#DejaVuSans-20" x="172.900391"/>
       <use xlink:href="#DejaVuSans-32" x="204.6875"/>
       <use xlink:href="#DejaVuSans-30" x="268.310547"/>
       <use xlink:href="#DejaVuSans-32" x="331.933594"/>
       <use xlink:href="#DejaVuSans-32" x="395.556641"/>
      </g>
     </g>
    </g>
    <g id="xtick_6">
     <g id="text_6">
      <!-- Nov 2022 -->
      <g style="fill: #262626" transform="translate(494.519219 658.658281) scale(0.11 -0.11)">
       <defs>
        <path id="DejaVuSans-4e" d="M 628 4666 
L 1478 4666 
L 3547 763 
L 3547 4666 
L 4159 4666 
L 4159 0 
L 3309 0 
L 1241 3903 
L 1241 0 
L 628 0 
L 628 4666 
z
" transform="scale(0.015625)"/>
        <path id="DejaVuSans-6f" d="M 1959 3097 
Q 1497 3097 1228 2736 
Q 959 2375 959 1747 
Q 959 1119 1226 758 
Q 1494 397 1959 397 
Q 2419 397 2687 759 
Q 2956 1122 2956 1747 
Q 2956 2369 2687 2733 
Q 2419 3097 1959 3097 
z
M 1959 3584 
Q 2709 3584 3137 3096 
Q 3566 2609 3566 1747 
Q 3566 888 3137 398 
Q 2709 -91 1959 -91 
Q 1206 -91 779 398 
Q 353 888 353 1747 
Q 353 2609 779 3096 
Q 1206 3584 1959 3584 
z
" transform="scale(0.015625)"/>
        <path id="DejaVuSans-76" d="M 191 3500 
L 800 3500 
L 1894 563 
L 2988 3500 
L 3597 3500 
L 2284 0 
L 1503 0 
L 191 3500 
z
" transform="scale(0.015625)"/>
       </defs>
       <use xlink:href="#DejaVuSans-4e"/>
       <use xlink:href="#DejaVuSans-6f" x="74.804688"/>
       <use xlink:href="#DejaVuSans-76" x="135.986328"/>
       <use xlink:href="#DejaVuSans-20" x="195.166016"/>
       <use xlink:href="#DejaVuSans-32" x="226.953125"/>
       <use xlink:href="#DejaVuSans-30" x="290.576172"/>
       <use xlink:href="#DejaVuSans-32" x="354.199219"/>
       <use xlink:href="#DejaVuSans-32" x="417.822266"/>
      </g>
     </g>
    </g>
    <g id="xtick_7">
     <g id="text_7">
      <!-- Dec 2022 -->
      <g style="fill: #262626" transform="translate(556.611172 658.658281) scale(0.11 -0.11)">
       <defs>
        <path id="DejaVuSans-44" d="M 1259 4147 
L 1259 519 
L 2022 519 
Q 2988 519 3436 956 
Q 3884 1394 3884 2338 
Q 3884 3275 3436 3711 
Q 2988 4147 2022 4147 
L 1259 4147 
z
M 628 4666 
L 1925 4666 
Q 3281 4666 3915 4102 
Q 4550 3538 4550 2338 
Q 4550 1131 3912 565 
Q 3275 0 1925 0 
L 628 0 
L 628 4666 
z
" transform="scale(0.015625)"/>
       </defs>
       <use xlink:href="#DejaVuSans-44"/>
       <use xlink:href="#DejaVuSans-65" x="77.001953"/>
       <use xlink:href="#DejaVuSans-63" x="138.525391"/>
       <use xlink:href="#DejaVuSans-20" x="193.505859"/>
       <use xlink:href="#DejaVuSans-32" x="225.292969"/>
       <use xlink:href="#DejaVuSans-30" x="288.916016"/>
       <use xlink:href="#DejaVuSans-32" x="352.539062"/>
       <use xlink:href="#DejaVuSans-32" x="416.162109"/>
      </g>
     </g>
    </g>
    <g id="xtick_8">
     <g id="text_8">
      <!-- Jan 2023 -->
      <g style="fill: #262626" transform="translate(620.775938 658.658281) scale(0.11 -0.11)">
       <defs>
        <path id="DejaVuSans-61" d="M 2194 1759 
Q 1497 1759 1228 1600 
Q 959 1441 959 1056 
Q 959 750 1161 570 
Q 1363 391 1709 391 
Q 2188 391 2477 730 
Q 2766 1069 2766 1631 
L 2766 1759 
L 2194 1759 
z
M 3341 1997 
L 3341 0 
L 2766 0 
L 2766 531 
Q 2569 213 2275 61 
Q 1981 -91 1556 -91 
Q 1019 -91 701 211 
Q 384 513 384 1019 
Q 384 1609 779 1909 
Q 1175 2209 1959 2209 
L 2766 2209 
L 2766 2266 
Q 2766 2663 2505 2880 
Q 2244 3097 1772 3097 
Q 1472 3097 1187 3025 
Q 903 2953 641 2809 
L 641 3341 
Q 956 3463 1253 3523 
Q 1550 3584 1831 3584 
Q 2591 3584 2966 3190 
Q 3341 2797 3341 1997 
z
" transform="scale(0.015625)"/>
        <path id="DejaVuSans-33" d="M 2597 2516 
Q 3050 2419 3304 2112 
Q 3559 1806 3559 1356 
Q 3559 666 3084 287 
Q 2609 -91 1734 -91 
Q 1441 -91 1130 -33 
Q 819 25 488 141 
L 488 750 
Q 750 597 1062 519 
Q 1375 441 1716 441 
Q 2309 441 2620 675 
Q 2931 909 2931 1356 
Q 2931 1769 2642 2001 
Q 2353 2234 1838 2234 
L 1294 2234 
L 1294 2753 
L 1863 2753 
Q 2328 2753 2575 2939 
Q 2822 3125 2822 3475 
Q 2822 3834 2567 4026 
Q 2313 4219 1838 4219 
Q 1578 4219 1281 4162 
Q 984 4106 628 3988 
L 628 4550 
Q 988 4650 1302 4700 
Q 1616 4750 1894 4750 
Q 2613 4750 3031 4423 
Q 3450 4097 3450 3541 
Q 3450 3153 3228 2886 
Q 3006 2619 2597 2516 
z
" transform="scale(0.015625)"/>
       </defs>
       <use xlink:href="#DejaVuSans-4a"/>
       <use xlink:href="#DejaVuSans-61" x="29.492188"/>
       <use xlink:href="#DejaVuSans-6e" x="90.771484"/>
       <use xlink:href="#DejaVuSans-20" x="154.150391"/>
       <use xlink:href="#DejaVuSans-32" x="185.9375"/>
       <use xlink:href="#DejaVuSans-30" x="249.560547"/>
       <use xlink:href="#DejaVuSans-32" x="313.183594"/>
       <use xlink:href="#DejaVuSans-33" x="376.806641"/>
      </g>
     </g>
    </g>
    <g id="xtick_9">
     <g id="text_9">
      <!-- Feb 2023 -->
      <g style="fill: #262626" transform="translate(681.517812 658.658281) scale(0.11 -0.11)">
       <defs>
        <path id="DejaVuSans-46" d="M 628 4666 
L 3309 4666 
L 3309 4134 
L 1259 4134 
L 1259 2759 
L 3109 2759 
L 3109 2228 
L 1259 2228 
L 1259 0 
L 628 0 
L 628 4666 
z
" transform="scale(0.015625)"/>
        <path id="DejaVuSans-62" d="M 3116 1747 
Q 3116 2381 2855 2742 
Q 2594 3103 2138 3103 
Q 1681 3103 1420 2742 
Q 1159 2381 1159 1747 
Q 1159 1113 1420 752 
Q 1681 391 2138 391 
Q 2594 391 2855 752 
Q 3116 1113 3116 1747 
z
M 1159 2969 
Q 1341 3281 1617 3432 
Q 1894 3584 2278 3584 
Q 2916 3584 3314 3078 
Q 3713 2572 3713 1747 
Q 3713 922 3314 415 
Q 2916 -91 2278 -91 
Q 1894 -91 1617 61 
Q 1341 213 1159 525 
L 1159 0 
L 581 0 
L 581 4863 
L 1159 4863 
L 1159 2969 
z
" transform="scale(0.015625)"/>
       </defs>
       <use xlink:href="#DejaVuSans-46"/>
       <use xlink:href="#DejaVuSans-65" x="52.019531"/>
       <use xlink:href="#DejaVuSans-62" x="113.542969"/>
       <use xlink:href="#DejaVuSans-20" x="177.019531"/>
       <use xlink:href="#DejaVuSans-32" x="208.806641"/>
       <use xlink:href="#DejaVuSans-30" x="272.429688"/>
       <use xlink:href="#DejaVuSans-32" x="336.052734"/>
       <use xlink:href="#DejaVuSans-33" x="399.675781"/>
      </g>
     </g>
    </g>
    <g id="xtick_10">
     <g id="text_10">
      <!-- Mar 2023 -->
      <g style="fill: #262626" transform="translate(742.877578 658.658281) scale(0.11 -0.11)">
       <defs>
        <path id="DejaVuSans-4d" d="M 628 4666 
L 1569 4666 
L 2759 1491 
L 3956 4666 
L 4897 4666 
L 4897 0 
L 4281 0 
L 4281 4097 
L 3078 897 
L 2444 897 
L 1241 4097 
L 1241 0 
L 628 0 
L 628 4666 
z
" transform="scale(0.015625)"/>
        <path id="DejaVuSans-72" d="M 2631 2963 
Q 2534 3019 2420 3045 
Q 2306 3072 2169 3072 
Q 1681 3072 1420 2755 
Q 1159 2438 1159 1844 
L 1159 0 
L 581 0 
L 581 3500 
L 1159 3500 
L 1159 2956 
Q 1341 3275 1631 3429 
Q 1922 3584 2338 3584 
Q 2397 3584 2469 3576 
Q 2541 3569 2628 3553 
L 2631 2963 
z
" transform="scale(0.015625)"/>
       </defs>
       <use xlink:href="#DejaVuSans-4d"/>
       <use xlink:href="#DejaVuSans-61" x="86.279297"/>
       <use xlink:href="#DejaVuSans-72" x="147.558594"/>
       <use xlink:href="#DejaVuSans-20" x="188.671875"/>
       <use xlink:href="#DejaVuSans-32" x="220.458984"/>
       <use xlink:href="#DejaVuSans-30" x="284.082031"/>
       <use xlink:href="#DejaVuSans-32" x="347.705078"/>
       <use xlink:href="#DejaVuSans-33" x="411.328125"/>
      </g>
     </g>
    </g>
    <g id="xtick_11">
     <g id="text_11">
      <!-- Apr 2023 -->
      <g style="fill: #262626" transform="translate(805.739531 658.658281) scale(0.11 -0.11)">
       <use xlink:href="#DejaVuSans-41"/>
       <use xlink:href="#DejaVuSans-70" x="68.408203"/>
       <use xlink:href="#DejaVuSans-72" x="131.884766"/>
       <use xlink:href="#DejaVuSans-20" x="172.998047"/>
       <use xlink:href="#DejaVuSans-32" x="204.785156"/>
       <use xlink:href="#DejaVuSans-30" x="268.408203"/>
       <use xlink:href="#DejaVuSans-32" x="332.03125"/>
       <use xlink:href="#DejaVuSans-33" x="395.654297"/>
      </g>
     </g>
    </g>
    <g id="xtick_12">
     <g id="text_12">
      <!-- May 2023 -->
      <g style="fill: #262626" transform="translate(865.883281 658.658281) scale(0.11 -0.11)">
       <defs>
        <path id="DejaVuSans-79" d="M 2059 -325 
Q 1816 -950 1584 -1140 
Q 1353 -1331 966 -1331 
L 506 -1331 
L 506 -850 
L 844 -850 
Q 1081 -850 1212 -737 
Q 1344 -625 1503 -206 
L 1606 56 
L 191 3500 
L 800 3500 
L 1894 763 
L 2988 3500 
L 3597 3500 
L 2059 -325 
z
" transform="scale(0.015625)"/>
       </defs>
       <use xlink:href="#DejaVuSans-4d"/>
       <use xlink:href="#DejaVuSans-61" x="86.279297"/>
       <use xlink:href="#DejaVuSans-79" x="147.558594"/>
       <use xlink:href="#DejaVuSans-20" x="206.738281"/>
       <use xlink:href="#DejaVuSans-32" x="238.525391"/>
       <use xlink:href="#DejaVuSans-30" x="302.148438"/>
       <use xlink:href="#DejaVuSans-32" x="365.771484"/>
       <use xlink:href="#DejaVuSans-33" x="429.394531"/>
      </g>
     </g>
    </g>
    <g id="xtick_13">
     <g id="text_13">
      <!-- Jun 2023 -->
      <g style="fill: #262626" transform="translate(930.660781 658.658281) scale(0.11 -0.11)">
       <use xlink:href="#DejaVuSans-4a"/>
       <use xlink:href="#DejaVuSans-75" x="29.492188"/>
       <use xlink:href="#DejaVuSans-6e" x="92.871094"/>
       <use xlink:href="#DejaVuSans-20" x="156.25"/>
       <use xlink:href="#DejaVuSans-32" x="188.037109"/>
       <use xlink:href="#DejaVuSans-30" x="251.660156"/>
       <use xlink:href="#DejaVuSans-32" x="315.283203"/>
       <use xlink:href="#DejaVuSans-33" x="378.90625"/>
      </g>
     </g>
    </g>
    <g id="xtick_14">
     <g id="text_14">
      <!-- Jul 2023 -->
      <g style="fill: #262626" transform="translate(994.618438 658.658281) scale(0.11 -0.11)">
       <use xlink:href="#DejaVuSans-4a"/>
       <use xlink:href="#DejaVuSans-75" x="29.492188"/>
       <use xlink:href="#DejaVuSans-6c" x="92.871094"/>
       <use xlink:href="#DejaVuSans-20" x="120.654297"/>
       <use xlink:href="#DejaVuSans-32" x="152.441406"/>
       <use xlink:href="#DejaVuSans-30" x="216.064453"/>
       <use xlink:href="#DejaVuSans-32" x="279.6875"/>
       <use xlink:href="#DejaVuSans-33" x="343.310547"/>
      </g>
     </g>
    </g>
    <g id="xtick_15">
     <g id="text_15">
      <!-- Aug 2023 -->
      <g style="fill: #262626" transform="translate(1052.514922 658.658281) scale(0.11 -0.11)">
       <use xlink:href="#DejaVuSans-41"/>
       <use xlink:href="#DejaVuSans-75" x="68.408203"/>
       <use xlink:href="#DejaVuSans-67" x="131.787109"/>
       <use xlink:href="#DejaVuSans-20" x="195.263672"/>
       <use xlink:href="#DejaVuSans-32" x="227.050781"/>
       <use xlink:href="#DejaVuSans-30" x="290.673828"/>
       <use xlink:href="#DejaVuSans-32" x="354.296875"/>
       <use xlink:href="#DejaVuSans-33" x="417.919922"/>
      </g>
     </g>
    </g>
    <g id="xtick_16">
     <g id="text_16">
      <!-- Sep 2023 -->
      <g style="fill: #262626" transform="translate(1114.887031 658.658281) scale(0.11 -0.11)">
       <use xlink:href="#DejaVuSans-53"/>
       <use xlink:href="#DejaVuSans-65" x="63.476562"/>
       <use xlink:href="#DejaVuSans-70" x="125"/>
       <use xlink:href="#DejaVuSans-20" x="188.476562"/>
       <use xlink:href="#DejaVuSans-32" x="220.263672"/>
       <use xlink:href="#DejaVuSans-30" x="283.886719"/>
       <use xlink:href="#DejaVuSans-32" x="347.509766"/>
       <use xlink:href="#DejaVuSans-33" x="411.132812"/>
      </g>
     </g>
    </g>
    <g id="xtick_17">
     <g id="text_17">
      <!-- Oct 2023 -->
      <g style="fill: #262626" transform="translate(1177.744688 658.658281) scale(0.11 -0.11)">
       <use xlink:href="#DejaVuSans-4f"/>
       <use xlink:href="#DejaVuSans-63" x="78.710938"/>
       <use xlink:href="#DejaVuSans-74" x="133.691406"/>
       <use xlink:href="#DejaVuSans-20" x="172.900391"/>
       <use xlink:href="#DejaVuSans-32" x="204.6875"/>
       <use xlink:href="#DejaVuSans-30" x="268.310547"/>
       <use xlink:href="#DejaVuSans-32" x="331.933594"/>
       <use xlink:href="#DejaVuSans-33" x="395.556641"/>
      </g>
     </g>
    </g>
    <g id="xtick_18">
     <g id="text_18">
      <!-- Nov 2023 -->
      <g style="fill: #262626" transform="translate(1238.519219 658.658281) scale(0.11 -0.11)">
       <use xlink:href="#DejaVuSans-4e"/>
       <use xlink:href="#DejaVuSans-6f" x="74.804688"/>
       <use xlink:href="#DejaVuSans-76" x="135.986328"/>
       <use xlink:href="#DejaVuSans-20" x="195.166016"/>
       <use xlink:href="#DejaVuSans-32" x="226.953125"/>
       <use xlink:href="#DejaVuSans-30" x="290.576172"/>
       <use xlink:href="#DejaVuSans-32" x="354.199219"/>
       <use xlink:href="#DejaVuSans-33" x="417.822266"/>
      </g>
     </g>
    </g>
    <g id="text_19">
     <!-- month_year -->
     <g style="fill: #262626" transform="translate(702.140625 674.064062) scale(0.12 -0.12)">
      <defs>
       <path id="DejaVuSans-6d" d="M 3328 2828 
Q 3544 3216 3844 3400 
Q 4144 3584 4550 3584 
Q 5097 3584 5394 3201 
Q 5691 2819 5691 2113 
L 5691 0 
L 5113 0 
L 5113 2094 
Q 5113 2597 4934 2840 
Q 4756 3084 4391 3084 
Q 3944 3084 3684 2787 
Q 3425 2491 3425 1978 
L 3425 0 
L 2847 0 
L 2847 2094 
Q 2847 2600 2669 2842 
Q 2491 3084 2119 3084 
Q 1678 3084 1418 2786 
Q 1159 2488 1159 1978 
L 1159 0 
L 581 0 
L 581 3500 
L 1159 3500 
L 1159 2956 
Q 1356 3278 1631 3431 
Q 1906 3584 2284 3584 
Q 2666 3584 2933 3390 
Q 3200 3197 3328 2828 
z
" transform="scale(0.015625)"/>
       <path id="DejaVuSans-68" d="M 3513 2113 
L 3513 0 
L 2938 0 
L 2938 2094 
Q 2938 2591 2744 2837 
Q 2550 3084 2163 3084 
Q 1697 3084 1428 2787 
Q 1159 2491 1159 1978 
L 1159 0 
L 581 0 
L 581 4863 
L 1159 4863 
L 1159 2956 
Q 1366 3272 1645 3428 
Q 1925 3584 2291 3584 
Q 2894 3584 3203 3211 
Q 3513 2838 3513 2113 
z
" transform="scale(0.015625)"/>
       <path id="DejaVuSans-5f" d="M 3263 -1063 
L 3263 -1509 
L -63 -1509 
L -63 -1063 
L 3263 -1063 
z
" transform="scale(0.015625)"/>
      </defs>
      <use xlink:href="#DejaVuSans-6d"/>
      <use xlink:href="#DejaVuSans-6f" x="97.412109"/>
      <use xlink:href="#DejaVuSans-6e" x="158.59375"/>
      <use xlink:href="#DejaVuSans-74" x="221.972656"/>
      <use xlink:href="#DejaVuSans-68" x="261.181641"/>
      <use xlink:href="#DejaVuSans-5f" x="324.560547"/>
      <use xlink:href="#DejaVuSans-79" x="374.560547"/>
      <use xlink:href="#DejaVuSans-65" x="433.740234"/>
      <use xlink:href="#DejaVuSans-61" x="495.263672"/>
      <use xlink:href="#DejaVuSans-72" x="556.542969"/>
     </g>
    </g>
   </g>
   <g id="matplotlib.axis_2">
    <g id="ytick_1">
     <g id="line2d_1">
      <path d="M 180 615.600155 
L 1296 615.600155 
" clip-path="url(#pa7220241fd)" style="fill: none; stroke: #ffffff; stroke-linecap: round"/>
     </g>
     <g id="text_20">
      <!-- 0 -->
      <g style="fill: #262626" transform="translate(163.50125 619.779296) scale(0.11 -0.11)">
       <use xlink:href="#DejaVuSans-30"/>
      </g>
     </g>
    </g>
    <g id="ytick_2">
     <g id="line2d_2">
      <path d="M 180 548.53314 
L 1296 548.53314 
" clip-path="url(#pa7220241fd)" style="fill: none; stroke: #ffffff; stroke-linecap: round"/>
     </g>
     <g id="text_21">
      <!-- 10 -->
      <g style="fill: #262626" transform="translate(156.5025 552.712281) scale(0.11 -0.11)">
       <defs>
        <path id="DejaVuSans-31" d="M 794 531 
L 1825 531 
L 1825 4091 
L 703 3866 
L 703 4441 
L 1819 4666 
L 2450 4666 
L 2450 531 
L 3481 531 
L 3481 0 
L 794 0 
L 794 531 
z
" transform="scale(0.015625)"/>
       </defs>
       <use xlink:href="#DejaVuSans-31"/>
       <use xlink:href="#DejaVuSans-30" x="63.623047"/>
      </g>
     </g>
    </g>
    <g id="ytick_3">
     <g id="line2d_3">
      <path d="M 180 481.466126 
L 1296 481.466126 
" clip-path="url(#pa7220241fd)" style="fill: none; stroke: #ffffff; stroke-linecap: round"/>
     </g>
     <g id="text_22">
      <!-- 20 -->
      <g style="fill: #262626" transform="translate(156.5025 485.645266) scale(0.11 -0.11)">
       <use xlink:href="#DejaVuSans-32"/>
       <use xlink:href="#DejaVuSans-30" x="63.623047"/>
      </g>
     </g>
    </g>
    <g id="ytick_4">
     <g id="line2d_4">
      <path d="M 180 414.399111 
L 1296 414.399111 
" clip-path="url(#pa7220241fd)" style="fill: none; stroke: #ffffff; stroke-linecap: round"/>
     </g>
     <g id="text_23">
      <!-- 30 -->
      <g style="fill: #262626" transform="translate(156.5025 418.578251) scale(0.11 -0.11)">
       <use xlink:href="#DejaVuSans-33"/>
       <use xlink:href="#DejaVuSans-30" x="63.623047"/>
      </g>
     </g>
    </g>
    <g id="ytick_5">
     <g id="line2d_5">
      <path d="M 180 347.332096 
L 1296 347.332096 
" clip-path="url(#pa7220241fd)" style="fill: none; stroke: #ffffff; stroke-linecap: round"/>
     </g>
     <g id="text_24">
      <!-- 40 -->
      <g style="fill: #262626" transform="translate(156.5025 351.511237) scale(0.11 -0.11)">
       <defs>
        <path id="DejaVuSans-34" d="M 2419 4116 
L 825 1625 
L 2419 1625 
L 2419 4116 
z
M 2253 4666 
L 3047 4666 
L 3047 1625 
L 3713 1625 
L 3713 1100 
L 3047 1100 
L 3047 0 
L 2419 0 
L 2419 1100 
L 313 1100 
L 313 1709 
L 2253 4666 
z
" transform="scale(0.015625)"/>
       </defs>
       <use xlink:href="#DejaVuSans-34"/>
       <use xlink:href="#DejaVuSans-30" x="63.623047"/>
      </g>
     </g>
    </g>
    <g id="ytick_6">
     <g id="line2d_6">
      <path d="M 180 280.265081 
L 1296 280.265081 
" clip-path="url(#pa7220241fd)" style="fill: none; stroke: #ffffff; stroke-linecap: round"/>
     </g>
     <g id="text_25">
      <!-- 50 -->
      <g style="fill: #262626" transform="translate(156.5025 284.444222) scale(0.11 -0.11)">
       <defs>
        <path id="DejaVuSans-35" d="M 691 4666 
L 3169 4666 
L 3169 4134 
L 1269 4134 
L 1269 2991 
Q 1406 3038 1543 3061 
Q 1681 3084 1819 3084 
Q 2600 3084 3056 2656 
Q 3513 2228 3513 1497 
Q 3513 744 3044 326 
Q 2575 -91 1722 -91 
Q 1428 -91 1123 -41 
Q 819 9 494 109 
L 494 744 
Q 775 591 1075 516 
Q 1375 441 1709 441 
Q 2250 441 2565 725 
Q 2881 1009 2881 1497 
Q 2881 1984 2565 2268 
Q 2250 2553 1709 2553 
Q 1456 2553 1204 2497 
Q 953 2441 691 2322 
L 691 4666 
z
" transform="scale(0.015625)"/>
       </defs>
       <use xlink:href="#DejaVuSans-35"/>
       <use xlink:href="#DejaVuSans-30" x="63.623047"/>
      </g>
     </g>
    </g>
    <g id="ytick_7">
     <g id="line2d_7">
      <path d="M 180 213.198066 
L 1296 213.198066 
" clip-path="url(#pa7220241fd)" style="fill: none; stroke: #ffffff; stroke-linecap: round"/>
     </g>
     <g id="text_26">
      <!-- 60 -->
      <g style="fill: #262626" transform="translate(156.5025 217.377207) scale(0.11 -0.11)">
       <defs>
        <path id="DejaVuSans-36" d="M 2113 2584 
Q 1688 2584 1439 2293 
Q 1191 2003 1191 1497 
Q 1191 994 1439 701 
Q 1688 409 2113 409 
Q 2538 409 2786 701 
Q 3034 994 3034 1497 
Q 3034 2003 2786 2293 
Q 2538 2584 2113 2584 
z
M 3366 4563 
L 3366 3988 
Q 3128 4100 2886 4159 
Q 2644 4219 2406 4219 
Q 1781 4219 1451 3797 
Q 1122 3375 1075 2522 
Q 1259 2794 1537 2939 
Q 1816 3084 2150 3084 
Q 2853 3084 3261 2657 
Q 3669 2231 3669 1497 
Q 3669 778 3244 343 
Q 2819 -91 2113 -91 
Q 1303 -91 875 529 
Q 447 1150 447 2328 
Q 447 3434 972 4092 
Q 1497 4750 2381 4750 
Q 2619 4750 2861 4703 
Q 3103 4656 3366 4563 
z
" transform="scale(0.015625)"/>
       </defs>
       <use xlink:href="#DejaVuSans-36"/>
       <use xlink:href="#DejaVuSans-30" x="63.623047"/>
      </g>
     </g>
    </g>
    <g id="ytick_8">
     <g id="line2d_8">
      <path d="M 180 146.131052 
L 1296 146.131052 
" clip-path="url(#pa7220241fd)" style="fill: none; stroke: #ffffff; stroke-linecap: round"/>
     </g>
     <g id="text_27">
      <!-- 70 -->
      <g style="fill: #262626" transform="translate(156.5025 150.310192) scale(0.11 -0.11)">
       <defs>
        <path id="DejaVuSans-37" d="M 525 4666 
L 3525 4666 
L 3525 4397 
L 1831 0 
L 1172 0 
L 2766 4134 
L 525 4134 
L 525 4666 
z
" transform="scale(0.015625)"/>
       </defs>
       <use xlink:href="#DejaVuSans-37"/>
       <use xlink:href="#DejaVuSans-30" x="63.623047"/>
      </g>
     </g>
    </g>
    <g id="text_28">
     <!-- diff_days -->
     <g style="fill: #262626" transform="translate(149.673125 390.463125) rotate(-90) scale(0.12 -0.12)">
      <defs>
       <path id="DejaVuSans-64" d="M 2906 2969 
L 2906 4863 
L 3481 4863 
L 3481 0 
L 2906 0 
L 2906 525 
Q 2725 213 2448 61 
Q 2172 -91 1784 -91 
Q 1150 -91 751 415 
Q 353 922 353 1747 
Q 353 2572 751 3078 
Q 1150 3584 1784 3584 
Q 2172 3584 2448 3432 
Q 2725 3281 2906 2969 
z
M 947 1747 
Q 947 1113 1208 752 
Q 1469 391 1925 391 
Q 2381 391 2643 752 
Q 2906 1113 2906 1747 
Q 2906 2381 2643 2742 
Q 2381 3103 1925 3103 
Q 1469 3103 1208 2742 
Q 947 2381 947 1747 
z
" transform="scale(0.015625)"/>
       <path id="DejaVuSans-69" d="M 603 3500 
L 1178 3500 
L 1178 0 
L 603 0 
L 603 3500 
z
M 603 4863 
L 1178 4863 
L 1178 4134 
L 603 4134 
L 603 4863 
z
" transform="scale(0.015625)"/>
       <path id="DejaVuSans-66" d="M 2375 4863 
L 2375 4384 
L 1825 4384 
Q 1516 4384 1395 4259 
Q 1275 4134 1275 3809 
L 1275 3500 
L 2222 3500 
L 2222 3053 
L 1275 3053 
L 1275 0 
L 697 0 
L 697 3053 
L 147 3053 
L 147 3500 
L 697 3500 
L 697 3744 
Q 697 4328 969 4595 
Q 1241 4863 1831 4863 
L 2375 4863 
z
" transform="scale(0.015625)"/>
       <path id="DejaVuSans-73" d="M 2834 3397 
L 2834 2853 
Q 2591 2978 2328 3040 
Q 2066 3103 1784 3103 
Q 1356 3103 1142 2972 
Q 928 2841 928 2578 
Q 928 2378 1081 2264 
Q 1234 2150 1697 2047 
L 1894 2003 
Q 2506 1872 2764 1633 
Q 3022 1394 3022 966 
Q 3022 478 2636 193 
Q 2250 -91 1575 -91 
Q 1294 -91 989 -36 
Q 684 19 347 128 
L 347 722 
Q 666 556 975 473 
Q 1284 391 1588 391 
Q 1994 391 2212 530 
Q 2431 669 2431 922 
Q 2431 1156 2273 1281 
Q 2116 1406 1581 1522 
L 1381 1569 
Q 847 1681 609 1914 
Q 372 2147 372 2553 
Q 372 3047 722 3315 
Q 1072 3584 1716 3584 
Q 2034 3584 2315 3537 
Q 2597 3491 2834 3397 
z
" transform="scale(0.015625)"/>
      </defs>
      <use xlink:href="#DejaVuSans-64"/>
      <use xlink:href="#DejaVuSans-69" x="63.476562"/>
      <use xlink:href="#DejaVuSans-66" x="91.259766"/>
      <use xlink:href="#DejaVuSans-66" x="126.464844"/>
      <use xlink:href="#DejaVuSans-5f" x="161.669922"/>
      <use xlink:href="#DejaVuSans-64" x="211.669922"/>
      <use xlink:href="#DejaVuSans-61" x="275.146484"/>
      <use xlink:href="#DejaVuSans-79" x="336.425781"/>
      <use xlink:href="#DejaVuSans-73" x="395.605469"/>
     </g>
    </g>
   </g>
   <g id="patch_3">
    <path d="M 186.2 568.561998 
L 235.8 568.561998 
L 235.8 478.514207 
L 186.2 478.514207 
L 186.2 568.561998 
z
" clip-path="url(#pa7220241fd)" style="fill: #72b6a1; stroke: #595959; stroke-linejoin: miter"/>
   </g>
   <g id="line2d_9">
    <path d="M 211 568.561998 
L 211 615.492724 
" clip-path="url(#pa7220241fd)" style="fill: none; stroke: #595959"/>
   </g>
   <g id="line2d_10">
    <path d="M 211 478.514207 
L 211 367.225073 
" clip-path="url(#pa7220241fd)" style="fill: none; stroke: #595959"/>
   </g>
   <g id="line2d_11">
    <path d="M 198.6 615.492724 
L 223.4 615.492724 
" clip-path="url(#pa7220241fd)" style="fill: none; stroke: #595959; stroke-linecap: round"/>
   </g>
   <g id="line2d_12">
    <path d="M 198.6 367.225073 
L 223.4 367.225073 
" clip-path="url(#pa7220241fd)" style="fill: none; stroke: #595959; stroke-linecap: round"/>
   </g>
   <g id="patch_4">
    <path d="M 248.2 168.129925 
L 297.8 168.129925 
L 297.8 130.443308 
L 248.2 130.443308 
L 248.2 168.129925 
z
" clip-path="url(#pa7220241fd)" style="fill: #e99675; stroke: #595959; stroke-linejoin: miter"/>
   </g>
   <g id="line2d_13">
    <path d="M 273 168.129925 
L 273 186.973234 
" clip-path="url(#pa7220241fd)" style="fill: none; stroke: #595959"/>
   </g>
   <g id="line2d_14">
    <path d="M 273 130.443308 
L 273 111.6 
" clip-path="url(#pa7220241fd)" style="fill: none; stroke: #595959"/>
   </g>
   <g id="line2d_15">
    <path d="M 260.6 186.973234 
L 285.4 186.973234 
" clip-path="url(#pa7220241fd)" style="fill: none; stroke: #595959; stroke-linecap: round"/>
   </g>
   <g id="line2d_16">
    <path d="M 260.6 111.6 
L 285.4 111.6 
" clip-path="url(#pa7220241fd)" style="fill: none; stroke: #595959; stroke-linecap: round"/>
   </g>
   <g id="patch_5">
    <path d="M 310.2 603.020433 
L 359.8 603.020433 
L 359.8 559.463977 
L 310.2 559.463977 
L 310.2 603.020433 
z
" clip-path="url(#pa7220241fd)" style="fill: #95a3c3; stroke: #595959; stroke-linejoin: miter"/>
   </g>
   <g id="line2d_17">
    <path d="M 335 603.020433 
L 335 615.538832 
" clip-path="url(#pa7220241fd)" style="fill: none; stroke: #595959"/>
   </g>
   <g id="line2d_18">
    <path d="M 335 559.463977 
L 335 494.163914 
" clip-path="url(#pa7220241fd)" style="fill: none; stroke: #595959"/>
   </g>
   <g id="line2d_19">
    <path d="M 322.6 615.538832 
L 347.4 615.538832 
" clip-path="url(#pa7220241fd)" style="fill: none; stroke: #595959; stroke-linecap: round"/>
   </g>
   <g id="line2d_20">
    <path d="M 322.6 494.163914 
L 347.4 494.163914 
" clip-path="url(#pa7220241fd)" style="fill: none; stroke: #595959; stroke-linecap: round"/>
   </g>
   <g id="patch_6">
    <path d="M 372.2 352.125447 
L 421.8 352.125447 
L 421.8 241.971019 
L 372.2 241.971019 
L 372.2 352.125447 
z
" clip-path="url(#pa7220241fd)" style="fill: #db96c0; stroke: #595959; stroke-linejoin: miter"/>
   </g>
   <g id="line2d_21">
    <path d="M 397 352.125447 
L 397 352.285663 
" clip-path="url(#pa7220241fd)" style="fill: none; stroke: #595959"/>
   </g>
   <g id="line2d_22">
    <path d="M 397 241.971019 
L 397 204.772928 
" clip-path="url(#pa7220241fd)" style="fill: none; stroke: #595959"/>
   </g>
   <g id="line2d_23">
    <path d="M 384.6 352.285663 
L 409.4 352.285663 
" clip-path="url(#pa7220241fd)" style="fill: none; stroke: #595959; stroke-linecap: round"/>
   </g>
   <g id="line2d_24">
    <path d="M 384.6 204.772928 
L 409.4 204.772928 
" clip-path="url(#pa7220241fd)" style="fill: none; stroke: #595959; stroke-linecap: round"/>
   </g>
   <g id="patch_7">
    <path d="M 434.2 613.520418 
L 483.8 613.520418 
L 483.8 547.022464 
L 434.2 547.022464 
L 434.2 613.520418 
z
" clip-path="url(#pa7220241fd)" style="fill: #a2c865; stroke: #595959; stroke-linejoin: miter"/>
   </g>
   <g id="line2d_25">
    <path d="M 459 613.520418 
L 459 615.581836 
" clip-path="url(#pa7220241fd)" style="fill: none; stroke: #595959"/>
   </g>
   <g id="line2d_26">
    <path d="M 459 547.022464 
L 459 447.828758 
" clip-path="url(#pa7220241fd)" style="fill: none; stroke: #595959"/>
   </g>
   <g id="line2d_27">
    <path d="M 446.6 615.581836 
L 471.4 615.581836 
" clip-path="url(#pa7220241fd)" style="fill: none; stroke: #595959; stroke-linecap: round"/>
   </g>
   <g id="line2d_28">
    <path d="M 446.6 447.828758 
L 471.4 447.828758 
" clip-path="url(#pa7220241fd)" style="fill: none; stroke: #595959; stroke-linecap: round"/>
   </g>
   <g id="patch_8">
    <path d="M 496.2 609.097391 
L 545.8 609.097391 
L 545.8 560.759034 
L 496.2 560.759034 
L 496.2 609.097391 
z
" clip-path="url(#pa7220241fd)" style="fill: #e5c849; stroke: #595959; stroke-linejoin: miter"/>
   </g>
   <g id="line2d_29">
    <path d="M 521 609.097391 
L 521 615.556453 
" clip-path="url(#pa7220241fd)" style="fill: none; stroke: #595959"/>
   </g>
   <g id="line2d_30">
    <path d="M 521 560.759034 
L 521 488.744527 
" clip-path="url(#pa7220241fd)" style="fill: none; stroke: #595959"/>
   </g>
   <g id="line2d_31">
    <path d="M 508.6 615.556453 
L 533.4 615.556453 
" clip-path="url(#pa7220241fd)" style="fill: none; stroke: #595959; stroke-linecap: round"/>
   </g>
   <g id="line2d_32">
    <path d="M 508.6 488.744527 
L 533.4 488.744527 
" clip-path="url(#pa7220241fd)" style="fill: none; stroke: #595959; stroke-linecap: round"/>
   </g>
   <g id="patch_9">
    <path d="M 558.2 609.427331 
L 607.8 609.427331 
L 607.8 555.359965 
L 558.2 555.359965 
L 558.2 609.427331 
z
" clip-path="url(#pa7220241fd)" style="fill: #dbc29e; stroke: #595959; stroke-linejoin: miter"/>
   </g>
   <g id="line2d_33">
    <path d="M 583 609.427331 
L 583 615.571357 
" clip-path="url(#pa7220241fd)" style="fill: none; stroke: #595959"/>
   </g>
   <g id="line2d_34">
    <path d="M 583 555.359965 
L 583 474.89775 
" clip-path="url(#pa7220241fd)" style="fill: none; stroke: #595959"/>
   </g>
   <g id="line2d_35">
    <path d="M 570.6 615.571357 
L 595.4 615.571357 
" clip-path="url(#pa7220241fd)" style="fill: none; stroke: #595959; stroke-linecap: round"/>
   </g>
   <g id="line2d_36">
    <path d="M 570.6 474.89775 
L 595.4 474.89775 
" clip-path="url(#pa7220241fd)" style="fill: none; stroke: #595959; stroke-linecap: round"/>
   </g>
   <g id="patch_10">
    <path d="M 620.2 609.719294 
L 669.8 609.719294 
L 669.8 554.855022 
L 620.2 554.855022 
L 620.2 609.719294 
z
" clip-path="url(#pa7220241fd)" style="fill: #b3b3b3; stroke: #595959; stroke-linejoin: miter"/>
   </g>
   <g id="line2d_37">
    <path d="M 645 609.719294 
L 645 615.552184 
" clip-path="url(#pa7220241fd)" style="fill: none; stroke: #595959"/>
   </g>
   <g id="line2d_38">
    <path d="M 645 554.855022 
L 645 474.012916 
" clip-path="url(#pa7220241fd)" style="fill: none; stroke: #595959"/>
   </g>
   <g id="line2d_39">
    <path d="M 632.6 615.552184 
L 657.4 615.552184 
" clip-path="url(#pa7220241fd)" style="fill: none; stroke: #595959; stroke-linecap: round"/>
   </g>
   <g id="line2d_40">
    <path d="M 632.6 474.012916 
L 657.4 474.012916 
" clip-path="url(#pa7220241fd)" style="fill: none; stroke: #595959; stroke-linecap: round"/>
   </g>
   <g id="patch_11">
    <path d="M 682.2 610.591825 
L 731.8 610.591825 
L 731.8 582.704173 
L 682.2 582.704173 
L 682.2 610.591825 
z
" clip-path="url(#pa7220241fd)" style="fill: #72b6a1; stroke: #595959; stroke-linejoin: miter"/>
   </g>
   <g id="line2d_41">
    <path d="M 707 610.591825 
L 707 615.585407 
" clip-path="url(#pa7220241fd)" style="fill: none; stroke: #595959"/>
   </g>
   <g id="line2d_42">
    <path d="M 707 582.704173 
L 707 555.566017 
" clip-path="url(#pa7220241fd)" style="fill: none; stroke: #595959"/>
   </g>
   <g id="line2d_43">
    <path d="M 694.6 615.585407 
L 719.4 615.585407 
" clip-path="url(#pa7220241fd)" style="fill: none; stroke: #595959; stroke-linecap: round"/>
   </g>
   <g id="line2d_44">
    <path d="M 694.6 555.566017 
L 719.4 555.566017 
" clip-path="url(#pa7220241fd)" style="fill: none; stroke: #595959; stroke-linecap: round"/>
   </g>
   <g id="patch_12">
    <path d="M 744.2 610.341663 
L 793.8 610.341663 
L 793.8 557.198583 
L 744.2 557.198583 
L 744.2 610.341663 
z
" clip-path="url(#pa7220241fd)" style="fill: #e99675; stroke: #595959; stroke-linejoin: miter"/>
   </g>
   <g id="line2d_45">
    <path d="M 769 610.341663 
L 769 615.6 
" clip-path="url(#pa7220241fd)" style="fill: none; stroke: #595959"/>
   </g>
   <g id="line2d_46">
    <path d="M 769 557.198583 
L 769 481.649628 
" clip-path="url(#pa7220241fd)" style="fill: none; stroke: #595959"/>
   </g>
   <g id="line2d_47">
    <path d="M 756.6 615.6 
L 781.4 615.6 
" clip-path="url(#pa7220241fd)" style="fill: none; stroke: #595959; stroke-linecap: round"/>
   </g>
   <g id="line2d_48">
    <path d="M 756.6 481.649628 
L 781.4 481.649628 
" clip-path="url(#pa7220241fd)" style="fill: none; stroke: #595959; stroke-linecap: round"/>
   </g>
   <g id="patch_13">
    <path d="M 806.2 611.14571 
L 855.8 611.14571 
L 855.8 567.765694 
L 806.2 567.765694 
L 806.2 611.14571 
z
" clip-path="url(#pa7220241fd)" style="fill: #95a3c3; stroke: #595959; stroke-linejoin: miter"/>
   </g>
   <g id="line2d_49">
    <path d="M 831 611.14571 
L 831 615.6 
" clip-path="url(#pa7220241fd)" style="fill: none; stroke: #595959"/>
   </g>
   <g id="line2d_50">
    <path d="M 831 567.765694 
L 831 518.295465 
" clip-path="url(#pa7220241fd)" style="fill: none; stroke: #595959"/>
   </g>
   <g id="line2d_51">
    <path d="M 818.6 615.6 
L 843.4 615.6 
" clip-path="url(#pa7220241fd)" style="fill: none; stroke: #595959; stroke-linecap: round"/>
   </g>
   <g id="line2d_52">
    <path d="M 818.6 518.295465 
L 843.4 518.295465 
" clip-path="url(#pa7220241fd)" style="fill: none; stroke: #595959; stroke-linecap: round"/>
   </g>
   <g id="patch_14">
    <path d="M 868.2 610.06668 
L 917.8 610.06668 
L 917.8 540.552049 
L 868.2 540.552049 
L 868.2 610.06668 
z
" clip-path="url(#pa7220241fd)" style="fill: #db96c0; stroke: #595959; stroke-linejoin: miter"/>
   </g>
   <g id="line2d_53">
    <path d="M 893 610.06668 
L 893 615.580516 
" clip-path="url(#pa7220241fd)" style="fill: none; stroke: #595959"/>
   </g>
   <g id="line2d_54">
    <path d="M 893 540.552049 
L 893 459.293103 
" clip-path="url(#pa7220241fd)" style="fill: none; stroke: #595959"/>
   </g>
   <g id="line2d_55">
    <path d="M 880.6 615.580516 
L 905.4 615.580516 
" clip-path="url(#pa7220241fd)" style="fill: none; stroke: #595959; stroke-linecap: round"/>
   </g>
   <g id="line2d_56">
    <path d="M 880.6 459.293103 
L 905.4 459.293103 
" clip-path="url(#pa7220241fd)" style="fill: none; stroke: #595959; stroke-linecap: round"/>
   </g>
   <g id="patch_15">
    <path d="M 930.2 603.603892 
L 979.8 603.603892 
L 979.8 528.826422 
L 930.2 528.826422 
L 930.2 603.603892 
z
" clip-path="url(#pa7220241fd)" style="fill: #a2c865; stroke: #595959; stroke-linejoin: miter"/>
   </g>
   <g id="line2d_57">
    <path d="M 955 603.603892 
L 955 615.53759 
" clip-path="url(#pa7220241fd)" style="fill: none; stroke: #595959"/>
   </g>
   <g id="line2d_58">
    <path d="M 955 528.826422 
L 955 468.359492 
" clip-path="url(#pa7220241fd)" style="fill: none; stroke: #595959"/>
   </g>
   <g id="line2d_59">
    <path d="M 942.6 615.53759 
L 967.4 615.53759 
" clip-path="url(#pa7220241fd)" style="fill: none; stroke: #595959; stroke-linecap: round"/>
   </g>
   <g id="line2d_60">
    <path d="M 942.6 468.359492 
L 967.4 468.359492 
" clip-path="url(#pa7220241fd)" style="fill: none; stroke: #595959; stroke-linecap: round"/>
   </g>
   <g id="patch_16">
    <path d="M 992.2 606.088748 
L 1041.8 606.088748 
L 1041.8 535.350824 
L 992.2 535.350824 
L 992.2 606.088748 
z
" clip-path="url(#pa7220241fd)" style="fill: #e5c849; stroke: #595959; stroke-linejoin: miter"/>
   </g>
   <g id="line2d_61">
    <path d="M 1017 606.088748 
L 1017 615.523308 
" clip-path="url(#pa7220241fd)" style="fill: none; stroke: #595959"/>
   </g>
   <g id="line2d_62">
    <path d="M 1017 535.350824 
L 1017 430.834644 
" clip-path="url(#pa7220241fd)" style="fill: none; stroke: #595959"/>
   </g>
   <g id="line2d_63">
    <path d="M 1004.6 615.523308 
L 1029.4 615.523308 
" clip-path="url(#pa7220241fd)" style="fill: none; stroke: #595959; stroke-linecap: round"/>
   </g>
   <g id="line2d_64">
    <path d="M 1004.6 430.834644 
L 1029.4 430.834644 
" clip-path="url(#pa7220241fd)" style="fill: none; stroke: #595959; stroke-linecap: round"/>
   </g>
   <g id="patch_17">
    <path d="M 1054.2 602.967338 
L 1103.8 602.967338 
L 1103.8 547.812403 
L 1054.2 547.812403 
L 1054.2 602.967338 
z
" clip-path="url(#pa7220241fd)" style="fill: #dbc29e; stroke: #595959; stroke-linejoin: miter"/>
   </g>
   <g id="line2d_65">
    <path d="M 1079 602.967338 
L 1079 615.490395 
" clip-path="url(#pa7220241fd)" style="fill: none; stroke: #595959"/>
   </g>
   <g id="line2d_66">
    <path d="M 1079 547.812403 
L 1079 466.942779 
" clip-path="url(#pa7220241fd)" style="fill: none; stroke: #595959"/>
   </g>
   <g id="line2d_67">
    <path d="M 1066.6 615.490395 
L 1091.4 615.490395 
" clip-path="url(#pa7220241fd)" style="fill: none; stroke: #595959; stroke-linecap: round"/>
   </g>
   <g id="line2d_68">
    <path d="M 1066.6 466.942779 
L 1091.4 466.942779 
" clip-path="url(#pa7220241fd)" style="fill: none; stroke: #595959; stroke-linecap: round"/>
   </g>
   <g id="patch_18">
    <path d="M 1116.2 609.723466 
L 1165.8 609.723466 
L 1165.8 561.817746 
L 1116.2 561.817746 
L 1116.2 609.723466 
z
" clip-path="url(#pa7220241fd)" style="fill: #b3b3b3; stroke: #595959; stroke-linejoin: miter"/>
   </g>
   <g id="line2d_69">
    <path d="M 1141 609.723466 
L 1141 615.562275 
" clip-path="url(#pa7220241fd)" style="fill: none; stroke: #595959"/>
   </g>
   <g id="line2d_70">
    <path d="M 1141 561.817746 
L 1141 494.233776 
" clip-path="url(#pa7220241fd)" style="fill: none; stroke: #595959"/>
   </g>
   <g id="line2d_71">
    <path d="M 1128.6 615.562275 
L 1153.4 615.562275 
" clip-path="url(#pa7220241fd)" style="fill: none; stroke: #595959; stroke-linecap: round"/>
   </g>
   <g id="line2d_72">
    <path d="M 1128.6 494.233776 
L 1153.4 494.233776 
" clip-path="url(#pa7220241fd)" style="fill: none; stroke: #595959; stroke-linecap: round"/>
   </g>
   <g id="patch_19">
    <path d="M 1178.2 610.786079 
L 1227.8 610.786079 
L 1227.8 576.075405 
L 1178.2 576.075405 
L 1178.2 610.786079 
z
" clip-path="url(#pa7220241fd)" style="fill: #72b6a1; stroke: #595959; stroke-linejoin: miter"/>
   </g>
   <g id="line2d_73">
    <path d="M 1203 610.786079 
L 1203 615.586804 
" clip-path="url(#pa7220241fd)" style="fill: none; stroke: #595959"/>
   </g>
   <g id="line2d_74">
    <path d="M 1203 576.075405 
L 1203 528.585904 
" clip-path="url(#pa7220241fd)" style="fill: none; stroke: #595959"/>
   </g>
   <g id="line2d_75">
    <path d="M 1190.6 615.586804 
L 1215.4 615.586804 
" clip-path="url(#pa7220241fd)" style="fill: none; stroke: #595959; stroke-linecap: round"/>
   </g>
   <g id="line2d_76">
    <path d="M 1190.6 528.585904 
L 1215.4 528.585904 
" clip-path="url(#pa7220241fd)" style="fill: none; stroke: #595959; stroke-linecap: round"/>
   </g>
   <g id="patch_20">
    <path d="M 1240.2 614.225029 
L 1289.8 614.225029 
L 1289.8 613.549178 
L 1240.2 613.549178 
L 1240.2 614.225029 
z
" clip-path="url(#pa7220241fd)" style="fill: #e99675; stroke: #595959; stroke-linejoin: miter"/>
   </g>
   <g id="line2d_77">
    <path d="M 1265 614.225029 
L 1265 614.225029 
" clip-path="url(#pa7220241fd)" style="fill: none; stroke: #595959"/>
   </g>
   <g id="line2d_78">
    <path d="M 1265 613.549178 
L 1265 612.846138 
" clip-path="url(#pa7220241fd)" style="fill: none; stroke: #595959"/>
   </g>
   <g id="line2d_79">
    <path d="M 1252.6 614.225029 
L 1277.4 614.225029 
" clip-path="url(#pa7220241fd)" style="fill: none; stroke: #595959; stroke-linecap: round"/>
   </g>
   <g id="line2d_80">
    <path d="M 1252.6 612.846138 
L 1277.4 612.846138 
" clip-path="url(#pa7220241fd)" style="fill: none; stroke: #595959; stroke-linecap: round"/>
   </g>
   <g id="line2d_81">
    <path d="M 186.2 529.011788 
L 235.8 529.011788 
" clip-path="url(#pa7220241fd)" style="fill: none; stroke: #595959"/>
   </g>
   <g id="line2d_82">
    <path d="M 248.2 149.286617 
L 297.8 149.286617 
" clip-path="url(#pa7220241fd)" style="fill: none; stroke: #595959"/>
   </g>
   <g id="line2d_83">
    <path d="M 310.2 582.155993 
L 359.8 582.155993 
" clip-path="url(#pa7220241fd)" style="fill: none; stroke: #595959"/>
   </g>
   <g id="line2d_84">
    <path d="M 372.2 303.221212 
L 421.8 303.221212 
" clip-path="url(#pa7220241fd)" style="fill: none; stroke: #595959"/>
   </g>
   <g id="line2d_85">
    <path d="M 434.2 602.504855 
L 483.8 602.504855 
" clip-path="url(#pa7220241fd)" style="fill: none; stroke: #595959"/>
   </g>
   <g id="line2d_86">
    <path d="M 496.2 593.194028 
L 545.8 593.194028 
" clip-path="url(#pa7220241fd)" style="fill: none; stroke: #595959"/>
   </g>
   <g id="line2d_87">
    <path d="M 558.2 597.995103 
L 607.8 597.995103 
" clip-path="url(#pa7220241fd)" style="fill: none; stroke: #595959"/>
   </g>
   <g id="line2d_88">
    <path d="M 620.2 591.090499 
L 669.8 591.090499 
" clip-path="url(#pa7220241fd)" style="fill: none; stroke: #595959"/>
   </g>
   <g id="line2d_89">
    <path d="M 682.2 603.871889 
L 731.8 603.871889 
" clip-path="url(#pa7220241fd)" style="fill: none; stroke: #595959"/>
   </g>
   <g id="line2d_90">
    <path d="M 744.2 597.183506 
L 793.8 597.183506 
" clip-path="url(#pa7220241fd)" style="fill: none; stroke: #595959"/>
   </g>
   <g id="line2d_91">
    <path d="M 806.2 602.097174 
L 855.8 602.097174 
" clip-path="url(#pa7220241fd)" style="fill: none; stroke: #595959"/>
   </g>
   <g id="line2d_92">
    <path d="M 868.2 583.621143 
L 917.8 583.621143 
" clip-path="url(#pa7220241fd)" style="fill: none; stroke: #595959"/>
   </g>
   <g id="line2d_93">
    <path d="M 930.2 575.590567 
L 979.8 575.590567 
" clip-path="url(#pa7220241fd)" style="fill: none; stroke: #595959"/>
   </g>
   <g id="line2d_94">
    <path d="M 992.2 572.610432 
L 1041.8 572.610432 
" clip-path="url(#pa7220241fd)" style="fill: none; stroke: #595959"/>
   </g>
   <g id="line2d_95">
    <path d="M 1054.2 581.481674 
L 1103.8 581.481674 
" clip-path="url(#pa7220241fd)" style="fill: none; stroke: #595959"/>
   </g>
   <g id="line2d_96">
    <path d="M 1116.2 595.587482 
L 1165.8 595.587482 
" clip-path="url(#pa7220241fd)" style="fill: none; stroke: #595959"/>
   </g>
   <g id="line2d_97">
    <path d="M 1178.2 596.273444 
L 1227.8 596.273444 
" clip-path="url(#pa7220241fd)" style="fill: none; stroke: #595959"/>
   </g>
   <g id="line2d_98">
    <path d="M 1240.2 613.799786 
L 1289.8 613.799786 
" clip-path="url(#pa7220241fd)" style="fill: none; stroke: #595959"/>
   </g>
   <g id="patch_21">
    <path d="M 180 640.8 
L 180 86.4 
" style="fill: none; stroke: #ffffff; stroke-width: 1.25; stroke-linejoin: miter; stroke-linecap: square"/>
   </g>
   <g id="patch_22">
    <path d="M 1296 640.8 
L 1296 86.4 
" style="fill: none; stroke: #ffffff; stroke-width: 1.25; stroke-linejoin: miter; stroke-linecap: square"/>
   </g>
   <g id="patch_23">
    <path d="M 180 640.8 
L 1296 640.8 
" style="fill: none; stroke: #ffffff; stroke-width: 1.25; stroke-linejoin: miter; stroke-linecap: square"/>
   </g>
   <g id="patch_24">
    <path d="M 180 86.4 
L 1296 86.4 
" style="fill: none; stroke: #ffffff; stroke-width: 1.25; stroke-linejoin: miter; stroke-linecap: square"/>
   </g>
  </g>
 </g>
 <defs>
  <clipPath id="pa7220241fd">
   <rect x="180" y="86.4" width="1116" height="554.4"/>
  </clipPath>
 </defs>
</svg>
