<?xml version="1.0" encoding="utf-8" standalone="no"?>
<!DOCTYPE svg PUBLIC "-//W3C//DTD SVG 1.1//EN"
  "http://www.w3.org/Graphics/SVG/1.1/DTD/svg11.dtd">
<svg xmlns:xlink="http://www.w3.org/1999/xlink" width="1440pt" height="720pt" viewBox="0 0 1440 720" xmlns="http://www.w3.org/2000/svg" version="1.1">
 <metadata>
  <rdf:RDF xmlns:dc="http://purl.org/dc/elements/1.1/" xmlns:cc="http://creativecommons.org/ns#" xmlns:rdf="http://www.w3.org/1999/02/22-rdf-syntax-ns#">
   <cc:Work>
    <dc:type rdf:resource="http://purl.org/dc/dcmitype/StillImage"/>
    <dc:date>2025-06-29T23:07:33.552294</dc:date>
    <dc:format>image/svg+xml</dc:format>
    <dc:creator>
     <cc:Agent>
      <dc:title>Matplotlib v3.10.3, https://matplotlib.org/</dc:title>
     </cc:Agent>
    </dc:creator>
   </cc:Work>
  </rdf:RDF>
 </metadata>
 <defs>
  <style type="text/css">*{stroke-linejoin: round; stroke-linecap: butt}</style>
 </defs>
 <g id="figure_1">
  <g id="patch_1">
   <path d="M 0 720 
L 1440 720 
L 1440 0 
L 0 0 
z
" style="fill: #ffffff"/>
  </g>
  <g id="axes_1">
   <g id="patch_2">
    <path d="M 180 640.8 
L 1296 640.8 
L 1296 86.4 
L 180 86.4 
z
" style="fill: #eaeaf2"/>
   </g>
   <g id="matplotlib.axis_1">
    <g id="xtick_1">
     <g id="text_1">
      <!-- Jan 2024 -->
      <g style="fill: #262626" transform="translate(181.139574 658.658281) scale(0.11 -0.11)">
       <defs>
        <path id="DejaVuSans-4a" d="M 628 4666 
L 1259 4666 
L 1259 325 
Q 1259 -519 939 -900 
Q 619 -1281 -91 -1281 
L -331 -1281 
L -331 -750 
L -134 -750 
Q 284 -750 456 -515 
Q 628 -281 628 325 
L 628 4666 
z
" transform="scale(0.015625)"/>
        <path id="DejaVuSans-61" d="M 2194 1759 
Q 1497 1759 1228 1600 
Q 959 1441 959 1056 
Q 959 750 1161 570 
Q 1363 391 1709 391 
Q 2188 391 2477 730 
Q 2766 1069 2766 1631 
L 2766 1759 
L 2194 1759 
z
M 3341 1997 
L 3341 0 
L 2766 0 
L 2766 531 
Q 2569 213 2275 61 
Q 1981 -91 1556 -91 
Q 1019 -91 701 211 
Q 384 513 384 1019 
Q 384 1609 779 1909 
Q 1175 2209 1959 2209 
L 2766 2209 
L 2766 2266 
Q 2766 2663 2505 2880 
Q 2244 3097 1772 3097 
Q 1472 3097 1187 3025 
Q 903 2953 641 2809 
L 641 3341 
Q 956 3463 1253 3523 
Q 1550 3584 1831 3584 
Q 2591 3584 2966 3190 
Q 3341 2797 3341 1997 
z
" transform="scale(0.015625)"/>
        <path id="DejaVuSans-6e" d="M 3513 2113 
L 3513 0 
L 2938 0 
L 2938 2094 
Q 2938 2591 2744 2837 
Q 2550 3084 2163 3084 
Q 1697 3084 1428 2787 
Q 1159 2491 1159 1978 
L 1159 0 
L 581 0 
L 581 3500 
L 1159 3500 
L 1159 2956 
Q 1366 3272 1645 3428 
Q 1925 3584 2291 3584 
Q 2894 3584 3203 3211 
Q 3513 2838 3513 2113 
z
" transform="scale(0.015625)"/>
        <path id="DejaVuSans-20" transform="scale(0.015625)"/>
        <path id="DejaVuSans-32" d="M 1228 531 
L 3431 531 
L 3431 0 
L 469 0 
L 469 531 
Q 828 903 1448 1529 
Q 2069 2156 2228 2338 
Q 2531 2678 2651 2914 
Q 2772 3150 2772 3378 
Q 2772 3750 2511 3984 
Q 2250 4219 1831 4219 
Q 1534 4219 1204 4116 
Q 875 4013 500 3803 
L 500 4441 
Q 881 4594 1212 4672 
Q 1544 4750 1819 4750 
Q 2544 4750 2975 4387 
Q 3406 4025 3406 3419 
Q 3406 3131 3298 2873 
Q 3191 2616 2906 2266 
Q 2828 2175 2409 1742 
Q 1991 1309 1228 531 
z
" transform="scale(0.015625)"/>
        <path id="DejaVuSans-30" d="M 2034 4250 
Q 1547 4250 1301 3770 
Q 1056 3291 1056 2328 
Q 1056 1369 1301 889 
Q 1547 409 2034 409 
Q 2525 409 2770 889 
Q 3016 1369 3016 2328 
Q 3016 3291 2770 3770 
Q 2525 4250 2034 4250 
z
M 2034 4750 
Q 2819 4750 3233 4129 
Q 3647 3509 3647 2328 
Q 3647 1150 3233 529 
Q 2819 -91 2034 -91 
Q 1250 -91 836 529 
Q 422 1150 422 2328 
Q 422 3509 836 4129 
Q 1250 4750 2034 4750 
z
" transform="scale(0.015625)"/>
        <path id="DejaVuSans-34" d="M 2419 4116 
L 825 1625 
L 2419 1625 
L 2419 4116 
z
M 2253 4666 
L 3047 4666 
L 3047 1625 
L 3713 1625 
L 3713 1100 
L 3047 1100 
L 3047 0 
L 2419 0 
L 2419 1100 
L 313 1100 
L 313 1709 
L 2253 4666 
z
" transform="scale(0.015625)"/>
       </defs>
       <use xlink:href="#DejaVuSans-4a"/>
       <use xlink:href="#DejaVuSans-61" transform="translate(29.492188 0)"/>
       <use xlink:href="#DejaVuSans-6e" transform="translate(90.771484 0)"/>
       <use xlink:href="#DejaVuSans-20" transform="translate(154.150391 0)"/>
       <use xlink:href="#DejaVuSans-32" transform="translate(185.9375 0)"/>
       <use xlink:href="#DejaVuSans-30" transform="translate(249.560547 0)"/>
       <use xlink:href="#DejaVuSans-32" transform="translate(313.183594 0)"/>
       <use xlink:href="#DejaVuSans-34" transform="translate(376.806641 0)"/>
      </g>
     </g>
    </g>
    <g id="xtick_2">
     <g id="text_2">
      <!-- Dec 2023 -->
      <g style="fill: #262626" transform="translate(229.702081 658.658281) scale(0.11 -0.11)">
       <defs>
        <path id="DejaVuSans-44" d="M 1259 4147 
L 1259 519 
L 2022 519 
Q 2988 519 3436 956 
Q 3884 1394 3884 2338 
Q 3884 3275 3436 3711 
Q 2988 4147 2022 4147 
L 1259 4147 
z
M 628 4666 
L 1925 4666 
Q 3281 4666 3915 4102 
Q 4550 3538 4550 2338 
Q 4550 1131 3912 565 
Q 3275 0 1925 0 
L 628 0 
L 628 4666 
z
" transform="scale(0.015625)"/>
        <path id="DejaVuSans-65" d="M 3597 1894 
L 3597 1613 
L 953 1613 
Q 991 1019 1311 708 
Q 1631 397 2203 397 
Q 2534 397 2845 478 
Q 3156 559 3463 722 
L 3463 178 
Q 3153 47 2828 -22 
Q 2503 -91 2169 -91 
Q 1331 -91 842 396 
Q 353 884 353 1716 
Q 353 2575 817 3079 
Q 1281 3584 2069 3584 
Q 2775 3584 3186 3129 
Q 3597 2675 3597 1894 
z
M 3022 2063 
Q 3016 2534 2758 2815 
Q 2500 3097 2075 3097 
Q 1594 3097 1305 2825 
Q 1016 2553 972 2059 
L 3022 2063 
z
" transform="scale(0.015625)"/>
        <path id="DejaVuSans-63" d="M 3122 3366 
L 3122 2828 
Q 2878 2963 2633 3030 
Q 2388 3097 2138 3097 
Q 1578 3097 1268 2742 
Q 959 2388 959 1747 
Q 959 1106 1268 751 
Q 1578 397 2138 397 
Q 2388 397 2633 464 
Q 2878 531 3122 666 
L 3122 134 
Q 2881 22 2623 -34 
Q 2366 -91 2075 -91 
Q 1284 -91 818 406 
Q 353 903 353 1747 
Q 353 2603 823 3093 
Q 1294 3584 2113 3584 
Q 2378 3584 2631 3529 
Q 2884 3475 3122 3366 
z
" transform="scale(0.015625)"/>
        <path id="DejaVuSans-33" d="M 2597 2516 
Q 3050 2419 3304 2112 
Q 3559 1806 3559 1356 
Q 3559 666 3084 287 
Q 2609 -91 1734 -91 
Q 1441 -91 1130 -33 
Q 819 25 488 141 
L 488 750 
Q 750 597 1062 519 
Q 1375 441 1716 441 
Q 2309 441 2620 675 
Q 2931 909 2931 1356 
Q 2931 1769 2642 2001 
Q 2353 2234 1838 2234 
L 1294 2234 
L 1294 2753 
L 1863 2753 
Q 2328 2753 2575 2939 
Q 2822 3125 2822 3475 
Q 2822 3834 2567 4026 
Q 2313 4219 1838 4219 
Q 1578 4219 1281 4162 
Q 984 4106 628 3988 
L 628 4550 
Q 988 4650 1302 4700 
Q 1616 4750 1894 4750 
Q 2613 4750 3031 4423 
Q 3450 4097 3450 3541 
Q 3450 3153 3228 2886 
Q 3006 2619 2597 2516 
z
" transform="scale(0.015625)"/>
       </defs>
       <use xlink:href="#DejaVuSans-44"/>
       <use xlink:href="#DejaVuSans-65" transform="translate(77.001953 0)"/>
       <use xlink:href="#DejaVuSans-63" transform="translate(138.525391 0)"/>
       <use xlink:href="#DejaVuSans-20" transform="translate(193.505859 0)"/>
       <use xlink:href="#DejaVuSans-32" transform="translate(225.292969 0)"/>
       <use xlink:href="#DejaVuSans-30" transform="translate(288.916016 0)"/>
       <use xlink:href="#DejaVuSans-32" transform="translate(352.539062 0)"/>
       <use xlink:href="#DejaVuSans-33" transform="translate(416.162109 0)"/>
      </g>
     </g>
    </g>
    <g id="xtick_3">
     <g id="text_3">
      <!-- Feb 2024 -->
      <g style="fill: #262626" transform="translate(281.335994 658.658281) scale(0.11 -0.11)">
       <defs>
        <path id="DejaVuSans-46" d="M 628 4666 
L 3309 4666 
L 3309 4134 
L 1259 4134 
L 1259 2759 
L 3109 2759 
L 3109 2228 
L 1259 2228 
L 1259 0 
L 628 0 
L 628 4666 
z
" transform="scale(0.015625)"/>
        <path id="DejaVuSans-62" d="M 3116 1747 
Q 3116 2381 2855 2742 
Q 2594 3103 2138 3103 
Q 1681 3103 1420 2742 
Q 1159 2381 1159 1747 
Q 1159 1113 1420 752 
Q 1681 391 2138 391 
Q 2594 391 2855 752 
Q 3116 1113 3116 1747 
z
M 1159 2969 
Q 1341 3281 1617 3432 
Q 1894 3584 2278 3584 
Q 2916 3584 3314 3078 
Q 3713 2572 3713 1747 
Q 3713 922 3314 415 
Q 2916 -91 2278 -91 
Q 1894 -91 1617 61 
Q 1341 213 1159 525 
L 1159 0 
L 581 0 
L 581 4863 
L 1159 4863 
L 1159 2969 
z
" transform="scale(0.015625)"/>
       </defs>
       <use xlink:href="#DejaVuSans-46"/>
       <use xlink:href="#DejaVuSans-65" transform="translate(52.019531 0)"/>
       <use xlink:href="#DejaVuSans-62" transform="translate(113.542969 0)"/>
       <use xlink:href="#DejaVuSans-20" transform="translate(177.019531 0)"/>
       <use xlink:href="#DejaVuSans-32" transform="translate(208.806641 0)"/>
       <use xlink:href="#DejaVuSans-30" transform="translate(272.429688 0)"/>
       <use xlink:href="#DejaVuSans-32" transform="translate(336.052734 0)"/>
       <use xlink:href="#DejaVuSans-34" transform="translate(399.675781 0)"/>
      </g>
     </g>
    </g>
    <g id="xtick_4">
     <g id="text_4">
      <!-- Nov 2023 -->
      <g style="fill: #262626" transform="translate(331.064673 658.658281) scale(0.11 -0.11)">
       <defs>
        <path id="DejaVuSans-4e" d="M 628 4666 
L 1478 4666 
L 3547 763 
L 3547 4666 
L 4159 4666 
L 4159 0 
L 3309 0 
L 1241 3903 
L 1241 0 
L 628 0 
L 628 4666 
z
" transform="scale(0.015625)"/>
        <path id="DejaVuSans-6f" d="M 1959 3097 
Q 1497 3097 1228 2736 
Q 959 2375 959 1747 
Q 959 1119 1226 758 
Q 1494 397 1959 397 
Q 2419 397 2687 759 
Q 2956 1122 2956 1747 
Q 2956 2369 2687 2733 
Q 2419 3097 1959 3097 
z
M 1959 3584 
Q 2709 3584 3137 3096 
Q 3566 2609 3566 1747 
Q 3566 888 3137 398 
Q 2709 -91 1959 -91 
Q 1206 -91 779 398 
Q 353 888 353 1747 
Q 353 2609 779 3096 
Q 1206 3584 1959 3584 
z
" transform="scale(0.015625)"/>
        <path id="DejaVuSans-76" d="M 191 3500 
L 800 3500 
L 1894 563 
L 2988 3500 
L 3597 3500 
L 2284 0 
L 1503 0 
L 191 3500 
z
" transform="scale(0.015625)"/>
       </defs>
       <use xlink:href="#DejaVuSans-4e"/>
       <use xlink:href="#DejaVuSans-6f" transform="translate(74.804688 0)"/>
       <use xlink:href="#DejaVuSans-76" transform="translate(135.986328 0)"/>
       <use xlink:href="#DejaVuSans-20" transform="translate(195.166016 0)"/>
       <use xlink:href="#DejaVuSans-32" transform="translate(226.953125 0)"/>
       <use xlink:href="#DejaVuSans-30" transform="translate(290.576172 0)"/>
       <use xlink:href="#DejaVuSans-32" transform="translate(354.199219 0)"/>
       <use xlink:href="#DejaVuSans-33" transform="translate(417.822266 0)"/>
      </g>
     </g>
    </g>
    <g id="xtick_5">
     <g id="text_5">
      <!-- Mar 2024 -->
      <g style="fill: #262626" transform="translate(382.150305 658.658281) scale(0.11 -0.11)">
       <defs>
        <path id="DejaVuSans-4d" d="M 628 4666 
L 1569 4666 
L 2759 1491 
L 3956 4666 
L 4897 4666 
L 4897 0 
L 4281 0 
L 4281 4097 
L 3078 897 
L 2444 897 
L 1241 4097 
L 1241 0 
L 628 0 
L 628 4666 
z
" transform="scale(0.015625)"/>
        <path id="DejaVuSans-72" d="M 2631 2963 
Q 2534 3019 2420 3045 
Q 2306 3072 2169 3072 
Q 1681 3072 1420 2755 
Q 1159 2438 1159 1844 
L 1159 0 
L 581 0 
L 581 3500 
L 1159 3500 
L 1159 2956 
Q 1341 3275 1631 3429 
Q 1922 3584 2338 3584 
Q 2397 3584 2469 3576 
Q 2541 3569 2628 3553 
L 2631 2963 
z
" transform="scale(0.015625)"/>
       </defs>
       <use xlink:href="#DejaVuSans-4d"/>
       <use xlink:href="#DejaVuSans-61" transform="translate(86.279297 0)"/>
       <use xlink:href="#DejaVuSans-72" transform="translate(147.558594 0)"/>
       <use xlink:href="#DejaVuSans-20" transform="translate(188.671875 0)"/>
       <use xlink:href="#DejaVuSans-32" transform="translate(220.458984 0)"/>
       <use xlink:href="#DejaVuSans-30" transform="translate(284.082031 0)"/>
       <use xlink:href="#DejaVuSans-32" transform="translate(347.705078 0)"/>
       <use xlink:href="#DejaVuSans-34" transform="translate(411.328125 0)"/>
      </g>
     </g>
    </g>
    <g id="xtick_6">
     <g id="text_6">
      <!-- Apr 2024 -->
      <g style="fill: #262626" transform="translate(433.739531 658.658281) scale(0.11 -0.11)">
       <defs>
        <path id="DejaVuSans-41" d="M 2188 4044 
L 1331 1722 
L 3047 1722 
L 2188 4044 
z
M 1831 4666 
L 2547 4666 
L 4325 0 
L 3669 0 
L 3244 1197 
L 1141 1197 
L 716 0 
L 50 0 
L 1831 4666 
z
" transform="scale(0.015625)"/>
        <path id="DejaVuSans-70" d="M 1159 525 
L 1159 -1331 
L 581 -1331 
L 581 3500 
L 1159 3500 
L 1159 2969 
Q 1341 3281 1617 3432 
Q 1894 3584 2278 3584 
Q 2916 3584 3314 3078 
Q 3713 2572 3713 1747 
Q 3713 922 3314 415 
Q 2916 -91 2278 -91 
Q 1894 -91 1617 61 
Q 1341 213 1159 525 
z
M 3116 1747 
Q 3116 2381 2855 2742 
Q 2594 3103 2138 3103 
Q 1681 3103 1420 2742 
Q 1159 2381 1159 1747 
Q 1159 1113 1420 752 
Q 1681 391 2138 391 
Q 2594 391 2855 752 
Q 3116 1113 3116 1747 
z
" transform="scale(0.015625)"/>
       </defs>
       <use xlink:href="#DejaVuSans-41"/>
       <use xlink:href="#DejaVuSans-70" transform="translate(68.408203 0)"/>
       <use xlink:href="#DejaVuSans-72" transform="translate(131.884766 0)"/>
       <use xlink:href="#DejaVuSans-20" transform="translate(172.998047 0)"/>
       <use xlink:href="#DejaVuSans-32" transform="translate(204.785156 0)"/>
       <use xlink:href="#DejaVuSans-30" transform="translate(268.408203 0)"/>
       <use xlink:href="#DejaVuSans-32" transform="translate(332.03125 0)"/>
       <use xlink:href="#DejaVuSans-34" transform="translate(395.654297 0)"/>
      </g>
     </g>
    </g>
    <g id="xtick_7">
     <g id="text_7">
      <!-- Jul 2023 -->
      <g style="fill: #262626" transform="translate(487.34571 658.658281) scale(0.11 -0.11)">
       <defs>
        <path id="DejaVuSans-75" d="M 544 1381 
L 544 3500 
L 1119 3500 
L 1119 1403 
Q 1119 906 1312 657 
Q 1506 409 1894 409 
Q 2359 409 2629 706 
Q 2900 1003 2900 1516 
L 2900 3500 
L 3475 3500 
L 3475 0 
L 2900 0 
L 2900 538 
Q 2691 219 2414 64 
Q 2138 -91 1772 -91 
Q 1169 -91 856 284 
Q 544 659 544 1381 
z
M 1991 3584 
L 1991 3584 
z
" transform="scale(0.015625)"/>
        <path id="DejaVuSans-6c" d="M 603 4863 
L 1178 4863 
L 1178 0 
L 603 0 
L 603 4863 
z
" transform="scale(0.015625)"/>
       </defs>
       <use xlink:href="#DejaVuSans-4a"/>
       <use xlink:href="#DejaVuSans-75" transform="translate(29.492188 0)"/>
       <use xlink:href="#DejaVuSans-6c" transform="translate(92.871094 0)"/>
       <use xlink:href="#DejaVuSans-20" transform="translate(120.654297 0)"/>
       <use xlink:href="#DejaVuSans-32" transform="translate(152.441406 0)"/>
       <use xlink:href="#DejaVuSans-30" transform="translate(216.064453 0)"/>
       <use xlink:href="#DejaVuSans-32" transform="translate(279.6875 0)"/>
       <use xlink:href="#DejaVuSans-33" transform="translate(343.310547 0)"/>
      </g>
     </g>
    </g>
    <g id="xtick_8">
     <g id="text_8">
      <!-- Sep 2023 -->
      <g style="fill: #262626" transform="translate(534.341577 658.658281) scale(0.11 -0.11)">
       <defs>
        <path id="DejaVuSans-53" d="M 3425 4513 
L 3425 3897 
Q 3066 4069 2747 4153 
Q 2428 4238 2131 4238 
Q 1616 4238 1336 4038 
Q 1056 3838 1056 3469 
Q 1056 3159 1242 3001 
Q 1428 2844 1947 2747 
L 2328 2669 
Q 3034 2534 3370 2195 
Q 3706 1856 3706 1288 
Q 3706 609 3251 259 
Q 2797 -91 1919 -91 
Q 1588 -91 1214 -16 
Q 841 59 441 206 
L 441 856 
Q 825 641 1194 531 
Q 1563 422 1919 422 
Q 2459 422 2753 634 
Q 3047 847 3047 1241 
Q 3047 1584 2836 1778 
Q 2625 1972 2144 2069 
L 1759 2144 
Q 1053 2284 737 2584 
Q 422 2884 422 3419 
Q 422 4038 858 4394 
Q 1294 4750 2059 4750 
Q 2388 4750 2728 4690 
Q 3069 4631 3425 4513 
z
" transform="scale(0.015625)"/>
       </defs>
       <use xlink:href="#DejaVuSans-53"/>
       <use xlink:href="#DejaVuSans-65" transform="translate(63.476562 0)"/>
       <use xlink:href="#DejaVuSans-70" transform="translate(125 0)"/>
       <use xlink:href="#DejaVuSans-20" transform="translate(188.476562 0)"/>
       <use xlink:href="#DejaVuSans-32" transform="translate(220.263672 0)"/>
       <use xlink:href="#DejaVuSans-30" transform="translate(283.886719 0)"/>
       <use xlink:href="#DejaVuSans-32" transform="translate(347.509766 0)"/>
       <use xlink:href="#DejaVuSans-33" transform="translate(411.132812 0)"/>
      </g>
     </g>
    </g>
    <g id="xtick_9">
     <g id="text_9">
      <!-- May 2024 -->
      <g style="fill: #262626" transform="translate(584.065099 658.658281) scale(0.11 -0.11)">
       <defs>
        <path id="DejaVuSans-79" d="M 2059 -325 
Q 1816 -950 1584 -1140 
Q 1353 -1331 966 -1331 
L 506 -1331 
L 506 -850 
L 844 -850 
Q 1081 -850 1212 -737 
Q 1344 -625 1503 -206 
L 1606 56 
L 191 3500 
L 800 3500 
L 1894 763 
L 2988 3500 
L 3597 3500 
L 2059 -325 
z
" transform="scale(0.015625)"/>
       </defs>
       <use xlink:href="#DejaVuSans-4d"/>
       <use xlink:href="#DejaVuSans-61" transform="translate(86.279297 0)"/>
       <use xlink:href="#DejaVuSans-79" transform="translate(147.558594 0)"/>
       <use xlink:href="#DejaVuSans-20" transform="translate(206.738281 0)"/>
       <use xlink:href="#DejaVuSans-32" transform="translate(238.525391 0)"/>
       <use xlink:href="#DejaVuSans-30" transform="translate(302.148438 0)"/>
       <use xlink:href="#DejaVuSans-32" transform="translate(365.771484 0)"/>
       <use xlink:href="#DejaVuSans-34" transform="translate(429.394531 0)"/>
      </g>
     </g>
    </g>
    <g id="xtick_10">
     <g id="text_10">
      <!-- Jun 2024 -->
      <g style="fill: #262626" transform="translate(637.569872 658.658281) scale(0.11 -0.11)">
       <use xlink:href="#DejaVuSans-4a"/>
       <use xlink:href="#DejaVuSans-75" transform="translate(29.492188 0)"/>
       <use xlink:href="#DejaVuSans-6e" transform="translate(92.871094 0)"/>
       <use xlink:href="#DejaVuSans-20" transform="translate(156.25 0)"/>
       <use xlink:href="#DejaVuSans-32" transform="translate(188.037109 0)"/>
       <use xlink:href="#DejaVuSans-30" transform="translate(251.660156 0)"/>
       <use xlink:href="#DejaVuSans-32" transform="translate(315.283203 0)"/>
       <use xlink:href="#DejaVuSans-34" transform="translate(378.90625 0)"/>
      </g>
     </g>
    </g>
    <g id="xtick_11">
     <g id="text_11">
      <!-- Jul 2024 -->
      <g style="fill: #262626" transform="translate(690.254801 658.658281) scale(0.11 -0.11)">
       <use xlink:href="#DejaVuSans-4a"/>
       <use xlink:href="#DejaVuSans-75" transform="translate(29.492188 0)"/>
       <use xlink:href="#DejaVuSans-6c" transform="translate(92.871094 0)"/>
       <use xlink:href="#DejaVuSans-20" transform="translate(120.654297 0)"/>
       <use xlink:href="#DejaVuSans-32" transform="translate(152.441406 0)"/>
       <use xlink:href="#DejaVuSans-30" transform="translate(216.064453 0)"/>
       <use xlink:href="#DejaVuSans-32" transform="translate(279.6875 0)"/>
       <use xlink:href="#DejaVuSans-34" transform="translate(343.310547 0)"/>
      </g>
     </g>
    </g>
    <g id="xtick_12">
     <g id="text_12">
      <!-- Aug 2024 -->
      <g style="fill: #262626" transform="translate(736.878558 658.658281) scale(0.11 -0.11)">
       <defs>
        <path id="DejaVuSans-67" d="M 2906 1791 
Q 2906 2416 2648 2759 
Q 2391 3103 1925 3103 
Q 1463 3103 1205 2759 
Q 947 2416 947 1791 
Q 947 1169 1205 825 
Q 1463 481 1925 481 
Q 2391 481 2648 825 
Q 2906 1169 2906 1791 
z
M 3481 434 
Q 3481 -459 3084 -895 
Q 2688 -1331 1869 -1331 
Q 1566 -1331 1297 -1286 
Q 1028 -1241 775 -1147 
L 775 -588 
Q 1028 -725 1275 -790 
Q 1522 -856 1778 -856 
Q 2344 -856 2625 -561 
Q 2906 -266 2906 331 
L 2906 616 
Q 2728 306 2450 153 
Q 2172 0 1784 0 
Q 1141 0 747 490 
Q 353 981 353 1791 
Q 353 2603 747 3093 
Q 1141 3584 1784 3584 
Q 2172 3584 2450 3431 
Q 2728 3278 2906 2969 
L 2906 3500 
L 3481 3500 
L 3481 434 
z
" transform="scale(0.015625)"/>
       </defs>
       <use xlink:href="#DejaVuSans-41"/>
       <use xlink:href="#DejaVuSans-75" transform="translate(68.408203 0)"/>
       <use xlink:href="#DejaVuSans-67" transform="translate(131.787109 0)"/>
       <use xlink:href="#DejaVuSans-20" transform="translate(195.263672 0)"/>
       <use xlink:href="#DejaVuSans-32" transform="translate(227.050781 0)"/>
       <use xlink:href="#DejaVuSans-30" transform="translate(290.673828 0)"/>
       <use xlink:href="#DejaVuSans-32" transform="translate(354.296875 0)"/>
       <use xlink:href="#DejaVuSans-34" transform="translate(417.919922 0)"/>
      </g>
     </g>
    </g>
    <g id="xtick_13">
     <g id="text_13">
      <!-- Sep 2024 -->
      <g style="fill: #262626" transform="translate(787.97794 658.658281) scale(0.11 -0.11)">
       <use xlink:href="#DejaVuSans-53"/>
       <use xlink:href="#DejaVuSans-65" transform="translate(63.476562 0)"/>
       <use xlink:href="#DejaVuSans-70" transform="translate(125 0)"/>
       <use xlink:href="#DejaVuSans-20" transform="translate(188.476562 0)"/>
       <use xlink:href="#DejaVuSans-32" transform="translate(220.263672 0)"/>
       <use xlink:href="#DejaVuSans-30" transform="translate(283.886719 0)"/>
       <use xlink:href="#DejaVuSans-32" transform="translate(347.509766 0)"/>
       <use xlink:href="#DejaVuSans-34" transform="translate(411.132812 0)"/>
      </g>
     </g>
    </g>
    <g id="xtick_14">
     <g id="text_14">
      <!-- Oct 2024 -->
      <g style="fill: #262626" transform="translate(839.562869 658.658281) scale(0.11 -0.11)">
       <defs>
        <path id="DejaVuSans-4f" d="M 2522 4238 
Q 1834 4238 1429 3725 
Q 1025 3213 1025 2328 
Q 1025 1447 1429 934 
Q 1834 422 2522 422 
Q 3209 422 3611 934 
Q 4013 1447 4013 2328 
Q 4013 3213 3611 3725 
Q 3209 4238 2522 4238 
z
M 2522 4750 
Q 3503 4750 4090 4092 
Q 4678 3434 4678 2328 
Q 4678 1225 4090 567 
Q 3503 -91 2522 -91 
Q 1538 -91 948 565 
Q 359 1222 359 2328 
Q 359 3434 948 4092 
Q 1538 4750 2522 4750 
z
" transform="scale(0.015625)"/>
        <path id="DejaVuSans-74" d="M 1172 4494 
L 1172 3500 
L 2356 3500 
L 2356 3053 
L 1172 3053 
L 1172 1153 
Q 1172 725 1289 603 
Q 1406 481 1766 481 
L 2356 481 
L 2356 0 
L 1766 0 
Q 1100 0 847 248 
Q 594 497 594 1153 
L 594 3053 
L 172 3053 
L 172 3500 
L 594 3500 
L 594 4494 
L 1172 4494 
z
" transform="scale(0.015625)"/>
       </defs>
       <use xlink:href="#DejaVuSans-4f"/>
       <use xlink:href="#DejaVuSans-63" transform="translate(78.710938 0)"/>
       <use xlink:href="#DejaVuSans-74" transform="translate(133.691406 0)"/>
       <use xlink:href="#DejaVuSans-20" transform="translate(172.900391 0)"/>
       <use xlink:href="#DejaVuSans-32" transform="translate(204.6875 0)"/>
       <use xlink:href="#DejaVuSans-30" transform="translate(268.310547 0)"/>
       <use xlink:href="#DejaVuSans-32" transform="translate(331.933594 0)"/>
       <use xlink:href="#DejaVuSans-34" transform="translate(395.556641 0)"/>
      </g>
     </g>
    </g>
    <g id="xtick_15">
     <g id="text_15">
      <!-- Nov 2024 -->
      <g style="fill: #262626" transform="translate(889.064673 658.658281) scale(0.11 -0.11)">
       <use xlink:href="#DejaVuSans-4e"/>
       <use xlink:href="#DejaVuSans-6f" transform="translate(74.804688 0)"/>
       <use xlink:href="#DejaVuSans-76" transform="translate(135.986328 0)"/>
       <use xlink:href="#DejaVuSans-20" transform="translate(195.166016 0)"/>
       <use xlink:href="#DejaVuSans-32" transform="translate(226.953125 0)"/>
       <use xlink:href="#DejaVuSans-30" transform="translate(290.576172 0)"/>
       <use xlink:href="#DejaVuSans-32" transform="translate(354.199219 0)"/>
       <use xlink:href="#DejaVuSans-34" transform="translate(417.822266 0)"/>
      </g>
     </g>
    </g>
    <g id="xtick_16">
     <g id="text_16">
      <!-- Dec 2024 -->
      <g style="fill: #262626" transform="translate(939.883899 658.658281) scale(0.11 -0.11)">
       <use xlink:href="#DejaVuSans-44"/>
       <use xlink:href="#DejaVuSans-65" transform="translate(77.001953 0)"/>
       <use xlink:href="#DejaVuSans-63" transform="translate(138.525391 0)"/>
       <use xlink:href="#DejaVuSans-20" transform="translate(193.505859 0)"/>
       <use xlink:href="#DejaVuSans-32" transform="translate(225.292969 0)"/>
       <use xlink:href="#DejaVuSans-30" transform="translate(288.916016 0)"/>
       <use xlink:href="#DejaVuSans-32" transform="translate(352.539062 0)"/>
       <use xlink:href="#DejaVuSans-34" transform="translate(416.162109 0)"/>
      </g>
     </g>
    </g>
    <g id="xtick_17">
     <g id="text_17">
      <!-- Jan 2025 -->
      <g style="fill: #262626" transform="translate(992.775938 658.658281) scale(0.11 -0.11)">
       <defs>
        <path id="DejaVuSans-35" d="M 691 4666 
L 3169 4666 
L 3169 4134 
L 1269 4134 
L 1269 2991 
Q 1406 3038 1543 3061 
Q 1681 3084 1819 3084 
Q 2600 3084 3056 2656 
Q 3513 2228 3513 1497 
Q 3513 744 3044 326 
Q 2575 -91 1722 -91 
Q 1428 -91 1123 -41 
Q 819 9 494 109 
L 494 744 
Q 775 591 1075 516 
Q 1375 441 1709 441 
Q 2250 441 2565 725 
Q 2881 1009 2881 1497 
Q 2881 1984 2565 2268 
Q 2250 2553 1709 2553 
Q 1456 2553 1204 2497 
Q 953 2441 691 2322 
L 691 4666 
z
" transform="scale(0.015625)"/>
       </defs>
       <use xlink:href="#DejaVuSans-4a"/>
       <use xlink:href="#DejaVuSans-61" transform="translate(29.492188 0)"/>
       <use xlink:href="#DejaVuSans-6e" transform="translate(90.771484 0)"/>
       <use xlink:href="#DejaVuSans-20" transform="translate(154.150391 0)"/>
       <use xlink:href="#DejaVuSans-32" transform="translate(185.9375 0)"/>
       <use xlink:href="#DejaVuSans-30" transform="translate(249.560547 0)"/>
       <use xlink:href="#DejaVuSans-32" transform="translate(313.183594 0)"/>
       <use xlink:href="#DejaVuSans-35" transform="translate(376.806641 0)"/>
      </g>
     </g>
    </g>
    <g id="xtick_18">
     <g id="text_18">
      <!-- Feb 2025 -->
      <g style="fill: #262626" transform="translate(1042.245085 658.658281) scale(0.11 -0.11)">
       <use xlink:href="#DejaVuSans-46"/>
       <use xlink:href="#DejaVuSans-65" transform="translate(52.019531 0)"/>
       <use xlink:href="#DejaVuSans-62" transform="translate(113.542969 0)"/>
       <use xlink:href="#DejaVuSans-20" transform="translate(177.019531 0)"/>
       <use xlink:href="#DejaVuSans-32" transform="translate(208.806641 0)"/>
       <use xlink:href="#DejaVuSans-30" transform="translate(272.429688 0)"/>
       <use xlink:href="#DejaVuSans-32" transform="translate(336.052734 0)"/>
       <use xlink:href="#DejaVuSans-35" transform="translate(399.675781 0)"/>
      </g>
     </g>
    </g>
    <g id="xtick_19">
     <g id="text_19">
      <!-- Mar 2025 -->
      <g style="fill: #262626" transform="translate(1092.332124 658.658281) scale(0.11 -0.11)">
       <use xlink:href="#DejaVuSans-4d"/>
       <use xlink:href="#DejaVuSans-61" transform="translate(86.279297 0)"/>
       <use xlink:href="#DejaVuSans-72" transform="translate(147.558594 0)"/>
       <use xlink:href="#DejaVuSans-20" transform="translate(188.671875 0)"/>
       <use xlink:href="#DejaVuSans-32" transform="translate(220.458984 0)"/>
       <use xlink:href="#DejaVuSans-30" transform="translate(284.082031 0)"/>
       <use xlink:href="#DejaVuSans-32" transform="translate(347.705078 0)"/>
       <use xlink:href="#DejaVuSans-35" transform="translate(411.328125 0)"/>
      </g>
     </g>
    </g>
    <g id="xtick_20">
     <g id="text_20">
      <!-- Apr 2025 -->
      <g style="fill: #262626" transform="translate(1143.921349 658.658281) scale(0.11 -0.11)">
       <use xlink:href="#DejaVuSans-41"/>
       <use xlink:href="#DejaVuSans-70" transform="translate(68.408203 0)"/>
       <use xlink:href="#DejaVuSans-72" transform="translate(131.884766 0)"/>
       <use xlink:href="#DejaVuSans-20" transform="translate(172.998047 0)"/>
       <use xlink:href="#DejaVuSans-32" transform="translate(204.785156 0)"/>
       <use xlink:href="#DejaVuSans-30" transform="translate(268.408203 0)"/>
       <use xlink:href="#DejaVuSans-32" transform="translate(332.03125 0)"/>
       <use xlink:href="#DejaVuSans-35" transform="translate(395.654297 0)"/>
      </g>
     </g>
    </g>
    <g id="xtick_21">
     <g id="text_21">
      <!-- May 2025 -->
      <g style="fill: #262626" transform="translate(1192.792372 658.658281) scale(0.11 -0.11)">
       <use xlink:href="#DejaVuSans-4d"/>
       <use xlink:href="#DejaVuSans-61" transform="translate(86.279297 0)"/>
       <use xlink:href="#DejaVuSans-79" transform="translate(147.558594 0)"/>
       <use xlink:href="#DejaVuSans-20" transform="translate(206.738281 0)"/>
       <use xlink:href="#DejaVuSans-32" transform="translate(238.525391 0)"/>
       <use xlink:href="#DejaVuSans-30" transform="translate(302.148438 0)"/>
       <use xlink:href="#DejaVuSans-32" transform="translate(365.771484 0)"/>
       <use xlink:href="#DejaVuSans-35" transform="translate(429.394531 0)"/>
      </g>
     </g>
    </g>
    <g id="xtick_22">
     <g id="text_22">
      <!-- Jun 2025 -->
      <g style="fill: #262626" transform="translate(1246.297145 658.658281) scale(0.11 -0.11)">
       <use xlink:href="#DejaVuSans-4a"/>
       <use xlink:href="#DejaVuSans-75" transform="translate(29.492188 0)"/>
       <use xlink:href="#DejaVuSans-6e" transform="translate(92.871094 0)"/>
       <use xlink:href="#DejaVuSans-20" transform="translate(156.25 0)"/>
       <use xlink:href="#DejaVuSans-32" transform="translate(188.037109 0)"/>
       <use xlink:href="#DejaVuSans-30" transform="translate(251.660156 0)"/>
       <use xlink:href="#DejaVuSans-32" transform="translate(315.283203 0)"/>
       <use xlink:href="#DejaVuSans-35" transform="translate(378.90625 0)"/>
      </g>
     </g>
    </g>
    <g id="text_23">
     <!-- month_year -->
     <g style="fill: #262626" transform="translate(702.140625 674.064062) scale(0.12 -0.12)">
      <defs>
       <path id="DejaVuSans-6d" d="M 3328 2828 
Q 3544 3216 3844 3400 
Q 4144 3584 4550 3584 
Q 5097 3584 5394 3201 
Q 5691 2819 5691 2113 
L 5691 0 
L 5113 0 
L 5113 2094 
Q 5113 2597 4934 2840 
Q 4756 3084 4391 3084 
Q 3944 3084 3684 2787 
Q 3425 2491 3425 1978 
L 3425 0 
L 2847 0 
L 2847 2094 
Q 2847 2600 2669 2842 
Q 2491 3084 2119 3084 
Q 1678 3084 1418 2786 
Q 1159 2488 1159 1978 
L 1159 0 
L 581 0 
L 581 3500 
L 1159 3500 
L 1159 2956 
Q 1356 3278 1631 3431 
Q 1906 3584 2284 3584 
Q 2666 3584 2933 3390 
Q 3200 3197 3328 2828 
z
" transform="scale(0.015625)"/>
       <path id="DejaVuSans-68" d="M 3513 2113 
L 3513 0 
L 2938 0 
L 2938 2094 
Q 2938 2591 2744 2837 
Q 2550 3084 2163 3084 
Q 1697 3084 1428 2787 
Q 1159 2491 1159 1978 
L 1159 0 
L 581 0 
L 581 4863 
L 1159 4863 
L 1159 2956 
Q 1366 3272 1645 3428 
Q 1925 3584 2291 3584 
Q 2894 3584 3203 3211 
Q 3513 2838 3513 2113 
z
" transform="scale(0.015625)"/>
       <path id="DejaVuSans-5f" d="M 3263 -1063 
L 3263 -1509 
L -63 -1509 
L -63 -1063 
L 3263 -1063 
z
" transform="scale(0.015625)"/>
      </defs>
      <use xlink:href="#DejaVuSans-6d"/>
      <use xlink:href="#DejaVuSans-6f" transform="translate(97.412109 0)"/>
      <use xlink:href="#DejaVuSans-6e" transform="translate(158.59375 0)"/>
      <use xlink:href="#DejaVuSans-74" transform="translate(221.972656 0)"/>
      <use xlink:href="#DejaVuSans-68" transform="translate(261.181641 0)"/>
      <use xlink:href="#DejaVuSans-5f" transform="translate(324.560547 0)"/>
      <use xlink:href="#DejaVuSans-79" transform="translate(374.560547 0)"/>
      <use xlink:href="#DejaVuSans-65" transform="translate(433.740234 0)"/>
      <use xlink:href="#DejaVuSans-61" transform="translate(495.263672 0)"/>
      <use xlink:href="#DejaVuSans-72" transform="translate(556.542969 0)"/>
     </g>
    </g>
   </g>
   <g id="matplotlib.axis_2">
    <g id="ytick_1">
     <g id="line2d_1">
      <path d="M 180 615.600066 
L 1296 615.600066 
" clip-path="url(#pa5c31d67dc)" style="fill: none; stroke: #ffffff; stroke-linecap: round"/>
     </g>
     <g id="text_24">
      <!-- 0 -->
      <g style="fill: #262626" transform="translate(163.50125 619.779207) scale(0.11 -0.11)">
       <use xlink:href="#DejaVuSans-30"/>
      </g>
     </g>
    </g>
    <g id="ytick_2">
     <g id="line2d_2">
      <path d="M 180 520.460263 
L 1296 520.460263 
" clip-path="url(#pa5c31d67dc)" style="fill: none; stroke: #ffffff; stroke-linecap: round"/>
     </g>
     <g id="text_25">
      <!-- 50 -->
      <g style="fill: #262626" transform="translate(156.5025 524.639404) scale(0.11 -0.11)">
       <use xlink:href="#DejaVuSans-35"/>
       <use xlink:href="#DejaVuSans-30" transform="translate(63.623047 0)"/>
      </g>
     </g>
    </g>
    <g id="ytick_3">
     <g id="line2d_3">
      <path d="M 180 425.32046 
L 1296 425.32046 
" clip-path="url(#pa5c31d67dc)" style="fill: none; stroke: #ffffff; stroke-linecap: round"/>
     </g>
     <g id="text_26">
      <!-- 100 -->
      <g style="fill: #262626" transform="translate(149.50375 429.499601) scale(0.11 -0.11)">
       <defs>
        <path id="DejaVuSans-31" d="M 794 531 
L 1825 531 
L 1825 4091 
L 703 3866 
L 703 4441 
L 1819 4666 
L 2450 4666 
L 2450 531 
L 3481 531 
L 3481 0 
L 794 0 
L 794 531 
z
" transform="scale(0.015625)"/>
       </defs>
       <use xlink:href="#DejaVuSans-31"/>
       <use xlink:href="#DejaVuSans-30" transform="translate(63.623047 0)"/>
       <use xlink:href="#DejaVuSans-30" transform="translate(127.246094 0)"/>
      </g>
     </g>
    </g>
    <g id="ytick_4">
     <g id="line2d_4">
      <path d="M 180 330.180658 
L 1296 330.180658 
" clip-path="url(#pa5c31d67dc)" style="fill: none; stroke: #ffffff; stroke-linecap: round"/>
     </g>
     <g id="text_27">
      <!-- 150 -->
      <g style="fill: #262626" transform="translate(149.50375 334.359798) scale(0.11 -0.11)">
       <use xlink:href="#DejaVuSans-31"/>
       <use xlink:href="#DejaVuSans-35" transform="translate(63.623047 0)"/>
       <use xlink:href="#DejaVuSans-30" transform="translate(127.246094 0)"/>
      </g>
     </g>
    </g>
    <g id="ytick_5">
     <g id="line2d_5">
      <path d="M 180 235.040855 
L 1296 235.040855 
" clip-path="url(#pa5c31d67dc)" style="fill: none; stroke: #ffffff; stroke-linecap: round"/>
     </g>
     <g id="text_28">
      <!-- 200 -->
      <g style="fill: #262626" transform="translate(149.50375 239.219996) scale(0.11 -0.11)">
       <use xlink:href="#DejaVuSans-32"/>
       <use xlink:href="#DejaVuSans-30" transform="translate(63.623047 0)"/>
       <use xlink:href="#DejaVuSans-30" transform="translate(127.246094 0)"/>
      </g>
     </g>
    </g>
    <g id="ytick_6">
     <g id="line2d_6">
      <path d="M 180 139.901052 
L 1296 139.901052 
" clip-path="url(#pa5c31d67dc)" style="fill: none; stroke: #ffffff; stroke-linecap: round"/>
     </g>
     <g id="text_29">
      <!-- 250 -->
      <g style="fill: #262626" transform="translate(149.50375 144.080193) scale(0.11 -0.11)">
       <use xlink:href="#DejaVuSans-32"/>
       <use xlink:href="#DejaVuSans-35" transform="translate(63.623047 0)"/>
       <use xlink:href="#DejaVuSans-30" transform="translate(127.246094 0)"/>
      </g>
     </g>
    </g>
    <g id="text_30">
     <!-- diff_days -->
     <g style="fill: #262626" transform="translate(142.674375 390.463125) rotate(-90) scale(0.12 -0.12)">
      <defs>
       <path id="DejaVuSans-64" d="M 2906 2969 
L 2906 4863 
L 3481 4863 
L 3481 0 
L 2906 0 
L 2906 525 
Q 2725 213 2448 61 
Q 2172 -91 1784 -91 
Q 1150 -91 751 415 
Q 353 922 353 1747 
Q 353 2572 751 3078 
Q 1150 3584 1784 3584 
Q 2172 3584 2448 3432 
Q 2725 3281 2906 2969 
z
M 947 1747 
Q 947 1113 1208 752 
Q 1469 391 1925 391 
Q 2381 391 2643 752 
Q 2906 1113 2906 1747 
Q 2906 2381 2643 2742 
Q 2381 3103 1925 3103 
Q 1469 3103 1208 2742 
Q 947 2381 947 1747 
z
" transform="scale(0.015625)"/>
       <path id="DejaVuSans-69" d="M 603 3500 
L 1178 3500 
L 1178 0 
L 603 0 
L 603 3500 
z
M 603 4863 
L 1178 4863 
L 1178 4134 
L 603 4134 
L 603 4863 
z
" transform="scale(0.015625)"/>
       <path id="DejaVuSans-66" d="M 2375 4863 
L 2375 4384 
L 1825 4384 
Q 1516 4384 1395 4259 
Q 1275 4134 1275 3809 
L 1275 3500 
L 2222 3500 
L 2222 3053 
L 1275 3053 
L 1275 0 
L 697 0 
L 697 3053 
L 147 3053 
L 147 3500 
L 697 3500 
L 697 3744 
Q 697 4328 969 4595 
Q 1241 4863 1831 4863 
L 2375 4863 
z
" transform="scale(0.015625)"/>
       <path id="DejaVuSans-73" d="M 2834 3397 
L 2834 2853 
Q 2591 2978 2328 3040 
Q 2066 3103 1784 3103 
Q 1356 3103 1142 2972 
Q 928 2841 928 2578 
Q 928 2378 1081 2264 
Q 1234 2150 1697 2047 
L 1894 2003 
Q 2506 1872 2764 1633 
Q 3022 1394 3022 966 
Q 3022 478 2636 193 
Q 2250 -91 1575 -91 
Q 1294 -91 989 -36 
Q 684 19 347 128 
L 347 722 
Q 666 556 975 473 
Q 1284 391 1588 391 
Q 1994 391 2212 530 
Q 2431 669 2431 922 
Q 2431 1156 2273 1281 
Q 2116 1406 1581 1522 
L 1381 1569 
Q 847 1681 609 1914 
Q 372 2147 372 2553 
Q 372 3047 722 3315 
Q 1072 3584 1716 3584 
Q 2034 3584 2315 3537 
Q 2597 3491 2834 3397 
z
" transform="scale(0.015625)"/>
      </defs>
      <use xlink:href="#DejaVuSans-64"/>
      <use xlink:href="#DejaVuSans-69" transform="translate(63.476562 0)"/>
      <use xlink:href="#DejaVuSans-66" transform="translate(91.259766 0)"/>
      <use xlink:href="#DejaVuSans-66" transform="translate(126.464844 0)"/>
      <use xlink:href="#DejaVuSans-5f" transform="translate(161.669922 0)"/>
      <use xlink:href="#DejaVuSans-64" transform="translate(211.669922 0)"/>
      <use xlink:href="#DejaVuSans-61" transform="translate(275.146484 0)"/>
      <use xlink:href="#DejaVuSans-79" transform="translate(336.425781 0)"/>
      <use xlink:href="#DejaVuSans-73" transform="translate(395.605469 0)"/>
     </g>
    </g>
   </g>
   <g id="patch_3">
    <path d="M 185.072727 609.949775 
L 225.654545 609.949775 
L 225.654545 592.796558 
L 185.072727 592.796558 
L 185.072727 609.949775 
z
" clip-path="url(#pa5c31d67dc)" style="fill: #72b6a1; stroke: #595959; stroke-linejoin: miter"/>
   </g>
   <g id="line2d_7">
    <path d="M 205.363636 609.949775 
L 205.363636 615.57366 
" clip-path="url(#pa5c31d67dc)" style="fill: none; stroke: #595959"/>
   </g>
   <g id="line2d_8">
    <path d="M 205.363636 592.796558 
L 205.363636 567.537904 
" clip-path="url(#pa5c31d67dc)" style="fill: none; stroke: #595959"/>
   </g>
   <g id="line2d_9">
    <path d="M 195.218182 615.57366 
L 215.509091 615.57366 
" clip-path="url(#pa5c31d67dc)" style="fill: none; stroke: #595959; stroke-linecap: round"/>
   </g>
   <g id="line2d_10">
    <path d="M 195.218182 567.537904 
L 215.509091 567.537904 
" clip-path="url(#pa5c31d67dc)" style="fill: none; stroke: #595959; stroke-linecap: round"/>
   </g>
   <g id="patch_4">
    <path d="M 235.8 492.936996 
L 276.381818 492.936996 
L 276.381818 483.354265 
L 235.8 483.354265 
L 235.8 492.936996 
z
" clip-path="url(#pa5c31d67dc)" style="fill: #e99675; stroke: #595959; stroke-linejoin: miter"/>
   </g>
   <g id="line2d_11">
    <path d="M 256.090909 492.936996 
L 256.090909 497.543485 
" clip-path="url(#pa5c31d67dc)" style="fill: none; stroke: #595959"/>
   </g>
   <g id="line2d_12">
    <path d="M 256.090909 483.354265 
L 256.090909 472.578889 
" clip-path="url(#pa5c31d67dc)" style="fill: none; stroke: #595959"/>
   </g>
   <g id="line2d_13">
    <path d="M 245.945455 497.543485 
L 266.236364 497.543485 
" clip-path="url(#pa5c31d67dc)" style="fill: none; stroke: #595959; stroke-linecap: round"/>
   </g>
   <g id="line2d_14">
    <path d="M 245.945455 472.578889 
L 266.236364 472.578889 
" clip-path="url(#pa5c31d67dc)" style="fill: none; stroke: #595959; stroke-linecap: round"/>
   </g>
   <g id="patch_5">
    <path d="M 286.527273 613.649739 
L 327.109091 613.649739 
L 327.109091 600.352773 
L 286.527273 600.352773 
L 286.527273 613.649739 
z
" clip-path="url(#pa5c31d67dc)" style="fill: #95a3c3; stroke: #595959; stroke-linejoin: miter"/>
   </g>
   <g id="line2d_15">
    <path d="M 306.818182 613.649739 
L 306.818182 615.586037 
" clip-path="url(#pa5c31d67dc)" style="fill: none; stroke: #595959"/>
   </g>
   <g id="line2d_16">
    <path d="M 306.818182 600.352773 
L 306.818182 580.603506 
" clip-path="url(#pa5c31d67dc)" style="fill: none; stroke: #595959"/>
   </g>
   <g id="line2d_17">
    <path d="M 296.672727 615.586037 
L 316.963636 615.586037 
" clip-path="url(#pa5c31d67dc)" style="fill: none; stroke: #595959; stroke-linecap: round"/>
   </g>
   <g id="line2d_18">
    <path d="M 296.672727 580.603506 
L 316.963636 580.603506 
" clip-path="url(#pa5c31d67dc)" style="fill: none; stroke: #595959; stroke-linecap: round"/>
   </g>
   <g id="patch_6">
    <path d="M 337.254545 480.485579 
L 377.836364 480.485579 
L 377.836364 457.599524 
L 337.254545 457.599524 
L 337.254545 480.485579 
z
" clip-path="url(#pa5c31d67dc)" style="fill: #db96c0; stroke: #595959; stroke-linejoin: miter"/>
   </g>
   <g id="line2d_19">
    <path d="M 357.545455 480.485579 
L 357.545455 486.426598 
" clip-path="url(#pa5c31d67dc)" style="fill: none; stroke: #595959"/>
   </g>
   <g id="line2d_20">
    <path d="M 357.545455 457.599524 
L 357.545455 453.904928 
" clip-path="url(#pa5c31d67dc)" style="fill: none; stroke: #595959"/>
   </g>
   <g id="line2d_21">
    <path d="M 347.4 486.426598 
L 367.690909 486.426598 
" clip-path="url(#pa5c31d67dc)" style="fill: none; stroke: #595959; stroke-linecap: round"/>
   </g>
   <g id="line2d_22">
    <path d="M 347.4 453.904928 
L 367.690909 453.904928 
" clip-path="url(#pa5c31d67dc)" style="fill: none; stroke: #595959; stroke-linecap: round"/>
   </g>
   <g id="patch_7">
    <path d="M 387.981818 613.515601 
L 428.563636 613.515601 
L 428.563636 601.883924 
L 387.981818 601.883924 
L 387.981818 613.515601 
z
" clip-path="url(#pa5c31d67dc)" style="fill: #a2c865; stroke: #595959; stroke-linejoin: miter"/>
   </g>
   <g id="line2d_23">
    <path d="M 408.272727 613.515601 
L 408.272727 615.593283 
" clip-path="url(#pa5c31d67dc)" style="fill: none; stroke: #595959"/>
   </g>
   <g id="line2d_24">
    <path d="M 408.272727 601.883924 
L 408.272727 586.996152 
" clip-path="url(#pa5c31d67dc)" style="fill: none; stroke: #595959"/>
   </g>
   <g id="line2d_25">
    <path d="M 398.127273 615.593283 
L 418.418182 615.593283 
" clip-path="url(#pa5c31d67dc)" style="fill: none; stroke: #595959; stroke-linecap: round"/>
   </g>
   <g id="line2d_26">
    <path d="M 398.127273 586.996152 
L 418.418182 586.996152 
" clip-path="url(#pa5c31d67dc)" style="fill: none; stroke: #595959; stroke-linecap: round"/>
   </g>
   <g id="patch_8">
    <path d="M 438.709091 613.657342 
L 479.290909 613.657342 
L 479.290909 603.453598 
L 438.709091 603.453598 
L 438.709091 613.657342 
z
" clip-path="url(#pa5c31d67dc)" style="fill: #e5c849; stroke: #595959; stroke-linejoin: miter"/>
   </g>
   <g id="line2d_27">
    <path d="M 459 613.657342 
L 459 615.6 
" clip-path="url(#pa5c31d67dc)" style="fill: none; stroke: #595959"/>
   </g>
   <g id="line2d_28">
    <path d="M 459 603.453598 
L 459 591.336113 
" clip-path="url(#pa5c31d67dc)" style="fill: none; stroke: #595959"/>
   </g>
   <g id="line2d_29">
    <path d="M 448.854545 615.6 
L 469.145455 615.6 
" clip-path="url(#pa5c31d67dc)" style="fill: none; stroke: #595959; stroke-linecap: round"/>
   </g>
   <g id="line2d_30">
    <path d="M 448.854545 591.336113 
L 469.145455 591.336113 
" clip-path="url(#pa5c31d67dc)" style="fill: none; stroke: #595959; stroke-linecap: round"/>
   </g>
   <g id="patch_9">
    <path d="M 489.436364 125.606478 
L 530.018182 125.606478 
L 530.018182 116.268826 
L 489.436364 116.268826 
L 489.436364 125.606478 
z
" clip-path="url(#pa5c31d67dc)" style="fill: #dbc29e; stroke: #595959; stroke-linejoin: miter"/>
   </g>
   <g id="line2d_31">
    <path d="M 509.727273 125.606478 
L 509.727273 130.275305 
" clip-path="url(#pa5c31d67dc)" style="fill: none; stroke: #595959"/>
   </g>
   <g id="line2d_32">
    <path d="M 509.727273 116.268826 
L 509.727273 111.6 
" clip-path="url(#pa5c31d67dc)" style="fill: none; stroke: #595959"/>
   </g>
   <g id="line2d_33">
    <path d="M 499.581818 130.275305 
L 519.872727 130.275305 
" clip-path="url(#pa5c31d67dc)" style="fill: none; stroke: #595959; stroke-linecap: round"/>
   </g>
   <g id="line2d_34">
    <path d="M 499.581818 111.6 
L 519.872727 111.6 
" clip-path="url(#pa5c31d67dc)" style="fill: none; stroke: #595959; stroke-linecap: round"/>
   </g>
   <g id="patch_10">
    <path d="M 540.163636 202.22434 
L 580.745455 202.22434 
L 580.745455 197.681194 
L 540.163636 197.681194 
L 540.163636 202.22434 
z
" clip-path="url(#pa5c31d67dc)" style="fill: #b3b3b3; stroke: #595959; stroke-linejoin: miter"/>
   </g>
   <g id="line2d_35">
    <path d="M 560.454545 202.22434 
L 560.454545 204.495913 
" clip-path="url(#pa5c31d67dc)" style="fill: none; stroke: #595959"/>
   </g>
   <g id="line2d_36">
    <path d="M 560.454545 197.681194 
L 560.454545 195.409621 
" clip-path="url(#pa5c31d67dc)" style="fill: none; stroke: #595959"/>
   </g>
   <g id="line2d_37">
    <path d="M 550.309091 204.495913 
L 570.6 204.495913 
" clip-path="url(#pa5c31d67dc)" style="fill: none; stroke: #595959; stroke-linecap: round"/>
   </g>
   <g id="line2d_38">
    <path d="M 550.309091 195.409621 
L 570.6 195.409621 
" clip-path="url(#pa5c31d67dc)" style="fill: none; stroke: #595959; stroke-linecap: round"/>
   </g>
   <g id="patch_11">
    <path d="M 590.890909 614.009459 
L 631.472727 614.009459 
L 631.472727 602.346684 
L 590.890909 602.346684 
L 590.890909 614.009459 
z
" clip-path="url(#pa5c31d67dc)" style="fill: #72b6a1; stroke: #595959; stroke-linejoin: miter"/>
   </g>
   <g id="line2d_39">
    <path d="M 611.181818 614.009459 
L 611.181818 615.595045 
" clip-path="url(#pa5c31d67dc)" style="fill: none; stroke: #595959"/>
   </g>
   <g id="line2d_40">
    <path d="M 611.181818 602.346684 
L 611.181818 588.602055 
" clip-path="url(#pa5c31d67dc)" style="fill: none; stroke: #595959"/>
   </g>
   <g id="line2d_41">
    <path d="M 601.036364 615.595045 
L 621.327273 615.595045 
" clip-path="url(#pa5c31d67dc)" style="fill: none; stroke: #595959; stroke-linecap: round"/>
   </g>
   <g id="line2d_42">
    <path d="M 601.036364 588.602055 
L 621.327273 588.602055 
" clip-path="url(#pa5c31d67dc)" style="fill: none; stroke: #595959; stroke-linecap: round"/>
   </g>
   <g id="patch_12">
    <path d="M 641.618182 611.930929 
L 682.2 611.930929 
L 682.2 601.507042 
L 641.618182 601.507042 
L 641.618182 611.930929 
z
" clip-path="url(#pa5c31d67dc)" style="fill: #e99675; stroke: #595959; stroke-linejoin: miter"/>
   </g>
   <g id="line2d_43">
    <path d="M 661.909091 611.930929 
L 661.909091 615.592931 
" clip-path="url(#pa5c31d67dc)" style="fill: none; stroke: #595959"/>
   </g>
   <g id="line2d_44">
    <path d="M 661.909091 601.507042 
L 661.909091 587.081844 
" clip-path="url(#pa5c31d67dc)" style="fill: none; stroke: #595959"/>
   </g>
   <g id="line2d_45">
    <path d="M 651.763636 615.592931 
L 672.054545 615.592931 
" clip-path="url(#pa5c31d67dc)" style="fill: none; stroke: #595959; stroke-linecap: round"/>
   </g>
   <g id="line2d_46">
    <path d="M 651.763636 587.081844 
L 672.054545 587.081844 
" clip-path="url(#pa5c31d67dc)" style="fill: none; stroke: #595959; stroke-linecap: round"/>
   </g>
   <g id="patch_13">
    <path d="M 692.345455 614.07778 
L 732.927273 614.07778 
L 732.927273 606.020099 
L 692.345455 606.020099 
L 692.345455 614.07778 
z
" clip-path="url(#pa5c31d67dc)" style="fill: #95a3c3; stroke: #595959; stroke-linejoin: miter"/>
   </g>
   <g id="line2d_47">
    <path d="M 712.636364 614.07778 
L 712.636364 615.596719 
" clip-path="url(#pa5c31d67dc)" style="fill: none; stroke: #595959"/>
   </g>
   <g id="line2d_48">
    <path d="M 712.636364 606.020099 
L 712.636364 594.534594 
" clip-path="url(#pa5c31d67dc)" style="fill: none; stroke: #595959"/>
   </g>
   <g id="line2d_49">
    <path d="M 702.490909 615.596719 
L 722.781818 615.596719 
" clip-path="url(#pa5c31d67dc)" style="fill: none; stroke: #595959; stroke-linecap: round"/>
   </g>
   <g id="line2d_50">
    <path d="M 702.490909 594.534594 
L 722.781818 594.534594 
" clip-path="url(#pa5c31d67dc)" style="fill: none; stroke: #595959; stroke-linecap: round"/>
   </g>
   <g id="patch_14">
    <path d="M 743.072727 614.265631 
L 783.654545 614.265631 
L 783.654545 601.980308 
L 743.072727 601.980308 
L 743.072727 614.265631 
z
" clip-path="url(#pa5c31d67dc)" style="fill: #db96c0; stroke: #595959; stroke-linejoin: miter"/>
   </g>
   <g id="line2d_51">
    <path d="M 763.363636 614.265631 
L 763.363636 615.588966 
" clip-path="url(#pa5c31d67dc)" style="fill: none; stroke: #595959"/>
   </g>
   <g id="line2d_52">
    <path d="M 763.363636 601.980308 
L 763.363636 583.673879 
" clip-path="url(#pa5c31d67dc)" style="fill: none; stroke: #595959"/>
   </g>
   <g id="line2d_53">
    <path d="M 753.218182 615.588966 
L 773.509091 615.588966 
" clip-path="url(#pa5c31d67dc)" style="fill: none; stroke: #595959; stroke-linecap: round"/>
   </g>
   <g id="line2d_54">
    <path d="M 753.218182 583.673879 
L 773.509091 583.673879 
" clip-path="url(#pa5c31d67dc)" style="fill: none; stroke: #595959; stroke-linecap: round"/>
   </g>
   <g id="patch_15">
    <path d="M 793.8 614.874383 
L 834.381818 614.874383 
L 834.381818 609.871747 
L 793.8 609.871747 
L 793.8 614.874383 
z
" clip-path="url(#pa5c31d67dc)" style="fill: #a2c865; stroke: #595959; stroke-linejoin: miter"/>
   </g>
   <g id="line2d_55">
    <path d="M 814.090909 614.874383 
L 814.090909 615.593393 
" clip-path="url(#pa5c31d67dc)" style="fill: none; stroke: #595959"/>
   </g>
   <g id="line2d_56">
    <path d="M 814.090909 609.871747 
L 814.090909 603.635003 
" clip-path="url(#pa5c31d67dc)" style="fill: none; stroke: #595959"/>
   </g>
   <g id="line2d_57">
    <path d="M 803.945455 615.593393 
L 824.236364 615.593393 
" clip-path="url(#pa5c31d67dc)" style="fill: none; stroke: #595959; stroke-linecap: round"/>
   </g>
   <g id="line2d_58">
    <path d="M 803.945455 603.635003 
L 824.236364 603.635003 
" clip-path="url(#pa5c31d67dc)" style="fill: none; stroke: #595959; stroke-linecap: round"/>
   </g>
   <g id="patch_16">
    <path d="M 844.527273 614.976157 
L 885.109091 614.976157 
L 885.109091 606.350892 
L 844.527273 606.350892 
L 844.527273 614.976157 
z
" clip-path="url(#pa5c31d67dc)" style="fill: #e5c849; stroke: #595959; stroke-linejoin: miter"/>
   </g>
   <g id="line2d_59">
    <path d="M 864.818182 614.976157 
L 864.818182 615.596476 
" clip-path="url(#pa5c31d67dc)" style="fill: none; stroke: #595959"/>
   </g>
   <g id="line2d_60">
    <path d="M 864.818182 606.350892 
L 864.818182 595.429349 
" clip-path="url(#pa5c31d67dc)" style="fill: none; stroke: #595959"/>
   </g>
   <g id="line2d_61">
    <path d="M 854.672727 615.596476 
L 874.963636 615.596476 
" clip-path="url(#pa5c31d67dc)" style="fill: none; stroke: #595959; stroke-linecap: round"/>
   </g>
   <g id="line2d_62">
    <path d="M 854.672727 595.429349 
L 874.963636 595.429349 
" clip-path="url(#pa5c31d67dc)" style="fill: none; stroke: #595959; stroke-linecap: round"/>
   </g>
   <g id="patch_17">
    <path d="M 895.254545 612.821433 
L 935.836364 612.821433 
L 935.836364 600.298084 
L 895.254545 600.298084 
L 895.254545 612.821433 
z
" clip-path="url(#pa5c31d67dc)" style="fill: #dbc29e; stroke: #595959; stroke-linejoin: miter"/>
   </g>
   <g id="line2d_63">
    <path d="M 915.545455 612.821433 
L 915.545455 615.59956 
" clip-path="url(#pa5c31d67dc)" style="fill: none; stroke: #595959"/>
   </g>
   <g id="line2d_64">
    <path d="M 915.545455 600.298084 
L 915.545455 581.751703 
" clip-path="url(#pa5c31d67dc)" style="fill: none; stroke: #595959"/>
   </g>
   <g id="line2d_65">
    <path d="M 905.4 615.59956 
L 925.690909 615.59956 
" clip-path="url(#pa5c31d67dc)" style="fill: none; stroke: #595959; stroke-linecap: round"/>
   </g>
   <g id="line2d_66">
    <path d="M 905.4 581.751703 
L 925.690909 581.751703 
" clip-path="url(#pa5c31d67dc)" style="fill: none; stroke: #595959; stroke-linecap: round"/>
   </g>
   <g id="patch_18">
    <path d="M 945.981818 612.55546 
L 986.563636 612.55546 
L 986.563636 605.595565 
L 945.981818 605.595565 
L 945.981818 612.55546 
z
" clip-path="url(#pa5c31d67dc)" style="fill: #b3b3b3; stroke: #595959; stroke-linejoin: miter"/>
   </g>
   <g id="line2d_67">
    <path d="M 966.272727 612.55546 
L 966.272727 615.545669 
" clip-path="url(#pa5c31d67dc)" style="fill: none; stroke: #595959"/>
   </g>
   <g id="line2d_68">
    <path d="M 966.272727 605.595565 
L 966.272727 602.715758 
" clip-path="url(#pa5c31d67dc)" style="fill: none; stroke: #595959"/>
   </g>
   <g id="line2d_69">
    <path d="M 956.127273 615.545669 
L 976.418182 615.545669 
" clip-path="url(#pa5c31d67dc)" style="fill: none; stroke: #595959; stroke-linecap: round"/>
   </g>
   <g id="line2d_70">
    <path d="M 956.127273 602.715758 
L 976.418182 602.715758 
" clip-path="url(#pa5c31d67dc)" style="fill: none; stroke: #595959; stroke-linecap: round"/>
   </g>
   <g id="patch_19">
    <path d="M 996.709091 613.804495 
L 1037.290909 613.804495 
L 1037.290909 608.432961 
L 996.709091 608.432961 
L 996.709091 613.804495 
z
" clip-path="url(#pa5c31d67dc)" style="fill: #72b6a1; stroke: #595959; stroke-linejoin: miter"/>
   </g>
   <g id="line2d_71">
    <path d="M 1017 613.804495 
L 1017 615.593283 
" clip-path="url(#pa5c31d67dc)" style="fill: none; stroke: #595959"/>
   </g>
   <g id="line2d_72">
    <path d="M 1017 608.432961 
L 1017 600.816178 
" clip-path="url(#pa5c31d67dc)" style="fill: none; stroke: #595959"/>
   </g>
   <g id="line2d_73">
    <path d="M 1006.854545 615.593283 
L 1027.145455 615.593283 
" clip-path="url(#pa5c31d67dc)" style="fill: none; stroke: #595959; stroke-linecap: round"/>
   </g>
   <g id="line2d_74">
    <path d="M 1006.854545 600.816178 
L 1027.145455 600.816178 
" clip-path="url(#pa5c31d67dc)" style="fill: none; stroke: #595959; stroke-linecap: round"/>
   </g>
   <g id="patch_20">
    <path d="M 1047.436364 613.992005 
L 1088.018182 613.992005 
L 1088.018182 609.956453 
L 1047.436364 609.956453 
L 1047.436364 613.992005 
z
" clip-path="url(#pa5c31d67dc)" style="fill: #e99675; stroke: #595959; stroke-linejoin: miter"/>
   </g>
   <g id="line2d_75">
    <path d="M 1067.727273 613.992005 
L 1067.727273 615.586984 
" clip-path="url(#pa5c31d67dc)" style="fill: none; stroke: #595959"/>
   </g>
   <g id="line2d_76">
    <path d="M 1067.727273 609.956453 
L 1067.727273 603.95132 
" clip-path="url(#pa5c31d67dc)" style="fill: none; stroke: #595959"/>
   </g>
   <g id="line2d_77">
    <path d="M 1057.581818 615.586984 
L 1077.872727 615.586984 
" clip-path="url(#pa5c31d67dc)" style="fill: none; stroke: #595959; stroke-linecap: round"/>
   </g>
   <g id="line2d_78">
    <path d="M 1057.581818 603.95132 
L 1077.872727 603.95132 
" clip-path="url(#pa5c31d67dc)" style="fill: none; stroke: #595959; stroke-linecap: round"/>
   </g>
   <g id="patch_21">
    <path d="M 1098.163636 614.048704 
L 1138.745455 614.048704 
L 1138.745455 601.680573 
L 1098.163636 601.680573 
L 1098.163636 614.048704 
z
" clip-path="url(#pa5c31d67dc)" style="fill: #95a3c3; stroke: #595959; stroke-linejoin: miter"/>
   </g>
   <g id="line2d_79">
    <path d="M 1118.454545 614.048704 
L 1118.454545 615.579915 
" clip-path="url(#pa5c31d67dc)" style="fill: none; stroke: #595959"/>
   </g>
   <g id="line2d_80">
    <path d="M 1118.454545 601.680573 
L 1118.454545 590.096609 
" clip-path="url(#pa5c31d67dc)" style="fill: none; stroke: #595959"/>
   </g>
   <g id="line2d_81">
    <path d="M 1108.309091 615.579915 
L 1128.6 615.579915 
" clip-path="url(#pa5c31d67dc)" style="fill: none; stroke: #595959; stroke-linecap: round"/>
   </g>
   <g id="line2d_82">
    <path d="M 1108.309091 590.096609 
L 1128.6 590.096609 
" clip-path="url(#pa5c31d67dc)" style="fill: none; stroke: #595959; stroke-linecap: round"/>
   </g>
   <g id="patch_22">
    <path d="M 1148.890909 613.234355 
L 1189.472727 613.234355 
L 1189.472727 595.707187 
L 1148.890909 595.707187 
L 1148.890909 613.234355 
z
" clip-path="url(#pa5c31d67dc)" style="fill: #db96c0; stroke: #595959; stroke-linejoin: miter"/>
   </g>
   <g id="line2d_83">
    <path d="M 1169.181818 613.234355 
L 1169.181818 615.574982 
" clip-path="url(#pa5c31d67dc)" style="fill: none; stroke: #595959"/>
   </g>
   <g id="line2d_84">
    <path d="M 1169.181818 595.707187 
L 1169.181818 571.77233 
" clip-path="url(#pa5c31d67dc)" style="fill: none; stroke: #595959"/>
   </g>
   <g id="line2d_85">
    <path d="M 1159.036364 615.574982 
L 1179.327273 615.574982 
" clip-path="url(#pa5c31d67dc)" style="fill: none; stroke: #595959; stroke-linecap: round"/>
   </g>
   <g id="line2d_86">
    <path d="M 1159.036364 571.77233 
L 1179.327273 571.77233 
" clip-path="url(#pa5c31d67dc)" style="fill: none; stroke: #595959; stroke-linecap: round"/>
   </g>
   <g id="patch_23">
    <path d="M 1199.618182 609.892961 
L 1240.2 609.892961 
L 1240.2 602.474605 
L 1199.618182 602.474605 
L 1199.618182 609.892961 
z
" clip-path="url(#pa5c31d67dc)" style="fill: #a2c865; stroke: #595959; stroke-linejoin: miter"/>
   </g>
   <g id="line2d_87">
    <path d="M 1219.909091 609.892961 
L 1219.909091 615.580554 
" clip-path="url(#pa5c31d67dc)" style="fill: none; stroke: #595959"/>
   </g>
   <g id="line2d_88">
    <path d="M 1219.909091 602.474605 
L 1219.909091 592.653909 
" clip-path="url(#pa5c31d67dc)" style="fill: none; stroke: #595959"/>
   </g>
   <g id="line2d_89">
    <path d="M 1209.763636 615.580554 
L 1230.054545 615.580554 
" clip-path="url(#pa5c31d67dc)" style="fill: none; stroke: #595959; stroke-linecap: round"/>
   </g>
   <g id="line2d_90">
    <path d="M 1209.763636 592.653909 
L 1230.054545 592.653909 
" clip-path="url(#pa5c31d67dc)" style="fill: none; stroke: #595959; stroke-linecap: round"/>
   </g>
   <g id="patch_24">
    <path d="M 1250.345455 613.61454 
L 1290.927273 613.61454 
L 1290.927273 604.987111 
L 1250.345455 604.987111 
L 1250.345455 613.61454 
z
" clip-path="url(#pa5c31d67dc)" style="fill: #e5c849; stroke: #595959; stroke-linejoin: miter"/>
   </g>
   <g id="line2d_91">
    <path d="M 1270.636364 613.61454 
L 1270.636364 615.597027 
" clip-path="url(#pa5c31d67dc)" style="fill: none; stroke: #595959"/>
   </g>
   <g id="line2d_92">
    <path d="M 1270.636364 604.987111 
L 1270.636364 596.765138 
" clip-path="url(#pa5c31d67dc)" style="fill: none; stroke: #595959"/>
   </g>
   <g id="line2d_93">
    <path d="M 1260.490909 615.597027 
L 1280.781818 615.597027 
" clip-path="url(#pa5c31d67dc)" style="fill: none; stroke: #595959; stroke-linecap: round"/>
   </g>
   <g id="line2d_94">
    <path d="M 1260.490909 596.765138 
L 1280.781818 596.765138 
" clip-path="url(#pa5c31d67dc)" style="fill: none; stroke: #595959; stroke-linecap: round"/>
   </g>
   <g id="line2d_95">
    <path d="M 185.072727 602.309234 
L 225.654545 602.309234 
" clip-path="url(#pa5c31d67dc)" style="fill: none; stroke: #595959"/>
   </g>
   <g id="line2d_96">
    <path d="M 235.8 485.266498 
L 276.381818 485.266498 
" clip-path="url(#pa5c31d67dc)" style="fill: none; stroke: #595959"/>
   </g>
   <g id="line2d_97">
    <path d="M 286.527273 609.661801 
L 327.109091 609.661801 
" clip-path="url(#pa5c31d67dc)" style="fill: none; stroke: #595959"/>
   </g>
   <g id="line2d_98">
    <path d="M 337.254545 470.92632 
L 377.836364 470.92632 
" clip-path="url(#pa5c31d67dc)" style="fill: none; stroke: #595959"/>
   </g>
   <g id="line2d_99">
    <path d="M 387.981818 606.720637 
L 428.563636 606.720637 
" clip-path="url(#pa5c31d67dc)" style="fill: none; stroke: #595959"/>
   </g>
   <g id="line2d_100">
    <path d="M 438.709091 610.682417 
L 479.290909 610.682417 
" clip-path="url(#pa5c31d67dc)" style="fill: none; stroke: #595959"/>
   </g>
   <g id="line2d_101">
    <path d="M 489.436364 120.937652 
L 530.018182 120.937652 
" clip-path="url(#pa5c31d67dc)" style="fill: none; stroke: #595959"/>
   </g>
   <g id="line2d_102">
    <path d="M 540.163636 199.952767 
L 580.745455 199.952767 
" clip-path="url(#pa5c31d67dc)" style="fill: none; stroke: #595959"/>
   </g>
   <g id="line2d_103">
    <path d="M 590.890909 608.882612 
L 631.472727 608.882612 
" clip-path="url(#pa5c31d67dc)" style="fill: none; stroke: #595959"/>
   </g>
   <g id="line2d_104">
    <path d="M 641.618182 607.760084 
L 682.2 607.760084 
" clip-path="url(#pa5c31d67dc)" style="fill: none; stroke: #595959"/>
   </g>
   <g id="line2d_105">
    <path d="M 692.345455 612.072163 
L 732.927273 612.072163 
" clip-path="url(#pa5c31d67dc)" style="fill: none; stroke: #595959"/>
   </g>
   <g id="line2d_106">
    <path d="M 743.072727 609.640064 
L 783.654545 609.640064 
" clip-path="url(#pa5c31d67dc)" style="fill: none; stroke: #595959"/>
   </g>
   <g id="line2d_107">
    <path d="M 793.8 613.719712 
L 834.381818 613.719712 
" clip-path="url(#pa5c31d67dc)" style="fill: none; stroke: #595959"/>
   </g>
   <g id="line2d_108">
    <path d="M 844.527273 613.614595 
L 885.109091 613.614595 
" clip-path="url(#pa5c31d67dc)" style="fill: none; stroke: #595959"/>
   </g>
   <g id="line2d_109">
    <path d="M 895.254545 606.376416 
L 935.836364 606.376416 
" clip-path="url(#pa5c31d67dc)" style="fill: none; stroke: #595959"/>
   </g>
   <g id="line2d_110">
    <path d="M 945.981818 605.992223 
L 986.563636 605.992223 
" clip-path="url(#pa5c31d67dc)" style="fill: none; stroke: #595959"/>
   </g>
   <g id="line2d_111">
    <path d="M 996.709091 611.389139 
L 1037.290909 611.389139 
" clip-path="url(#pa5c31d67dc)" style="fill: none; stroke: #595959"/>
   </g>
   <g id="line2d_112">
    <path d="M 1047.436364 613.24453 
L 1088.018182 613.24453 
" clip-path="url(#pa5c31d67dc)" style="fill: none; stroke: #595959"/>
   </g>
   <g id="line2d_113">
    <path d="M 1098.163636 611.566667 
L 1138.745455 611.566667 
" clip-path="url(#pa5c31d67dc)" style="fill: none; stroke: #595959"/>
   </g>
   <g id="line2d_114">
    <path d="M 1148.890909 607.933835 
L 1189.472727 607.933835 
" clip-path="url(#pa5c31d67dc)" style="fill: none; stroke: #595959"/>
   </g>
   <g id="line2d_115">
    <path d="M 1199.618182 604.437822 
L 1240.2 604.437822 
" clip-path="url(#pa5c31d67dc)" style="fill: none; stroke: #595959"/>
   </g>
   <g id="line2d_116">
    <path d="M 1250.345455 610.03049 
L 1290.927273 610.03049 
" clip-path="url(#pa5c31d67dc)" style="fill: none; stroke: #595959"/>
   </g>
   <g id="patch_25">
    <path d="M 180 640.8 
L 180 86.4 
" style="fill: none; stroke: #ffffff; stroke-width: 1.25; stroke-linejoin: miter; stroke-linecap: square"/>
   </g>
   <g id="patch_26">
    <path d="M 1296 640.8 
L 1296 86.4 
" style="fill: none; stroke: #ffffff; stroke-width: 1.25; stroke-linejoin: miter; stroke-linecap: square"/>
   </g>
   <g id="patch_27">
    <path d="M 180 640.8 
L 1296 640.8 
" style="fill: none; stroke: #ffffff; stroke-width: 1.25; stroke-linejoin: miter; stroke-linecap: square"/>
   </g>
   <g id="patch_28">
    <path d="M 180 86.4 
L 1296 86.4 
" style="fill: none; stroke: #ffffff; stroke-width: 1.25; stroke-linejoin: miter; stroke-linecap: square"/>
   </g>
  </g>
 </g>
 <defs>
  <clipPath id="pa5c31d67dc">
   <rect x="180" y="86.4" width="1116" height="554.4"/>
  </clipPath>
 </defs>
</svg>
