<?xml version="1.0" encoding="utf-8" standalone="no"?>
<!DOCTYPE svg PUBLIC "-//W3C//DTD SVG 1.1//EN"
  "http://www.w3.org/Graphics/SVG/1.1/DTD/svg11.dtd">
<svg xmlns:xlink="http://www.w3.org/1999/xlink" width="1440pt" height="720pt" viewBox="0 0 1440 720" xmlns="http://www.w3.org/2000/svg" version="1.1">
 <metadata>
  <rdf:RDF xmlns:dc="http://purl.org/dc/elements/1.1/" xmlns:cc="http://creativecommons.org/ns#" xmlns:rdf="http://www.w3.org/1999/02/22-rdf-syntax-ns#">
   <cc:Work>
    <dc:type rdf:resource="http://purl.org/dc/dcmitype/StillImage"/>
    <dc:date>2024-12-01T23:06:38.538439</dc:date>
    <dc:format>image/svg+xml</dc:format>
    <dc:creator>
     <cc:Agent>
      <dc:title>Matplotlib v3.9.3, https://matplotlib.org/</dc:title>
     </cc:Agent>
    </dc:creator>
   </cc:Work>
  </rdf:RDF>
 </metadata>
 <defs>
  <style type="text/css">*{stroke-linejoin: round; stroke-linecap: butt}</style>
 </defs>
 <g id="figure_1">
  <g id="patch_1">
   <path d="M 0 720 
L 1440 720 
L 1440 0 
L 0 0 
z
" style="fill: #ffffff"/>
  </g>
  <g id="axes_1">
   <g id="patch_2">
    <path d="M 180 640.8 
L 1296 640.8 
L 1296 86.4 
L 180 86.4 
z
" style="fill: #eaeaf2"/>
   </g>
   <g id="matplotlib.axis_1">
    <g id="xtick_1">
     <g id="text_1">
      <!-- Oct 2023 -->
      <g style="fill: #262626" transform="translate(187.568217 658.658281) scale(0.11 -0.11)">
       <defs>
        <path id="DejaVuSans-4f" d="M 2522 4238 
Q 1834 4238 1429 3725 
Q 1025 3213 1025 2328 
Q 1025 1447 1429 934 
Q 1834 422 2522 422 
Q 3209 422 3611 934 
Q 4013 1447 4013 2328 
Q 4013 3213 3611 3725 
Q 3209 4238 2522 4238 
z
M 2522 4750 
Q 3503 4750 4090 4092 
Q 4678 3434 4678 2328 
Q 4678 1225 4090 567 
Q 3503 -91 2522 -91 
Q 1538 -91 948 565 
Q 359 1222 359 2328 
Q 359 3434 948 4092 
Q 1538 4750 2522 4750 
z
" transform="scale(0.015625)"/>
        <path id="DejaVuSans-63" d="M 3122 3366 
L 3122 2828 
Q 2878 2963 2633 3030 
Q 2388 3097 2138 3097 
Q 1578 3097 1268 2742 
Q 959 2388 959 1747 
Q 959 1106 1268 751 
Q 1578 397 2138 397 
Q 2388 397 2633 464 
Q 2878 531 3122 666 
L 3122 134 
Q 2881 22 2623 -34 
Q 2366 -91 2075 -91 
Q 1284 -91 818 406 
Q 353 903 353 1747 
Q 353 2603 823 3093 
Q 1294 3584 2113 3584 
Q 2378 3584 2631 3529 
Q 2884 3475 3122 3366 
z
" transform="scale(0.015625)"/>
        <path id="DejaVuSans-74" d="M 1172 4494 
L 1172 3500 
L 2356 3500 
L 2356 3053 
L 1172 3053 
L 1172 1153 
Q 1172 725 1289 603 
Q 1406 481 1766 481 
L 2356 481 
L 2356 0 
L 1766 0 
Q 1100 0 847 248 
Q 594 497 594 1153 
L 594 3053 
L 172 3053 
L 172 3500 
L 594 3500 
L 594 4494 
L 1172 4494 
z
" transform="scale(0.015625)"/>
        <path id="DejaVuSans-20" transform="scale(0.015625)"/>
        <path id="DejaVuSans-32" d="M 1228 531 
L 3431 531 
L 3431 0 
L 469 0 
L 469 531 
Q 828 903 1448 1529 
Q 2069 2156 2228 2338 
Q 2531 2678 2651 2914 
Q 2772 3150 2772 3378 
Q 2772 3750 2511 3984 
Q 2250 4219 1831 4219 
Q 1534 4219 1204 4116 
Q 875 4013 500 3803 
L 500 4441 
Q 881 4594 1212 4672 
Q 1544 4750 1819 4750 
Q 2544 4750 2975 4387 
Q 3406 4025 3406 3419 
Q 3406 3131 3298 2873 
Q 3191 2616 2906 2266 
Q 2828 2175 2409 1742 
Q 1991 1309 1228 531 
z
" transform="scale(0.015625)"/>
        <path id="DejaVuSans-30" d="M 2034 4250 
Q 1547 4250 1301 3770 
Q 1056 3291 1056 2328 
Q 1056 1369 1301 889 
Q 1547 409 2034 409 
Q 2525 409 2770 889 
Q 3016 1369 3016 2328 
Q 3016 3291 2770 3770 
Q 2525 4250 2034 4250 
z
M 2034 4750 
Q 2819 4750 3233 4129 
Q 3647 3509 3647 2328 
Q 3647 1150 3233 529 
Q 2819 -91 2034 -91 
Q 1250 -91 836 529 
Q 422 1150 422 2328 
Q 422 3509 836 4129 
Q 1250 4750 2034 4750 
z
" transform="scale(0.015625)"/>
        <path id="DejaVuSans-33" d="M 2597 2516 
Q 3050 2419 3304 2112 
Q 3559 1806 3559 1356 
Q 3559 666 3084 287 
Q 2609 -91 1734 -91 
Q 1441 -91 1130 -33 
Q 819 25 488 141 
L 488 750 
Q 750 597 1062 519 
Q 1375 441 1716 441 
Q 2309 441 2620 675 
Q 2931 909 2931 1356 
Q 2931 1769 2642 2001 
Q 2353 2234 1838 2234 
L 1294 2234 
L 1294 2753 
L 1863 2753 
Q 2328 2753 2575 2939 
Q 2822 3125 2822 3475 
Q 2822 3834 2567 4026 
Q 2313 4219 1838 4219 
Q 1578 4219 1281 4162 
Q 984 4106 628 3988 
L 628 4550 
Q 988 4650 1302 4700 
Q 1616 4750 1894 4750 
Q 2613 4750 3031 4423 
Q 3450 4097 3450 3541 
Q 3450 3153 3228 2886 
Q 3006 2619 2597 2516 
z
" transform="scale(0.015625)"/>
       </defs>
       <use xlink:href="#DejaVuSans-4f"/>
       <use xlink:href="#DejaVuSans-63" x="78.710938"/>
       <use xlink:href="#DejaVuSans-74" x="133.691406"/>
       <use xlink:href="#DejaVuSans-20" x="172.900391"/>
       <use xlink:href="#DejaVuSans-32" x="204.6875"/>
       <use xlink:href="#DejaVuSans-30" x="268.310547"/>
       <use xlink:href="#DejaVuSans-32" x="331.933594"/>
       <use xlink:href="#DejaVuSans-33" x="395.556641"/>
      </g>
     </g>
    </g>
    <g id="xtick_2">
     <g id="text_2">
      <!-- Jul 2023 -->
      <g style="fill: #262626" transform="translate(256.089026 658.658281) scale(0.11 -0.11)">
       <defs>
        <path id="DejaVuSans-4a" d="M 628 4666 
L 1259 4666 
L 1259 325 
Q 1259 -519 939 -900 
Q 619 -1281 -91 -1281 
L -331 -1281 
L -331 -750 
L -134 -750 
Q 284 -750 456 -515 
Q 628 -281 628 325 
L 628 4666 
z
" transform="scale(0.015625)"/>
        <path id="DejaVuSans-75" d="M 544 1381 
L 544 3500 
L 1119 3500 
L 1119 1403 
Q 1119 906 1312 657 
Q 1506 409 1894 409 
Q 2359 409 2629 706 
Q 2900 1003 2900 1516 
L 2900 3500 
L 3475 3500 
L 3475 0 
L 2900 0 
L 2900 538 
Q 2691 219 2414 64 
Q 2138 -91 1772 -91 
Q 1169 -91 856 284 
Q 544 659 544 1381 
z
M 1991 3584 
L 1991 3584 
z
" transform="scale(0.015625)"/>
        <path id="DejaVuSans-6c" d="M 603 4863 
L 1178 4863 
L 1178 0 
L 603 0 
L 603 4863 
z
" transform="scale(0.015625)"/>
       </defs>
       <use xlink:href="#DejaVuSans-4a"/>
       <use xlink:href="#DejaVuSans-75" x="29.492188"/>
       <use xlink:href="#DejaVuSans-6c" x="92.871094"/>
       <use xlink:href="#DejaVuSans-20" x="120.654297"/>
       <use xlink:href="#DejaVuSans-32" x="152.441406"/>
       <use xlink:href="#DejaVuSans-30" x="216.064453"/>
       <use xlink:href="#DejaVuSans-32" x="279.6875"/>
       <use xlink:href="#DejaVuSans-33" x="343.310547"/>
      </g>
     </g>
    </g>
    <g id="xtick_3">
     <g id="text_3">
      <!-- Nov 2023 -->
      <g style="fill: #262626" transform="translate(317.636866 658.658281) scale(0.11 -0.11)">
       <defs>
        <path id="DejaVuSans-4e" d="M 628 4666 
L 1478 4666 
L 3547 763 
L 3547 4666 
L 4159 4666 
L 4159 0 
L 3309 0 
L 1241 3903 
L 1241 0 
L 628 0 
L 628 4666 
z
" transform="scale(0.015625)"/>
        <path id="DejaVuSans-6f" d="M 1959 3097 
Q 1497 3097 1228 2736 
Q 959 2375 959 1747 
Q 959 1119 1226 758 
Q 1494 397 1959 397 
Q 2419 397 2687 759 
Q 2956 1122 2956 1747 
Q 2956 2369 2687 2733 
Q 2419 3097 1959 3097 
z
M 1959 3584 
Q 2709 3584 3137 3096 
Q 3566 2609 3566 1747 
Q 3566 888 3137 398 
Q 2709 -91 1959 -91 
Q 1206 -91 779 398 
Q 353 888 353 1747 
Q 353 2609 779 3096 
Q 1206 3584 1959 3584 
z
" transform="scale(0.015625)"/>
        <path id="DejaVuSans-76" d="M 191 3500 
L 800 3500 
L 1894 563 
L 2988 3500 
L 3597 3500 
L 2284 0 
L 1503 0 
L 191 3500 
z
" transform="scale(0.015625)"/>
       </defs>
       <use xlink:href="#DejaVuSans-4e"/>
       <use xlink:href="#DejaVuSans-6f" x="74.804688"/>
       <use xlink:href="#DejaVuSans-76" x="135.986328"/>
       <use xlink:href="#DejaVuSans-20" x="195.166016"/>
       <use xlink:href="#DejaVuSans-32" x="226.953125"/>
       <use xlink:href="#DejaVuSans-30" x="290.576172"/>
       <use xlink:href="#DejaVuSans-32" x="354.199219"/>
       <use xlink:href="#DejaVuSans-33" x="417.822266"/>
      </g>
     </g>
    </g>
    <g id="xtick_4">
     <g id="text_4">
      <!-- Sep 2023 -->
      <g style="fill: #262626" transform="translate(383.651737 658.658281) scale(0.11 -0.11)">
       <defs>
        <path id="DejaVuSans-53" d="M 3425 4513 
L 3425 3897 
Q 3066 4069 2747 4153 
Q 2428 4238 2131 4238 
Q 1616 4238 1336 4038 
Q 1056 3838 1056 3469 
Q 1056 3159 1242 3001 
Q 1428 2844 1947 2747 
L 2328 2669 
Q 3034 2534 3370 2195 
Q 3706 1856 3706 1288 
Q 3706 609 3251 259 
Q 2797 -91 1919 -91 
Q 1588 -91 1214 -16 
Q 841 59 441 206 
L 441 856 
Q 825 641 1194 531 
Q 1563 422 1919 422 
Q 2459 422 2753 634 
Q 3047 847 3047 1241 
Q 3047 1584 2836 1778 
Q 2625 1972 2144 2069 
L 1759 2144 
Q 1053 2284 737 2584 
Q 422 2884 422 3419 
Q 422 4038 858 4394 
Q 1294 4750 2059 4750 
Q 2388 4750 2728 4690 
Q 3069 4631 3425 4513 
z
" transform="scale(0.015625)"/>
        <path id="DejaVuSans-65" d="M 3597 1894 
L 3597 1613 
L 953 1613 
Q 991 1019 1311 708 
Q 1631 397 2203 397 
Q 2534 397 2845 478 
Q 3156 559 3463 722 
L 3463 178 
Q 3153 47 2828 -22 
Q 2503 -91 2169 -91 
Q 1331 -91 842 396 
Q 353 884 353 1716 
Q 353 2575 817 3079 
Q 1281 3584 2069 3584 
Q 2775 3584 3186 3129 
Q 3597 2675 3597 1894 
z
M 3022 2063 
Q 3016 2534 2758 2815 
Q 2500 3097 2075 3097 
Q 1594 3097 1305 2825 
Q 1016 2553 972 2059 
L 3022 2063 
z
" transform="scale(0.015625)"/>
        <path id="DejaVuSans-70" d="M 1159 525 
L 1159 -1331 
L 581 -1331 
L 581 3500 
L 1159 3500 
L 1159 2969 
Q 1341 3281 1617 3432 
Q 1894 3584 2278 3584 
Q 2916 3584 3314 3078 
Q 3713 2572 3713 1747 
Q 3713 922 3314 415 
Q 2916 -91 2278 -91 
Q 1894 -91 1617 61 
Q 1341 213 1159 525 
z
M 3116 1747 
Q 3116 2381 2855 2742 
Q 2594 3103 2138 3103 
Q 1681 3103 1420 2742 
Q 1159 2381 1159 1747 
Q 1159 1113 1420 752 
Q 1681 391 2138 391 
Q 2594 391 2855 752 
Q 3116 1113 3116 1747 
z
" transform="scale(0.015625)"/>
       </defs>
       <use xlink:href="#DejaVuSans-53"/>
       <use xlink:href="#DejaVuSans-65" x="63.476562"/>
       <use xlink:href="#DejaVuSans-70" x="125"/>
       <use xlink:href="#DejaVuSans-20" x="188.476562"/>
       <use xlink:href="#DejaVuSans-32" x="220.263672"/>
       <use xlink:href="#DejaVuSans-30" x="283.886719"/>
       <use xlink:href="#DejaVuSans-32" x="347.509766"/>
       <use xlink:href="#DejaVuSans-33" x="411.132812"/>
      </g>
     </g>
    </g>
    <g id="xtick_5">
     <g id="text_5">
      <!-- Aug 2023 -->
      <g style="fill: #262626" transform="translate(448.926687 658.658281) scale(0.11 -0.11)">
       <defs>
        <path id="DejaVuSans-41" d="M 2188 4044 
L 1331 1722 
L 3047 1722 
L 2188 4044 
z
M 1831 4666 
L 2547 4666 
L 4325 0 
L 3669 0 
L 3244 1197 
L 1141 1197 
L 716 0 
L 50 0 
L 1831 4666 
z
" transform="scale(0.015625)"/>
        <path id="DejaVuSans-67" d="M 2906 1791 
Q 2906 2416 2648 2759 
Q 2391 3103 1925 3103 
Q 1463 3103 1205 2759 
Q 947 2416 947 1791 
Q 947 1169 1205 825 
Q 1463 481 1925 481 
Q 2391 481 2648 825 
Q 2906 1169 2906 1791 
z
M 3481 434 
Q 3481 -459 3084 -895 
Q 2688 -1331 1869 -1331 
Q 1566 -1331 1297 -1286 
Q 1028 -1241 775 -1147 
L 775 -588 
Q 1028 -725 1275 -790 
Q 1522 -856 1778 -856 
Q 2344 -856 2625 -561 
Q 2906 -266 2906 331 
L 2906 616 
Q 2728 306 2450 153 
Q 2172 0 1784 0 
Q 1141 0 747 490 
Q 353 981 353 1791 
Q 353 2603 747 3093 
Q 1141 3584 1784 3584 
Q 2172 3584 2450 3431 
Q 2728 3278 2906 2969 
L 2906 3500 
L 3481 3500 
L 3481 434 
z
" transform="scale(0.015625)"/>
       </defs>
       <use xlink:href="#DejaVuSans-41"/>
       <use xlink:href="#DejaVuSans-75" x="68.408203"/>
       <use xlink:href="#DejaVuSans-67" x="131.787109"/>
       <use xlink:href="#DejaVuSans-20" x="195.263672"/>
       <use xlink:href="#DejaVuSans-32" x="227.050781"/>
       <use xlink:href="#DejaVuSans-30" x="290.673828"/>
       <use xlink:href="#DejaVuSans-32" x="354.296875"/>
       <use xlink:href="#DejaVuSans-33" x="417.919922"/>
      </g>
     </g>
    </g>
    <g id="xtick_6">
     <g id="text_6">
      <!-- Dec 2023 -->
      <g style="fill: #262626" transform="translate(514.669995 658.658281) scale(0.11 -0.11)">
       <defs>
        <path id="DejaVuSans-44" d="M 1259 4147 
L 1259 519 
L 2022 519 
Q 2988 519 3436 956 
Q 3884 1394 3884 2338 
Q 3884 3275 3436 3711 
Q 2988 4147 2022 4147 
L 1259 4147 
z
M 628 4666 
L 1925 4666 
Q 3281 4666 3915 4102 
Q 4550 3538 4550 2338 
Q 4550 1131 3912 565 
Q 3275 0 1925 0 
L 628 0 
L 628 4666 
z
" transform="scale(0.015625)"/>
       </defs>
       <use xlink:href="#DejaVuSans-44"/>
       <use xlink:href="#DejaVuSans-65" x="77.001953"/>
       <use xlink:href="#DejaVuSans-63" x="138.525391"/>
       <use xlink:href="#DejaVuSans-20" x="193.505859"/>
       <use xlink:href="#DejaVuSans-32" x="225.292969"/>
       <use xlink:href="#DejaVuSans-30" x="288.916016"/>
       <use xlink:href="#DejaVuSans-32" x="352.539062"/>
       <use xlink:href="#DejaVuSans-33" x="416.162109"/>
      </g>
     </g>
    </g>
    <g id="xtick_7">
     <g id="text_7">
      <!-- Jan 2024 -->
      <g style="fill: #262626" transform="translate(582.48182 658.658281) scale(0.11 -0.11)">
       <defs>
        <path id="DejaVuSans-61" d="M 2194 1759 
Q 1497 1759 1228 1600 
Q 959 1441 959 1056 
Q 959 750 1161 570 
Q 1363 391 1709 391 
Q 2188 391 2477 730 
Q 2766 1069 2766 1631 
L 2766 1759 
L 2194 1759 
z
M 3341 1997 
L 3341 0 
L 2766 0 
L 2766 531 
Q 2569 213 2275 61 
Q 1981 -91 1556 -91 
Q 1019 -91 701 211 
Q 384 513 384 1019 
Q 384 1609 779 1909 
Q 1175 2209 1959 2209 
L 2766 2209 
L 2766 2266 
Q 2766 2663 2505 2880 
Q 2244 3097 1772 3097 
Q 1472 3097 1187 3025 
Q 903 2953 641 2809 
L 641 3341 
Q 956 3463 1253 3523 
Q 1550 3584 1831 3584 
Q 2591 3584 2966 3190 
Q 3341 2797 3341 1997 
z
" transform="scale(0.015625)"/>
        <path id="DejaVuSans-6e" d="M 3513 2113 
L 3513 0 
L 2938 0 
L 2938 2094 
Q 2938 2591 2744 2837 
Q 2550 3084 2163 3084 
Q 1697 3084 1428 2787 
Q 1159 2491 1159 1978 
L 1159 0 
L 581 0 
L 581 3500 
L 1159 3500 
L 1159 2956 
Q 1366 3272 1645 3428 
Q 1925 3584 2291 3584 
Q 2894 3584 3203 3211 
Q 3513 2838 3513 2113 
z
" transform="scale(0.015625)"/>
        <path id="DejaVuSans-34" d="M 2419 4116 
L 825 1625 
L 2419 1625 
L 2419 4116 
z
M 2253 4666 
L 3047 4666 
L 3047 1625 
L 3713 1625 
L 3713 1100 
L 3047 1100 
L 3047 0 
L 2419 0 
L 2419 1100 
L 313 1100 
L 313 1709 
L 2253 4666 
z
" transform="scale(0.015625)"/>
       </defs>
       <use xlink:href="#DejaVuSans-4a"/>
       <use xlink:href="#DejaVuSans-61" x="29.492188"/>
       <use xlink:href="#DejaVuSans-6e" x="90.771484"/>
       <use xlink:href="#DejaVuSans-20" x="154.150391"/>
       <use xlink:href="#DejaVuSans-32" x="185.9375"/>
       <use xlink:href="#DejaVuSans-30" x="249.560547"/>
       <use xlink:href="#DejaVuSans-32" x="313.183594"/>
       <use xlink:href="#DejaVuSans-34" x="376.806641"/>
      </g>
     </g>
    </g>
    <g id="xtick_8">
     <g id="text_8">
      <!-- Feb 2024 -->
      <g style="fill: #262626" transform="translate(646.870754 658.658281) scale(0.11 -0.11)">
       <defs>
        <path id="DejaVuSans-46" d="M 628 4666 
L 3309 4666 
L 3309 4134 
L 1259 4134 
L 1259 2759 
L 3109 2759 
L 3109 2228 
L 1259 2228 
L 1259 0 
L 628 0 
L 628 4666 
z
" transform="scale(0.015625)"/>
        <path id="DejaVuSans-62" d="M 3116 1747 
Q 3116 2381 2855 2742 
Q 2594 3103 2138 3103 
Q 1681 3103 1420 2742 
Q 1159 2381 1159 1747 
Q 1159 1113 1420 752 
Q 1681 391 2138 391 
Q 2594 391 2855 752 
Q 3116 1113 3116 1747 
z
M 1159 2969 
Q 1341 3281 1617 3432 
Q 1894 3584 2278 3584 
Q 2916 3584 3314 3078 
Q 3713 2572 3713 1747 
Q 3713 922 3314 415 
Q 2916 -91 2278 -91 
Q 1894 -91 1617 61 
Q 1341 213 1159 525 
L 1159 0 
L 581 0 
L 581 4863 
L 1159 4863 
L 1159 2969 
z
" transform="scale(0.015625)"/>
       </defs>
       <use xlink:href="#DejaVuSans-46"/>
       <use xlink:href="#DejaVuSans-65" x="52.019531"/>
       <use xlink:href="#DejaVuSans-62" x="113.542969"/>
       <use xlink:href="#DejaVuSans-20" x="177.019531"/>
       <use xlink:href="#DejaVuSans-32" x="208.806641"/>
       <use xlink:href="#DejaVuSans-30" x="272.429688"/>
       <use xlink:href="#DejaVuSans-32" x="336.052734"/>
       <use xlink:href="#DejaVuSans-34" x="399.675781"/>
      </g>
     </g>
    </g>
    <g id="xtick_9">
     <g id="text_9">
      <!-- Mar 2024 -->
      <g style="fill: #262626" transform="translate(711.877578 658.658281) scale(0.11 -0.11)">
       <defs>
        <path id="DejaVuSans-4d" d="M 628 4666 
L 1569 4666 
L 2759 1491 
L 3956 4666 
L 4897 4666 
L 4897 0 
L 4281 0 
L 4281 4097 
L 3078 897 
L 2444 897 
L 1241 4097 
L 1241 0 
L 628 0 
L 628 4666 
z
" transform="scale(0.015625)"/>
        <path id="DejaVuSans-72" d="M 2631 2963 
Q 2534 3019 2420 3045 
Q 2306 3072 2169 3072 
Q 1681 3072 1420 2755 
Q 1159 2438 1159 1844 
L 1159 0 
L 581 0 
L 581 3500 
L 1159 3500 
L 1159 2956 
Q 1341 3275 1631 3429 
Q 1922 3584 2338 3584 
Q 2397 3584 2469 3576 
Q 2541 3569 2628 3553 
L 2631 2963 
z
" transform="scale(0.015625)"/>
       </defs>
       <use xlink:href="#DejaVuSans-4d"/>
       <use xlink:href="#DejaVuSans-61" x="86.279297"/>
       <use xlink:href="#DejaVuSans-72" x="147.558594"/>
       <use xlink:href="#DejaVuSans-20" x="188.671875"/>
       <use xlink:href="#DejaVuSans-32" x="220.458984"/>
       <use xlink:href="#DejaVuSans-30" x="284.082031"/>
       <use xlink:href="#DejaVuSans-32" x="347.705078"/>
       <use xlink:href="#DejaVuSans-34" x="411.328125"/>
      </g>
     </g>
    </g>
    <g id="xtick_10">
     <g id="text_10">
      <!-- Apr 2024 -->
      <g style="fill: #262626" transform="translate(778.38659 658.658281) scale(0.11 -0.11)">
       <use xlink:href="#DejaVuSans-41"/>
       <use xlink:href="#DejaVuSans-70" x="68.408203"/>
       <use xlink:href="#DejaVuSans-72" x="131.884766"/>
       <use xlink:href="#DejaVuSans-20" x="172.998047"/>
       <use xlink:href="#DejaVuSans-32" x="204.785156"/>
       <use xlink:href="#DejaVuSans-30" x="268.408203"/>
       <use xlink:href="#DejaVuSans-32" x="332.03125"/>
       <use xlink:href="#DejaVuSans-34" x="395.654297"/>
      </g>
     </g>
    </g>
    <g id="xtick_11">
     <g id="text_11">
      <!-- May 2024 -->
      <g style="fill: #262626" transform="translate(842.177399 658.658281) scale(0.11 -0.11)">
       <defs>
        <path id="DejaVuSans-79" d="M 2059 -325 
Q 1816 -950 1584 -1140 
Q 1353 -1331 966 -1331 
L 506 -1331 
L 506 -850 
L 844 -850 
Q 1081 -850 1212 -737 
Q 1344 -625 1503 -206 
L 1606 56 
L 191 3500 
L 800 3500 
L 1894 763 
L 2988 3500 
L 3597 3500 
L 2059 -325 
z
" transform="scale(0.015625)"/>
       </defs>
       <use xlink:href="#DejaVuSans-4d"/>
       <use xlink:href="#DejaVuSans-61" x="86.279297"/>
       <use xlink:href="#DejaVuSans-79" x="147.558594"/>
       <use xlink:href="#DejaVuSans-20" x="206.738281"/>
       <use xlink:href="#DejaVuSans-32" x="238.525391"/>
       <use xlink:href="#DejaVuSans-30" x="302.148438"/>
       <use xlink:href="#DejaVuSans-32" x="365.771484"/>
       <use xlink:href="#DejaVuSans-34" x="429.394531"/>
      </g>
     </g>
    </g>
    <g id="xtick_12">
     <g id="text_12">
      <!-- Jun 2024 -->
      <g style="fill: #262626" transform="translate(910.601958 658.658281) scale(0.11 -0.11)">
       <use xlink:href="#DejaVuSans-4a"/>
       <use xlink:href="#DejaVuSans-75" x="29.492188"/>
       <use xlink:href="#DejaVuSans-6e" x="92.871094"/>
       <use xlink:href="#DejaVuSans-20" x="156.25"/>
       <use xlink:href="#DejaVuSans-32" x="188.037109"/>
       <use xlink:href="#DejaVuSans-30" x="251.660156"/>
       <use xlink:href="#DejaVuSans-32" x="315.283203"/>
       <use xlink:href="#DejaVuSans-34" x="378.90625"/>
      </g>
     </g>
    </g>
    <g id="xtick_13">
     <g id="text_13">
      <!-- Jul 2024 -->
      <g style="fill: #262626" transform="translate(978.206673 658.658281) scale(0.11 -0.11)">
       <use xlink:href="#DejaVuSans-4a"/>
       <use xlink:href="#DejaVuSans-75" x="29.492188"/>
       <use xlink:href="#DejaVuSans-6c" x="92.871094"/>
       <use xlink:href="#DejaVuSans-20" x="120.654297"/>
       <use xlink:href="#DejaVuSans-32" x="152.441406"/>
       <use xlink:href="#DejaVuSans-30" x="216.064453"/>
       <use xlink:href="#DejaVuSans-32" x="279.6875"/>
       <use xlink:href="#DejaVuSans-34" x="343.310547"/>
      </g>
     </g>
    </g>
    <g id="xtick_14">
     <g id="text_14">
      <!-- Aug 2024 -->
      <g style="fill: #262626" transform="translate(1039.750216 658.658281) scale(0.11 -0.11)">
       <use xlink:href="#DejaVuSans-41"/>
       <use xlink:href="#DejaVuSans-75" x="68.408203"/>
       <use xlink:href="#DejaVuSans-67" x="131.787109"/>
       <use xlink:href="#DejaVuSans-20" x="195.263672"/>
       <use xlink:href="#DejaVuSans-32" x="227.050781"/>
       <use xlink:href="#DejaVuSans-30" x="290.673828"/>
       <use xlink:href="#DejaVuSans-32" x="354.296875"/>
       <use xlink:href="#DejaVuSans-34" x="417.919922"/>
      </g>
     </g>
    </g>
    <g id="xtick_15">
     <g id="text_15">
      <!-- Sep 2024 -->
      <g style="fill: #262626" transform="translate(1105.769384 658.658281) scale(0.11 -0.11)">
       <use xlink:href="#DejaVuSans-53"/>
       <use xlink:href="#DejaVuSans-65" x="63.476562"/>
       <use xlink:href="#DejaVuSans-70" x="125"/>
       <use xlink:href="#DejaVuSans-20" x="188.476562"/>
       <use xlink:href="#DejaVuSans-32" x="220.263672"/>
       <use xlink:href="#DejaVuSans-30" x="283.886719"/>
       <use xlink:href="#DejaVuSans-32" x="347.509766"/>
       <use xlink:href="#DejaVuSans-34" x="411.132812"/>
      </g>
     </g>
    </g>
    <g id="xtick_16">
     <g id="text_16">
      <!-- Oct 2024 -->
      <g style="fill: #262626" transform="translate(1172.274099 658.658281) scale(0.11 -0.11)">
       <use xlink:href="#DejaVuSans-4f"/>
       <use xlink:href="#DejaVuSans-63" x="78.710938"/>
       <use xlink:href="#DejaVuSans-74" x="133.691406"/>
       <use xlink:href="#DejaVuSans-20" x="172.900391"/>
       <use xlink:href="#DejaVuSans-32" x="204.6875"/>
       <use xlink:href="#DejaVuSans-30" x="268.310547"/>
       <use xlink:href="#DejaVuSans-32" x="331.933594"/>
       <use xlink:href="#DejaVuSans-34" x="395.556641"/>
      </g>
     </g>
    </g>
    <g id="xtick_17">
     <g id="text_17">
      <!-- Nov 2024 -->
      <g style="fill: #262626" transform="translate(1236.695689 658.658281) scale(0.11 -0.11)">
       <use xlink:href="#DejaVuSans-4e"/>
       <use xlink:href="#DejaVuSans-6f" x="74.804688"/>
       <use xlink:href="#DejaVuSans-76" x="135.986328"/>
       <use xlink:href="#DejaVuSans-20" x="195.166016"/>
       <use xlink:href="#DejaVuSans-32" x="226.953125"/>
       <use xlink:href="#DejaVuSans-30" x="290.576172"/>
       <use xlink:href="#DejaVuSans-32" x="354.199219"/>
       <use xlink:href="#DejaVuSans-34" x="417.822266"/>
      </g>
     </g>
    </g>
    <g id="text_18">
     <!-- month_year -->
     <g style="fill: #262626" transform="translate(702.140625 674.064062) scale(0.12 -0.12)">
      <defs>
       <path id="DejaVuSans-6d" d="M 3328 2828 
Q 3544 3216 3844 3400 
Q 4144 3584 4550 3584 
Q 5097 3584 5394 3201 
Q 5691 2819 5691 2113 
L 5691 0 
L 5113 0 
L 5113 2094 
Q 5113 2597 4934 2840 
Q 4756 3084 4391 3084 
Q 3944 3084 3684 2787 
Q 3425 2491 3425 1978 
L 3425 0 
L 2847 0 
L 2847 2094 
Q 2847 2600 2669 2842 
Q 2491 3084 2119 3084 
Q 1678 3084 1418 2786 
Q 1159 2488 1159 1978 
L 1159 0 
L 581 0 
L 581 3500 
L 1159 3500 
L 1159 2956 
Q 1356 3278 1631 3431 
Q 1906 3584 2284 3584 
Q 2666 3584 2933 3390 
Q 3200 3197 3328 2828 
z
" transform="scale(0.015625)"/>
       <path id="DejaVuSans-68" d="M 3513 2113 
L 3513 0 
L 2938 0 
L 2938 2094 
Q 2938 2591 2744 2837 
Q 2550 3084 2163 3084 
Q 1697 3084 1428 2787 
Q 1159 2491 1159 1978 
L 1159 0 
L 581 0 
L 581 4863 
L 1159 4863 
L 1159 2956 
Q 1366 3272 1645 3428 
Q 1925 3584 2291 3584 
Q 2894 3584 3203 3211 
Q 3513 2838 3513 2113 
z
" transform="scale(0.015625)"/>
       <path id="DejaVuSans-5f" d="M 3263 -1063 
L 3263 -1509 
L -63 -1509 
L -63 -1063 
L 3263 -1063 
z
" transform="scale(0.015625)"/>
      </defs>
      <use xlink:href="#DejaVuSans-6d"/>
      <use xlink:href="#DejaVuSans-6f" x="97.412109"/>
      <use xlink:href="#DejaVuSans-6e" x="158.59375"/>
      <use xlink:href="#DejaVuSans-74" x="221.972656"/>
      <use xlink:href="#DejaVuSans-68" x="261.181641"/>
      <use xlink:href="#DejaVuSans-5f" x="324.560547"/>
      <use xlink:href="#DejaVuSans-79" x="374.560547"/>
      <use xlink:href="#DejaVuSans-65" x="433.740234"/>
      <use xlink:href="#DejaVuSans-61" x="495.263672"/>
      <use xlink:href="#DejaVuSans-72" x="556.542969"/>
     </g>
    </g>
   </g>
   <g id="matplotlib.axis_2">
    <g id="ytick_1">
     <g id="line2d_1">
      <path d="M 180 615.600106 
L 1296 615.600106 
" clip-path="url(#p02f9bc1e29)" style="fill: none; stroke: #ffffff; stroke-linecap: round"/>
     </g>
     <g id="text_19">
      <!-- 0 -->
      <g style="fill: #262626" transform="translate(163.50125 619.779247) scale(0.11 -0.11)">
       <use xlink:href="#DejaVuSans-30"/>
      </g>
     </g>
    </g>
    <g id="ytick_2">
     <g id="line2d_2">
      <path d="M 180 539.145449 
L 1296 539.145449 
" clip-path="url(#p02f9bc1e29)" style="fill: none; stroke: #ffffff; stroke-linecap: round"/>
     </g>
     <g id="text_20">
      <!-- 25 -->
      <g style="fill: #262626" transform="translate(156.5025 543.32459) scale(0.11 -0.11)">
       <defs>
        <path id="DejaVuSans-35" d="M 691 4666 
L 3169 4666 
L 3169 4134 
L 1269 4134 
L 1269 2991 
Q 1406 3038 1543 3061 
Q 1681 3084 1819 3084 
Q 2600 3084 3056 2656 
Q 3513 2228 3513 1497 
Q 3513 744 3044 326 
Q 2575 -91 1722 -91 
Q 1428 -91 1123 -41 
Q 819 9 494 109 
L 494 744 
Q 775 591 1075 516 
Q 1375 441 1709 441 
Q 2250 441 2565 725 
Q 2881 1009 2881 1497 
Q 2881 1984 2565 2268 
Q 2250 2553 1709 2553 
Q 1456 2553 1204 2497 
Q 953 2441 691 2322 
L 691 4666 
z
" transform="scale(0.015625)"/>
       </defs>
       <use xlink:href="#DejaVuSans-32"/>
       <use xlink:href="#DejaVuSans-35" x="63.623047"/>
      </g>
     </g>
    </g>
    <g id="ytick_3">
     <g id="line2d_3">
      <path d="M 180 462.690792 
L 1296 462.690792 
" clip-path="url(#p02f9bc1e29)" style="fill: none; stroke: #ffffff; stroke-linecap: round"/>
     </g>
     <g id="text_21">
      <!-- 50 -->
      <g style="fill: #262626" transform="translate(156.5025 466.869933) scale(0.11 -0.11)">
       <use xlink:href="#DejaVuSans-35"/>
       <use xlink:href="#DejaVuSans-30" x="63.623047"/>
      </g>
     </g>
    </g>
    <g id="ytick_4">
     <g id="line2d_4">
      <path d="M 180 386.236136 
L 1296 386.236136 
" clip-path="url(#p02f9bc1e29)" style="fill: none; stroke: #ffffff; stroke-linecap: round"/>
     </g>
     <g id="text_22">
      <!-- 75 -->
      <g style="fill: #262626" transform="translate(156.5025 390.415276) scale(0.11 -0.11)">
       <defs>
        <path id="DejaVuSans-37" d="M 525 4666 
L 3525 4666 
L 3525 4397 
L 1831 0 
L 1172 0 
L 2766 4134 
L 525 4134 
L 525 4666 
z
" transform="scale(0.015625)"/>
       </defs>
       <use xlink:href="#DejaVuSans-37"/>
       <use xlink:href="#DejaVuSans-35" x="63.623047"/>
      </g>
     </g>
    </g>
    <g id="ytick_5">
     <g id="line2d_5">
      <path d="M 180 309.781479 
L 1296 309.781479 
" clip-path="url(#p02f9bc1e29)" style="fill: none; stroke: #ffffff; stroke-linecap: round"/>
     </g>
     <g id="text_23">
      <!-- 100 -->
      <g style="fill: #262626" transform="translate(149.50375 313.960619) scale(0.11 -0.11)">
       <defs>
        <path id="DejaVuSans-31" d="M 794 531 
L 1825 531 
L 1825 4091 
L 703 3866 
L 703 4441 
L 1819 4666 
L 2450 4666 
L 2450 531 
L 3481 531 
L 3481 0 
L 794 0 
L 794 531 
z
" transform="scale(0.015625)"/>
       </defs>
       <use xlink:href="#DejaVuSans-31"/>
       <use xlink:href="#DejaVuSans-30" x="63.623047"/>
       <use xlink:href="#DejaVuSans-30" x="127.246094"/>
      </g>
     </g>
    </g>
    <g id="ytick_6">
     <g id="line2d_6">
      <path d="M 180 233.326822 
L 1296 233.326822 
" clip-path="url(#p02f9bc1e29)" style="fill: none; stroke: #ffffff; stroke-linecap: round"/>
     </g>
     <g id="text_24">
      <!-- 125 -->
      <g style="fill: #262626" transform="translate(149.50375 237.505962) scale(0.11 -0.11)">
       <use xlink:href="#DejaVuSans-31"/>
       <use xlink:href="#DejaVuSans-32" x="63.623047"/>
       <use xlink:href="#DejaVuSans-35" x="127.246094"/>
      </g>
     </g>
    </g>
    <g id="ytick_7">
     <g id="line2d_7">
      <path d="M 180 156.872165 
L 1296 156.872165 
" clip-path="url(#p02f9bc1e29)" style="fill: none; stroke: #ffffff; stroke-linecap: round"/>
     </g>
     <g id="text_25">
      <!-- 150 -->
      <g style="fill: #262626" transform="translate(149.50375 161.051306) scale(0.11 -0.11)">
       <use xlink:href="#DejaVuSans-31"/>
       <use xlink:href="#DejaVuSans-35" x="63.623047"/>
       <use xlink:href="#DejaVuSans-30" x="127.246094"/>
      </g>
     </g>
    </g>
    <g id="text_26">
     <!-- diff_days -->
     <g style="fill: #262626" transform="translate(142.674375 390.463125) rotate(-90) scale(0.12 -0.12)">
      <defs>
       <path id="DejaVuSans-64" d="M 2906 2969 
L 2906 4863 
L 3481 4863 
L 3481 0 
L 2906 0 
L 2906 525 
Q 2725 213 2448 61 
Q 2172 -91 1784 -91 
Q 1150 -91 751 415 
Q 353 922 353 1747 
Q 353 2572 751 3078 
Q 1150 3584 1784 3584 
Q 2172 3584 2448 3432 
Q 2725 3281 2906 2969 
z
M 947 1747 
Q 947 1113 1208 752 
Q 1469 391 1925 391 
Q 2381 391 2643 752 
Q 2906 1113 2906 1747 
Q 2906 2381 2643 2742 
Q 2381 3103 1925 3103 
Q 1469 3103 1208 2742 
Q 947 2381 947 1747 
z
" transform="scale(0.015625)"/>
       <path id="DejaVuSans-69" d="M 603 3500 
L 1178 3500 
L 1178 0 
L 603 0 
L 603 3500 
z
M 603 4863 
L 1178 4863 
L 1178 4134 
L 603 4134 
L 603 4863 
z
" transform="scale(0.015625)"/>
       <path id="DejaVuSans-66" d="M 2375 4863 
L 2375 4384 
L 1825 4384 
Q 1516 4384 1395 4259 
Q 1275 4134 1275 3809 
L 1275 3500 
L 2222 3500 
L 2222 3053 
L 1275 3053 
L 1275 0 
L 697 0 
L 697 3053 
L 147 3053 
L 147 3500 
L 697 3500 
L 697 3744 
Q 697 4328 969 4595 
Q 1241 4863 1831 4863 
L 2375 4863 
z
" transform="scale(0.015625)"/>
       <path id="DejaVuSans-73" d="M 2834 3397 
L 2834 2853 
Q 2591 2978 2328 3040 
Q 2066 3103 1784 3103 
Q 1356 3103 1142 2972 
Q 928 2841 928 2578 
Q 928 2378 1081 2264 
Q 1234 2150 1697 2047 
L 1894 2003 
Q 2506 1872 2764 1633 
Q 3022 1394 3022 966 
Q 3022 478 2636 193 
Q 2250 -91 1575 -91 
Q 1294 -91 989 -36 
Q 684 19 347 128 
L 347 722 
Q 666 556 975 473 
Q 1284 391 1588 391 
Q 1994 391 2212 530 
Q 2431 669 2431 922 
Q 2431 1156 2273 1281 
Q 2116 1406 1581 1522 
L 1381 1569 
Q 847 1681 609 1914 
Q 372 2147 372 2553 
Q 372 3047 722 3315 
Q 1072 3584 1716 3584 
Q 2034 3584 2315 3537 
Q 2597 3491 2834 3397 
z
" transform="scale(0.015625)"/>
      </defs>
      <use xlink:href="#DejaVuSans-64"/>
      <use xlink:href="#DejaVuSans-69" x="63.476562"/>
      <use xlink:href="#DejaVuSans-66" x="91.259766"/>
      <use xlink:href="#DejaVuSans-66" x="126.464844"/>
      <use xlink:href="#DejaVuSans-5f" x="161.669922"/>
      <use xlink:href="#DejaVuSans-64" x="211.669922"/>
      <use xlink:href="#DejaVuSans-61" x="275.146484"/>
      <use xlink:href="#DejaVuSans-79" x="336.425781"/>
      <use xlink:href="#DejaVuSans-73" x="395.605469"/>
     </g>
    </g>
   </g>
   <g id="patch_3">
    <path d="M 186.564706 609.480141 
L 239.082353 609.480141 
L 239.082353 571.104664 
L 186.564706 571.104664 
L 186.564706 609.480141 
z
" clip-path="url(#p02f9bc1e29)" style="fill: #72b6a1; stroke: #595959; stroke-linejoin: miter"/>
   </g>
   <g id="line2d_8">
    <path d="M 212.823529 609.480141 
L 212.823529 615.535721 
" clip-path="url(#p02f9bc1e29)" style="fill: none; stroke: #595959"/>
   </g>
   <g id="line2d_9">
    <path d="M 212.823529 571.104664 
L 212.823529 514.24884 
" clip-path="url(#p02f9bc1e29)" style="fill: none; stroke: #595959"/>
   </g>
   <g id="line2d_10">
    <path d="M 199.694118 615.535721 
L 225.952941 615.535721 
" clip-path="url(#p02f9bc1e29)" style="fill: none; stroke: #595959; stroke-linecap: round"/>
   </g>
   <g id="line2d_11">
    <path d="M 199.694118 514.24884 
L 225.952941 514.24884 
" clip-path="url(#p02f9bc1e29)" style="fill: none; stroke: #595959; stroke-linecap: round"/>
   </g>
   <g id="patch_4">
    <path d="M 252.211765 237.66765 
L 304.729412 237.66765 
L 304.729412 111.6 
L 252.211765 111.6 
L 252.211765 237.66765 
z
" clip-path="url(#p02f9bc1e29)" style="fill: #e99675; stroke: #595959; stroke-linejoin: miter"/>
   </g>
   <g id="line2d_12">
    <path d="M 278.470588 237.66765 
L 278.470588 281.869901 
" clip-path="url(#p02f9bc1e29)" style="fill: none; stroke: #595959"/>
   </g>
   <g id="line2d_13">
    <path d="M 278.470588 111.6 
L 278.470588 111.6 
" clip-path="url(#p02f9bc1e29)" style="fill: none; stroke: #595959"/>
   </g>
   <g id="line2d_14">
    <path d="M 265.341176 281.869901 
L 291.6 281.869901 
" clip-path="url(#p02f9bc1e29)" style="fill: none; stroke: #595959; stroke-linecap: round"/>
   </g>
   <g id="line2d_15">
    <path d="M 265.341176 111.6 
L 291.6 111.6 
" clip-path="url(#p02f9bc1e29)" style="fill: none; stroke: #595959; stroke-linecap: round"/>
   </g>
   <g id="patch_5">
    <path d="M 317.858824 613.805581 
L 370.376471 613.805581 
L 370.376471 572.927506 
L 317.858824 572.927506 
L 317.858824 613.805581 
z
" clip-path="url(#p02f9bc1e29)" style="fill: #95a3c3; stroke: #595959; stroke-linejoin: miter"/>
   </g>
   <g id="line2d_16">
    <path d="M 344.117647 613.805581 
L 344.117647 615.581771 
" clip-path="url(#p02f9bc1e29)" style="fill: none; stroke: #595959"/>
   </g>
   <g id="line2d_17">
    <path d="M 344.117647 572.927506 
L 344.117647 517.904151 
" clip-path="url(#p02f9bc1e29)" style="fill: none; stroke: #595959"/>
   </g>
   <g id="line2d_18">
    <path d="M 330.988235 615.581771 
L 357.247059 615.581771 
" clip-path="url(#p02f9bc1e29)" style="fill: none; stroke: #595959; stroke-linecap: round"/>
   </g>
   <g id="line2d_19">
    <path d="M 330.988235 517.904151 
L 357.247059 517.904151 
" clip-path="url(#p02f9bc1e29)" style="fill: none; stroke: #595959; stroke-linecap: round"/>
   </g>
   <g id="patch_6">
    <path d="M 383.505882 449.729949 
L 436.023529 449.729949 
L 436.023529 426.404041 
L 383.505882 426.404041 
L 383.505882 449.729949 
z
" clip-path="url(#p02f9bc1e29)" style="fill: #db96c0; stroke: #595959; stroke-linejoin: miter"/>
   </g>
   <g id="line2d_20">
    <path d="M 409.764706 449.729949 
L 409.764706 471.445311 
" clip-path="url(#p02f9bc1e29)" style="fill: none; stroke: #595959"/>
   </g>
   <g id="line2d_21">
    <path d="M 409.764706 426.404041 
L 409.764706 422.830555 
" clip-path="url(#p02f9bc1e29)" style="fill: none; stroke: #595959"/>
   </g>
   <g id="line2d_22">
    <path d="M 396.635294 471.445311 
L 422.894118 471.445311 
" clip-path="url(#p02f9bc1e29)" style="fill: none; stroke: #595959; stroke-linecap: round"/>
   </g>
   <g id="line2d_23">
    <path d="M 396.635294 422.830555 
L 422.894118 422.830555 
" clip-path="url(#p02f9bc1e29)" style="fill: none; stroke: #595959; stroke-linecap: round"/>
   </g>
   <g id="patch_7">
    <path d="M 449.152941 288.278748 
L 501.670588 288.278748 
L 501.670588 288.278748 
L 449.152941 288.278748 
L 449.152941 288.278748 
z
" clip-path="url(#p02f9bc1e29)" style="fill: #a2c865; stroke: #595959; stroke-linejoin: miter"/>
   </g>
   <g id="line2d_24">
    <path d="M 475.411765 288.278748 
L 475.411765 288.278748 
" clip-path="url(#p02f9bc1e29)" style="fill: none; stroke: #595959"/>
   </g>
   <g id="line2d_25">
    <path d="M 475.411765 288.278748 
L 475.411765 288.278748 
" clip-path="url(#p02f9bc1e29)" style="fill: none; stroke: #595959"/>
   </g>
   <g id="line2d_26">
    <path d="M 462.282353 288.278748 
L 488.541176 288.278748 
" clip-path="url(#p02f9bc1e29)" style="fill: none; stroke: #595959; stroke-linecap: round"/>
   </g>
   <g id="line2d_27">
    <path d="M 462.282353 288.278748 
L 488.541176 288.278748 
" clip-path="url(#p02f9bc1e29)" style="fill: none; stroke: #595959; stroke-linecap: round"/>
   </g>
   <g id="patch_8">
    <path d="M 514.8 612.630869 
L 567.317647 612.630869 
L 567.317647 551.936986 
L 514.8 551.936986 
L 514.8 612.630869 
z
" clip-path="url(#p02f9bc1e29)" style="fill: #e5c849; stroke: #595959; stroke-linejoin: miter"/>
   </g>
   <g id="line2d_28">
    <path d="M 541.058824 612.630869 
L 541.058824 615.531332 
" clip-path="url(#p02f9bc1e29)" style="fill: none; stroke: #595959"/>
   </g>
   <g id="line2d_29">
    <path d="M 541.058824 551.936986 
L 541.058824 470.090612 
" clip-path="url(#p02f9bc1e29)" style="fill: none; stroke: #595959"/>
   </g>
   <g id="line2d_30">
    <path d="M 527.929412 615.531332 
L 554.188235 615.531332 
" clip-path="url(#p02f9bc1e29)" style="fill: none; stroke: #595959; stroke-linecap: round"/>
   </g>
   <g id="line2d_31">
    <path d="M 527.929412 470.090612 
L 554.188235 470.090612 
" clip-path="url(#p02f9bc1e29)" style="fill: none; stroke: #595959; stroke-linecap: round"/>
   </g>
   <g id="patch_9">
    <path d="M 580.447059 610.970104 
L 632.964706 610.970104 
L 632.964706 585.20354 
L 580.447059 585.20354 
L 580.447059 610.970104 
z
" clip-path="url(#p02f9bc1e29)" style="fill: #dbc29e; stroke: #595959; stroke-linejoin: miter"/>
   </g>
   <g id="line2d_32">
    <path d="M 606.705882 610.970104 
L 606.705882 615.575683 
" clip-path="url(#p02f9bc1e29)" style="fill: none; stroke: #595959"/>
   </g>
   <g id="line2d_33">
    <path d="M 606.705882 585.20354 
L 606.705882 552.699373 
" clip-path="url(#p02f9bc1e29)" style="fill: none; stroke: #595959"/>
   </g>
   <g id="line2d_34">
    <path d="M 593.576471 615.575683 
L 619.835294 615.575683 
" clip-path="url(#p02f9bc1e29)" style="fill: none; stroke: #595959; stroke-linecap: round"/>
   </g>
   <g id="line2d_35">
    <path d="M 593.576471 552.699373 
L 619.835294 552.699373 
" clip-path="url(#p02f9bc1e29)" style="fill: none; stroke: #595959; stroke-linecap: round"/>
   </g>
   <g id="patch_10">
    <path d="M 646.094118 612.465527 
L 698.611765 612.465527 
L 698.611765 591.094557 
L 646.094118 591.094557 
L 646.094118 612.465527 
z
" clip-path="url(#p02f9bc1e29)" style="fill: #b3b3b3; stroke: #595959; stroke-linejoin: miter"/>
   </g>
   <g id="line2d_36">
    <path d="M 672.352941 612.465527 
L 672.352941 615.577559 
" clip-path="url(#p02f9bc1e29)" style="fill: none; stroke: #595959"/>
   </g>
   <g id="line2d_37">
    <path d="M 672.352941 591.094557 
L 672.352941 559.353406 
" clip-path="url(#p02f9bc1e29)" style="fill: none; stroke: #595959"/>
   </g>
   <g id="line2d_38">
    <path d="M 659.223529 615.577559 
L 685.482353 615.577559 
" clip-path="url(#p02f9bc1e29)" style="fill: none; stroke: #595959; stroke-linecap: round"/>
   </g>
   <g id="line2d_39">
    <path d="M 659.223529 559.353406 
L 685.482353 559.353406 
" clip-path="url(#p02f9bc1e29)" style="fill: none; stroke: #595959; stroke-linecap: round"/>
   </g>
   <g id="patch_11">
    <path d="M 711.741176 612.250658 
L 764.258824 612.250658 
L 764.258824 593.572874 
L 711.741176 593.572874 
L 711.741176 612.250658 
z
" clip-path="url(#p02f9bc1e29)" style="fill: #72b6a1; stroke: #595959; stroke-linejoin: miter"/>
   </g>
   <g id="line2d_40">
    <path d="M 738 612.250658 
L 738 615.589204 
" clip-path="url(#p02f9bc1e29)" style="fill: none; stroke: #595959"/>
   </g>
   <g id="line2d_41">
    <path d="M 738 593.572874 
L 738 569.627709 
" clip-path="url(#p02f9bc1e29)" style="fill: none; stroke: #595959"/>
   </g>
   <g id="line2d_42">
    <path d="M 724.870588 615.589204 
L 751.129412 615.589204 
" clip-path="url(#p02f9bc1e29)" style="fill: none; stroke: #595959; stroke-linecap: round"/>
   </g>
   <g id="line2d_43">
    <path d="M 724.870588 569.627709 
L 751.129412 569.627709 
" clip-path="url(#p02f9bc1e29)" style="fill: none; stroke: #595959; stroke-linecap: round"/>
   </g>
   <g id="patch_12">
    <path d="M 777.388235 612.477748 
L 829.905882 612.477748 
L 829.905882 596.078224 
L 777.388235 596.078224 
L 777.388235 612.477748 
z
" clip-path="url(#p02f9bc1e29)" style="fill: #e99675; stroke: #595959; stroke-linejoin: miter"/>
   </g>
   <g id="line2d_44">
    <path d="M 803.647059 612.477748 
L 803.647059 615.6 
" clip-path="url(#p02f9bc1e29)" style="fill: none; stroke: #595959"/>
   </g>
   <g id="line2d_45">
    <path d="M 803.647059 596.078224 
L 803.647059 576.602922 
" clip-path="url(#p02f9bc1e29)" style="fill: none; stroke: #595959"/>
   </g>
   <g id="line2d_46">
    <path d="M 790.517647 615.6 
L 816.776471 615.6 
" clip-path="url(#p02f9bc1e29)" style="fill: none; stroke: #595959; stroke-linecap: round"/>
   </g>
   <g id="line2d_47">
    <path d="M 790.517647 576.602922 
L 816.776471 576.602922 
" clip-path="url(#p02f9bc1e29)" style="fill: none; stroke: #595959; stroke-linecap: round"/>
   </g>
   <g id="patch_13">
    <path d="M 843.035294 613.043671 
L 895.552941 613.043671 
L 895.552941 594.299184 
L 843.035294 594.299184 
L 843.035294 613.043671 
z
" clip-path="url(#p02f9bc1e29)" style="fill: #95a3c3; stroke: #595959; stroke-linejoin: miter"/>
   </g>
   <g id="line2d_48">
    <path d="M 869.294118 613.043671 
L 869.294118 615.592036 
" clip-path="url(#p02f9bc1e29)" style="fill: none; stroke: #595959"/>
   </g>
   <g id="line2d_49">
    <path d="M 869.294118 594.299184 
L 869.294118 572.208726 
" clip-path="url(#p02f9bc1e29)" style="fill: none; stroke: #595959"/>
   </g>
   <g id="line2d_50">
    <path d="M 856.164706 615.592036 
L 882.423529 615.592036 
" clip-path="url(#p02f9bc1e29)" style="fill: none; stroke: #595959; stroke-linecap: round"/>
   </g>
   <g id="line2d_51">
    <path d="M 856.164706 572.208726 
L 882.423529 572.208726 
" clip-path="url(#p02f9bc1e29)" style="fill: none; stroke: #595959; stroke-linecap: round"/>
   </g>
   <g id="patch_14">
    <path d="M 908.682353 609.703045 
L 961.2 609.703045 
L 961.2 592.949706 
L 908.682353 592.949706 
L 908.682353 609.703045 
z
" clip-path="url(#p02f9bc1e29)" style="fill: #db96c0; stroke: #595959; stroke-linejoin: miter"/>
   </g>
   <g id="line2d_52">
    <path d="M 934.941176 609.703045 
L 934.941176 615.588638 
" clip-path="url(#p02f9bc1e29)" style="fill: none; stroke: #595959"/>
   </g>
   <g id="line2d_53">
    <path d="M 934.941176 592.949706 
L 934.941176 569.765433 
" clip-path="url(#p02f9bc1e29)" style="fill: none; stroke: #595959"/>
   </g>
   <g id="line2d_54">
    <path d="M 921.811765 615.588638 
L 948.070588 615.588638 
" clip-path="url(#p02f9bc1e29)" style="fill: none; stroke: #595959; stroke-linecap: round"/>
   </g>
   <g id="line2d_55">
    <path d="M 921.811765 569.765433 
L 948.070588 569.765433 
" clip-path="url(#p02f9bc1e29)" style="fill: none; stroke: #595959; stroke-linecap: round"/>
   </g>
   <g id="patch_15">
    <path d="M 974.329412 613.153478 
L 1026.847059 613.153478 
L 1026.847059 600.203121 
L 974.329412 600.203121 
L 974.329412 613.153478 
z
" clip-path="url(#p02f9bc1e29)" style="fill: #a2c865; stroke: #595959; stroke-linejoin: miter"/>
   </g>
   <g id="line2d_56">
    <path d="M 1000.588235 613.153478 
L 1000.588235 615.594726 
" clip-path="url(#p02f9bc1e29)" style="fill: none; stroke: #595959"/>
   </g>
   <g id="line2d_57">
    <path d="M 1000.588235 600.203121 
L 1000.588235 581.743542 
" clip-path="url(#p02f9bc1e29)" style="fill: none; stroke: #595959"/>
   </g>
   <g id="line2d_58">
    <path d="M 987.458824 615.594726 
L 1013.717647 615.594726 
" clip-path="url(#p02f9bc1e29)" style="fill: none; stroke: #595959; stroke-linecap: round"/>
   </g>
   <g id="line2d_59">
    <path d="M 987.458824 581.743542 
L 1013.717647 581.743542 
" clip-path="url(#p02f9bc1e29)" style="fill: none; stroke: #595959; stroke-linecap: round"/>
   </g>
   <g id="patch_16">
    <path d="M 1039.976471 613.455394 
L 1092.494118 613.455394 
L 1092.494118 593.710342 
L 1039.976471 593.710342 
L 1039.976471 613.455394 
z
" clip-path="url(#p02f9bc1e29)" style="fill: #e5c849; stroke: #595959; stroke-linejoin: miter"/>
   </g>
   <g id="line2d_60">
    <path d="M 1066.235294 613.455394 
L 1066.235294 615.582267 
" clip-path="url(#p02f9bc1e29)" style="fill: none; stroke: #595959"/>
   </g>
   <g id="line2d_61">
    <path d="M 1066.235294 593.710342 
L 1066.235294 564.28813 
" clip-path="url(#p02f9bc1e29)" style="fill: none; stroke: #595959"/>
   </g>
   <g id="line2d_62">
    <path d="M 1053.105882 615.582267 
L 1079.364706 615.582267 
" clip-path="url(#p02f9bc1e29)" style="fill: none; stroke: #595959; stroke-linecap: round"/>
   </g>
   <g id="line2d_63">
    <path d="M 1053.105882 564.28813 
L 1079.364706 564.28813 
" clip-path="url(#p02f9bc1e29)" style="fill: none; stroke: #595959; stroke-linecap: round"/>
   </g>
   <g id="patch_17">
    <path d="M 1105.623529 614.433783 
L 1158.141176 614.433783 
L 1158.141176 606.393514 
L 1105.623529 606.393514 
L 1105.623529 614.433783 
z
" clip-path="url(#p02f9bc1e29)" style="fill: #dbc29e; stroke: #595959; stroke-linejoin: miter"/>
   </g>
   <g id="line2d_64">
    <path d="M 1131.882353 614.433783 
L 1131.882353 615.589381 
" clip-path="url(#p02f9bc1e29)" style="fill: none; stroke: #595959"/>
   </g>
   <g id="line2d_65">
    <path d="M 1131.882353 606.393514 
L 1131.882353 596.369778 
" clip-path="url(#p02f9bc1e29)" style="fill: none; stroke: #595959"/>
   </g>
   <g id="line2d_66">
    <path d="M 1118.752941 615.589381 
L 1145.011765 615.589381 
" clip-path="url(#p02f9bc1e29)" style="fill: none; stroke: #595959; stroke-linecap: round"/>
   </g>
   <g id="line2d_67">
    <path d="M 1118.752941 596.369778 
L 1145.011765 596.369778 
" clip-path="url(#p02f9bc1e29)" style="fill: none; stroke: #595959; stroke-linecap: round"/>
   </g>
   <g id="patch_18">
    <path d="M 1171.270588 614.600276 
L 1223.788235 614.600276 
L 1223.788235 600.894832 
L 1171.270588 600.894832 
L 1171.270588 614.600276 
z
" clip-path="url(#p02f9bc1e29)" style="fill: #b3b3b3; stroke: #595959; stroke-linejoin: miter"/>
   </g>
   <g id="line2d_68">
    <path d="M 1197.529412 614.600276 
L 1197.529412 615.594337 
" clip-path="url(#p02f9bc1e29)" style="fill: none; stroke: #595959"/>
   </g>
   <g id="line2d_69">
    <path d="M 1197.529412 600.894832 
L 1197.529412 583.181597 
" clip-path="url(#p02f9bc1e29)" style="fill: none; stroke: #595959"/>
   </g>
   <g id="line2d_70">
    <path d="M 1184.4 615.594337 
L 1210.658824 615.594337 
" clip-path="url(#p02f9bc1e29)" style="fill: none; stroke: #595959; stroke-linecap: round"/>
   </g>
   <g id="line2d_71">
    <path d="M 1184.4 583.181597 
L 1210.658824 583.181597 
" clip-path="url(#p02f9bc1e29)" style="fill: none; stroke: #595959; stroke-linecap: round"/>
   </g>
   <g id="patch_19">
    <path d="M 1236.917647 612.718934 
L 1289.435294 612.718934 
L 1289.435294 596.024316 
L 1236.917647 596.024316 
L 1236.917647 612.718934 
z
" clip-path="url(#p02f9bc1e29)" style="fill: #72b6a1; stroke: #595959; stroke-linejoin: miter"/>
   </g>
   <g id="line2d_72">
    <path d="M 1263.176471 612.718934 
L 1263.176471 615.599292 
" clip-path="url(#p02f9bc1e29)" style="fill: none; stroke: #595959"/>
   </g>
   <g id="line2d_73">
    <path d="M 1263.176471 596.024316 
L 1263.176471 575.683413 
" clip-path="url(#p02f9bc1e29)" style="fill: none; stroke: #595959"/>
   </g>
   <g id="line2d_74">
    <path d="M 1250.047059 615.599292 
L 1276.305882 615.599292 
" clip-path="url(#p02f9bc1e29)" style="fill: none; stroke: #595959; stroke-linecap: round"/>
   </g>
   <g id="line2d_75">
    <path d="M 1250.047059 575.683413 
L 1276.305882 575.683413 
" clip-path="url(#p02f9bc1e29)" style="fill: none; stroke: #595959; stroke-linecap: round"/>
   </g>
   <g id="line2d_76">
    <path d="M 186.564706 593.736534 
L 239.082353 593.736534 
" clip-path="url(#p02f9bc1e29)" style="fill: none; stroke: #595959"/>
   </g>
   <g id="line2d_77">
    <path d="M 252.211765 216.860312 
L 304.729412 216.860312 
" clip-path="url(#p02f9bc1e29)" style="fill: none; stroke: #595959"/>
   </g>
   <g id="line2d_78">
    <path d="M 317.858824 603.478504 
L 370.376471 603.478504 
" clip-path="url(#p02f9bc1e29)" style="fill: none; stroke: #595959"/>
   </g>
   <g id="line2d_79">
    <path d="M 383.505882 437.127912 
L 436.023529 437.127912 
" clip-path="url(#p02f9bc1e29)" style="fill: none; stroke: #595959"/>
   </g>
   <g id="line2d_80">
    <path d="M 449.152941 288.278748 
L 501.670588 288.278748 
" clip-path="url(#p02f9bc1e29)" style="fill: none; stroke: #595959"/>
   </g>
   <g id="line2d_81">
    <path d="M 514.8 597.326098 
L 567.317647 597.326098 
" clip-path="url(#p02f9bc1e29)" style="fill: none; stroke: #595959"/>
   </g>
   <g id="line2d_82">
    <path d="M 580.447059 597.485025 
L 632.964706 597.485025 
" clip-path="url(#p02f9bc1e29)" style="fill: none; stroke: #595959"/>
   </g>
   <g id="line2d_83">
    <path d="M 646.094118 606.056087 
L 698.611765 606.056087 
" clip-path="url(#p02f9bc1e29)" style="fill: none; stroke: #595959"/>
   </g>
   <g id="line2d_84">
    <path d="M 711.741176 602.193003 
L 764.258824 602.193003 
" clip-path="url(#p02f9bc1e29)" style="fill: none; stroke: #595959"/>
   </g>
   <g id="line2d_85">
    <path d="M 777.388235 607.696429 
L 829.905882 607.696429 
" clip-path="url(#p02f9bc1e29)" style="fill: none; stroke: #595959"/>
   </g>
   <g id="line2d_86">
    <path d="M 843.035294 604.803771 
L 895.552941 604.803771 
" clip-path="url(#p02f9bc1e29)" style="fill: none; stroke: #595959"/>
   </g>
   <g id="line2d_87">
    <path d="M 908.682353 602.999635 
L 961.2 602.999635 
" clip-path="url(#p02f9bc1e29)" style="fill: none; stroke: #595959"/>
   </g>
   <g id="line2d_88">
    <path d="M 974.329412 609.930038 
L 1026.847059 609.930038 
" clip-path="url(#p02f9bc1e29)" style="fill: none; stroke: #595959"/>
   </g>
   <g id="line2d_89">
    <path d="M 1039.976471 606.021152 
L 1092.494118 606.021152 
" clip-path="url(#p02f9bc1e29)" style="fill: none; stroke: #595959"/>
   </g>
   <g id="line2d_90">
    <path d="M 1105.623529 612.577988 
L 1158.141176 612.577988 
" clip-path="url(#p02f9bc1e29)" style="fill: none; stroke: #595959"/>
   </g>
   <g id="line2d_91">
    <path d="M 1171.270588 612.463412 
L 1223.788235 612.463412 
" clip-path="url(#p02f9bc1e29)" style="fill: none; stroke: #595959"/>
   </g>
   <g id="line2d_92">
    <path d="M 1236.917647 609.531783 
L 1289.435294 609.531783 
" clip-path="url(#p02f9bc1e29)" style="fill: none; stroke: #595959"/>
   </g>
   <g id="patch_20">
    <path d="M 180 640.8 
L 180 86.4 
" style="fill: none; stroke: #ffffff; stroke-width: 1.25; stroke-linejoin: miter; stroke-linecap: square"/>
   </g>
   <g id="patch_21">
    <path d="M 1296 640.8 
L 1296 86.4 
" style="fill: none; stroke: #ffffff; stroke-width: 1.25; stroke-linejoin: miter; stroke-linecap: square"/>
   </g>
   <g id="patch_22">
    <path d="M 180 640.8 
L 1296 640.8 
" style="fill: none; stroke: #ffffff; stroke-width: 1.25; stroke-linejoin: miter; stroke-linecap: square"/>
   </g>
   <g id="patch_23">
    <path d="M 180 86.4 
L 1296 86.4 
" style="fill: none; stroke: #ffffff; stroke-width: 1.25; stroke-linejoin: miter; stroke-linecap: square"/>
   </g>
  </g>
 </g>
 <defs>
  <clipPath id="p02f9bc1e29">
   <rect x="180" y="86.4" width="1116" height="554.4"/>
  </clipPath>
 </defs>
</svg>
